<svg xmlns="http://www.w3.org/2000/svg" xmlns:xlink="http://www.w3.org/1999/xlink" viewBox="0 0 1600 1200" width="1600" height="1200" preserveAspectRatio="xMidYMid meet" style="width: 100%; height: 100%; transform: translate3d(0px, 0px, 0px); content-visibility: visible;"><defs><clipPath id="__lottie_element_129"><rect width="1600" height="1200" x="0" y="0"/></clipPath></defs><g clip-path="url(#__lottie_element_129)"><g transform="matrix(1,0,0,1,800,600)" opacity="1" style="display: block;"><g opacity="1" transform="matrix(0.9999969601631165,-0.0024609118700027466,0.0024474752135574818,0.9945369362831116,0,2)"><path fill="rgb(246,212,140)" fill-opacity="1" d=" M221.86300659179688,-307.52899169921875 C221.86300659179688,-307.52899169921875 -43.10300064086914,-239.73500061035156 -43.10300064086914,-239.73500061035156 C-43.10300064086914,-239.73500061035156 -302.0690002441406,-283.8559875488281 -302.0690002441406,-283.8559875488281 C-302.0690002441406,-283.8559875488281 -604,-210 -604,-210 C-604,-210 -660.093017578125,410.0159912109375 -660.093017578125,410.0159912109375 C-660.093017578125,410.0159912109375 -310.0780029296875,344.02801513671875 -310.0780029296875,344.02801513671875 C-310.0780029296875,344.02801513671875 -4.107999801635742,374.2070007324219 -4.107999801635742,374.2070007324219 C-4.107999801635742,374.2070007324219 313.8529968261719,306.4580078125 313.8529968261719,306.4580078125 C313.8529968261719,306.4580078125 649.8380126953125,340.8110046386719 649.8380126953125,340.8110046386719 C649.8380126953125,340.8110046386719 543.8369750976562,-269.2969970703125 543.8369750976562,-269.2969970703125 C543.8369750976562,-269.2969970703125 221.86300659179688,-307.52899169921875 221.86300659179688,-307.52899169921875z"/><path stroke-linecap="butt" stroke-linejoin="miter" fill-opacity="0" stroke-miterlimit="4" stroke="rgb(0,0,0)" stroke-opacity="1" stroke-width="0" d=" M221.86300659179688,-307.52899169921875 C221.86300659179688,-307.52899169921875 -43.10300064086914,-239.73500061035156 -43.10300064086914,-239.73500061035156 C-43.10300064086914,-239.73500061035156 -302.0690002441406,-283.8559875488281 -302.0690002441406,-283.8559875488281 C-302.0690002441406,-283.8559875488281 -604,-210 -604,-210 C-604,-210 -660.093017578125,410.0159912109375 -660.093017578125,410.0159912109375 C-660.093017578125,410.0159912109375 -310.0780029296875,344.02801513671875 -310.0780029296875,344.02801513671875 C-310.0780029296875,344.02801513671875 -4.107999801635742,374.2070007324219 -4.107999801635742,374.2070007324219 C-4.107999801635742,374.2070007324219 313.8529968261719,306.4580078125 313.8529968261719,306.4580078125 C313.8529968261719,306.4580078125 649.8380126953125,340.8110046386719 649.8380126953125,340.8110046386719 C649.8380126953125,340.8110046386719 543.8369750976562,-269.2969970703125 543.8369750976562,-269.2969970703125 C543.8369750976562,-269.2969970703125 221.86300659179688,-307.52899169921875 221.86300659179688,-307.52899169921875z"/></g><g opacity="1" transform="matrix(1,0,0,1,0,0)"><path fill="rgb(252,226,171)" fill-opacity="1" d=" M-302,-281.75 C-302,-281.75 -306,342.5 -306,342.5 C-306,342.5 -6.5,374 -6.5,374 C-6.5,374 -41.25,-234 -41.25,-234 C-41.25,-234 -302,-281.75 -302,-281.75z"/><path stroke-linecap="butt" stroke-linejoin="miter" fill-opacity="0" stroke-miterlimit="4" stroke="rgb(0,0,0)" stroke-opacity="1" stroke-width="0" d=" M-302,-281.75 C-302,-281.75 -306,342.5 -306,342.5 C-306,342.5 -6.5,374 -6.5,374 C-6.5,374 -41.25,-234 -41.25,-234 C-41.25,-234 -302,-281.75 -302,-281.75z"/></g><g opacity="1" transform="matrix(1,0,0,1,460,-54)"><path fill="rgb(252,226,171)" fill-opacity="1" d=" M-238,-250.25 C-238,-250.25 -234.7969970703125,-231.88600158691406 -234.7969970703125,-231.88600158691406 C-234.7969970703125,-231.88600158691406 -141,361.5 -141,361.5 C-141,361.5 194.5,399 194.5,399 C194.5,399 83.75,-213 83.75,-213 C83.75,-213 -238,-250.25 -238,-250.25z"/><path stroke-linecap="butt" stroke-linejoin="miter" fill-opacity="0" stroke-miterlimit="4" stroke="rgb(0,0,0)" stroke-opacity="1" stroke-width="0" d=" M-238,-250.25 C-238,-250.25 -234.7969970703125,-231.88600158691406 -234.7969970703125,-231.88600158691406 C-234.7969970703125,-231.88600158691406 -141,361.5 -141,361.5 C-141,361.5 194.5,399 194.5,399 C194.5,399 83.75,-213 83.75,-213 C83.75,-213 -238,-250.25 -238,-250.25z"/></g><g opacity="1" transform="matrix(1,0,0,1,1,0)"><path fill="rgb(0,105,14)" fill-opacity="1" d=" M-574.75,151.75 C-575.25,151.75 -693,321 -617,360 C-541,399 -390,356 -390,356 C-390,356 -412.62799072265625,286.98699951171875 -374,246 C-243,107 -528,98 -574.75,151.75z"/><path stroke-linecap="butt" stroke-linejoin="miter" fill-opacity="0" stroke-miterlimit="4" stroke="rgb(0,0,0)" stroke-opacity="1" stroke-width="0" d=" M-574.75,151.75 C-575.25,151.75 -693,321 -617,360 C-541,399 -390,356 -390,356 C-390,356 -412.62799072265625,286.98699951171875 -374,246 C-243,107 -528,98 -574.75,151.75z"/></g><g opacity="1" transform="matrix(1,0,0,1,0,0)"><path fill="rgb(59,166,74)" fill-opacity="1" d=" M-36,-122 C-36,-122 -166,-122 -124,-58 C-88.54499816894531,-3.9730000495910645 -218,44 -164,80 C-110,116 -24,128 -24,128 C-24,128 -36,-122 -36,-122z"/><path stroke-linecap="butt" stroke-linejoin="miter" fill-opacity="0" stroke-miterlimit="4" stroke="rgb(0,0,0)" stroke-opacity="1" stroke-width="0" d=" M-36,-122 C-36,-122 -166,-122 -124,-58 C-88.54499816894531,-3.9730000495910645 -218,44 -164,80 C-110,116 -24,128 -24,128 C-24,128 -36,-122 -36,-122z"/></g><g opacity="1" transform="matrix(1,0,0,1,-43,-12)"><path fill="rgb(0,105,15)" fill-opacity="1" d=" M629.25,132.25 C596,113 591.572998046875,160.2550048828125 546,154 C469.5,143.5 455.5,156.5 435,199 C412.05999755859375,246.55799865722656 369,304 404,317.5 C439,331 687,350 687.5,347 C692.4329833984375,317.40399169921875 662.5,151.5 629.25,132.25z"/><path stroke-linecap="butt" stroke-linejoin="miter" fill-opacity="0" stroke-miterlimit="4" stroke="rgb(0,0,0)" stroke-opacity="1" stroke-width="0" d=" M629.25,132.25 C596,113 591.572998046875,160.2550048828125 546,154 C469.5,143.5 455.5,156.5 435,199 C412.05999755859375,246.55799865722656 369,304 404,317.5 C439,331 687,350 687.5,347 C692.4329833984375,317.40399169921875 662.5,151.5 629.25,132.25z"/></g><g opacity="1" transform="matrix(1,0,0,1,0.5,21)"><path fill="rgb(59,166,74)" fill-opacity="1" d=" M231,-262 C231,-262 250.5,-156 254.10899353027344,-122.29100036621094 C256.5050048828125,-99.91000366210938 409.07598876953125,-150.11199951171875 383,-197 C368.1080017089844,-223.7779998779297 396.9519958496094,-260.01800537109375 383.38800048828125,-276.54901123046875 C347.3110046386719,-320.5169982910156 272.4150085449219,-316.1809997558594 241.96099853515625,-309.1709899902344 C220.322998046875,-304.19000244140625 231,-262 231,-262z"/><path stroke-linecap="butt" stroke-linejoin="miter" fill-opacity="0" stroke-miterlimit="4" stroke="rgb(0,0,0)" stroke-opacity="1" stroke-width="0" d=" M231,-262 C231,-262 250.5,-156 254.10899353027344,-122.29100036621094 C256.5050048828125,-99.91000366210938 409.07598876953125,-150.11199951171875 383,-197 C368.1080017089844,-223.7779998779297 396.9519958496094,-260.01800537109375 383.38800048828125,-276.54901123046875 C347.3110046386719,-320.5169982910156 272.4150085449219,-316.1809997558594 241.96099853515625,-309.1709899902344 C220.322998046875,-304.19000244140625 231,-262 231,-262z"/></g></g><g transform="matrix(0.9690000414848328,0,0,0.9690000414848328,635.5408935546875,691.8074951171875)" opacity="1" style="display: block;"><g opacity="1" transform="matrix(1,0,0,1,0,0)"><path fill="rgb(235,0,22)" fill-opacity="1" d=" M99.05799865722656,-137.05799865722656 C75.81099700927734,-137.43800354003906 68.25,-116 70.75,-103 C73.11199951171875,-90.71499633789062 99.10099792480469,-63.78499984741211 99.10099792480469,-63.78499984741211 C99.10099792480469,-63.78499984741211 123.73999786376953,-93.29000091552734 126.10299682617188,-103.31300354003906 C128.64599609375,-114.0999984741211 124.2249984741211,-136.64700317382812 99.05799865722656,-137.05799865722656z"/><path stroke-linecap="butt" stroke-linejoin="miter" fill-opacity="0" stroke-miterlimit="4" stroke="rgb(0,0,0)" stroke-opacity="1" stroke-width="0" d=" M99.05799865722656,-137.05799865722656 C75.81099700927734,-137.43800354003906 68.25,-116 70.75,-103 C73.11199951171875,-90.71499633789062 99.10099792480469,-63.78499984741211 99.10099792480469,-63.78499984741211 C99.10099792480469,-63.78499984741211 123.73999786376953,-93.29000091552734 126.10299682617188,-103.31300354003906 C128.64599609375,-114.0999984741211 124.2249984741211,-136.64700317382812 99.05799865722656,-137.05799865722656z"/></g></g><g transform="matrix(1.13100004196167,0,0,1.13100004196167,297.581787109375,831.8872680664062)" opacity="1" style="display: block;"><g opacity="1" transform="matrix(1,0,0,1,0,0)"><path fill="rgb(212,0,21)" fill-opacity="1" d=" M99.05799865722656,-137.05799865722656 C75.81099700927734,-137.43800354003906 68.25,-116 70.75,-103 C73.11199951171875,-90.71499633789062 99.10099792480469,-63.78499984741211 99.10099792480469,-63.78499984741211 C99.10099792480469,-63.78499984741211 123.73999786376953,-93.29000091552734 126.10299682617188,-103.31300354003906 C128.64599609375,-114.0999984741211 124.2249984741211,-136.64700317382812 99.05799865722656,-137.05799865722656z"/><path stroke-linecap="butt" stroke-linejoin="miter" fill-opacity="0" stroke-miterlimit="4" stroke="rgb(0,0,0)" stroke-opacity="1" stroke-width="0" d=" M99.05799865722656,-137.05799865722656 C75.81099700927734,-137.43800354003906 68.25,-116 70.75,-103 C73.11199951171875,-90.71499633789062 99.10099792480469,-63.78499984741211 99.10099792480469,-63.78499984741211 C99.10099792480469,-63.78499984741211 123.73999786376953,-93.29000091552734 126.10299682617188,-103.31300354003906 C128.64599609375,-114.0999984741211 124.2249984741211,-136.64700317382812 99.05799865722656,-137.05799865722656z"/></g></g><g transform="matrix(1.212042212486267,0,0,1.212042212486267,1217.59814453125,911.0518188476562)" opacity="1" style="display: block;"><g opacity="1" transform="matrix(1,0,0,1,0,0)"><path fill="rgb(212,0,21)" fill-opacity="1" d=" M99.05799865722656,-137.05799865722656 C75.81099700927734,-137.43800354003906 68.25,-116 70.75,-103 C73.11199951171875,-90.71499633789062 99.10099792480469,-63.78499984741211 99.10099792480469,-63.78499984741211 C99.10099792480469,-63.78499984741211 123.73999786376953,-93.29000091552734 126.10299682617188,-103.31300354003906 C128.64599609375,-114.0999984741211 124.2249984741211,-136.64700317382812 99.05799865722656,-137.05799865722656z"/><path stroke-linecap="butt" stroke-linejoin="miter" fill-opacity="0" stroke-miterlimit="4" stroke="rgb(0,0,0)" stroke-opacity="1" stroke-width="0" d=" M99.05799865722656,-137.05799865722656 C75.81099700927734,-137.43800354003906 68.25,-116 70.75,-103 C73.11199951171875,-90.71499633789062 99.10099792480469,-63.78499984741211 99.10099792480469,-63.78499984741211 C99.10099792480469,-63.78499984741211 123.73999786376953,-93.29000091552734 126.10299682617188,-103.31300354003906 C128.64599609375,-114.0999984741211 124.2249984741211,-136.64700317382812 99.05799865722656,-137.05799865722656z"/></g></g></g></svg>