<?xml version="1.0" standalone="no"?>
<!DOCTYPE svg PUBLIC "-//W3C//DTD SVG 20010904//EN"
 "http://www.w3.org/TR/2001/REC-SVG-20010904/DTD/svg10.dtd">
<svg version="1.0" xmlns="http://www.w3.org/2000/svg"
 width="6000.000000pt" height="3375.000000pt" viewBox="0 0 6000.000000 3375.000000"
 preserveAspectRatio="xMidYMid meet">

<g transform="translate(0.000000,3375.000000) scale(0.100000,-0.100000)"
fill="#000000" stroke="none">
<path d="M37350 33439 c-494 -45 -644 -65 -965 -128 -169 -33 -493 -111 -580
-140 -16 -5 -64 -19 -105 -31 -88 -26 -275 -89 -375 -126 -38 -14 -83 -29
-100 -35 -16 -5 -39 -13 -50 -18 -11 -6 -49 -22 -85 -36 -36 -14 -74 -30 -85
-35 -11 -5 -54 -23 -95 -41 -130 -55 -466 -217 -540 -260 -8 -4 -87 -49 -175
-100 -88 -50 -176 -101 -195 -114 -19 -12 -87 -56 -150 -96 -107 -69 -367
-251 -435 -305 -16 -14 -34 -28 -40 -32 -246 -185 -597 -505 -856 -779 -351
-373 -750 -905 -959 -1283 -17 -30 -40 -71 -52 -90 -75 -124 -259 -492 -328
-656 -23 -54 -48 -112 -56 -129 -7 -16 -34 -84 -59 -150 -25 -66 -50 -129 -54
-140 -12 -27 -69 -198 -87 -260 -8 -27 -19 -59 -24 -70 -4 -11 -14 -40 -20
-65 -7 -25 -21 -76 -32 -115 -126 -447 -201 -872 -250 -1415 -14 -159 -13
-865 1 -1030 40 -468 69 -634 151 -881 39 -115 50 -146 76 -204 7 -16 24 -59
38 -95 14 -36 26 -60 26 -55 1 24 32 -53 32 -77 0 -16 4 -28 9 -28 5 0 18 -9
30 -21 17 -17 26 -19 44 -11 27 12 38 57 19 73 -21 17 -17 72 6 92 11 9 20 23
20 31 0 7 7 19 15 26 8 7 15 21 15 32 0 11 9 31 20 45 11 14 20 31 20 37 0 8
-3 7 -8 -1 -5 -8 -12 -8 -26 3 -19 14 -19 14 2 14 22 0 24 13 6 68 -5 16 17
52 32 52 7 0 15 7 18 16 6 15 8 15 24 1 17 -15 20 -15 41 -1 12 9 28 13 35 11
21 -8 14 27 -6 35 -10 4 -18 13 -17 20 0 9 2 10 5 1 3 -7 12 -9 19 -7 9 4 16
-3 21 -20 3 -14 10 -26 15 -26 5 0 9 -9 9 -20 0 -11 -7 -20 -15 -20 -12 0 -12
-3 3 -19 15 -16 18 -17 30 -3 16 21 15 37 -3 56 -8 8 -15 21 -15 30 0 8 -5 18
-12 22 -7 5 -3 11 13 18 24 10 24 10 -8 14 -24 2 -33 9 -35 25 -2 12 -14 27
-28 34 -14 7 -19 13 -11 13 11 0 11 3 1 15 -9 11 -10 18 -1 28 6 8 8 17 4 20
-3 4 -1 7 5 7 22 0 2 83 -25 107 -13 11 -20 24 -14 27 15 10 1 44 -21 49 -16
5 -19 13 -17 41 2 22 -3 41 -14 54 -9 10 -17 26 -17 34 0 9 -7 29 -15 44 -8
16 -15 39 -15 52 0 12 -4 22 -8 22 -11 0 -30 89 -36 170 -3 36 -12 92 -20 125
-9 32 -16 89 -16 126 0 36 -4 88 -9 115 -14 75 -36 484 -35 644 1 156 14 424
25 510 5 47 12 112 15 145 3 33 9 65 14 70 4 6 8 35 9 67 0 31 7 87 15 125 8
37 14 90 14 116 0 26 6 55 12 63 7 8 15 47 17 86 3 40 8 75 13 78 5 3 10 23
12 45 2 22 7 46 12 53 4 6 5 16 2 21 -3 5 0 21 8 36 8 15 12 34 9 41 -3 8 -1
14 4 14 5 0 10 14 11 31 1 17 12 68 23 112 12 45 22 86 23 91 1 6 5 16 8 22 4
6 9 21 11 35 3 13 10 35 15 49 17 42 25 64 27 80 1 8 7 31 13 50 70 208 98
288 118 335 6 17 15 41 19 55 3 14 10 34 15 45 39 87 50 115 50 120 0 3 11 31
25 61 14 30 36 82 50 115 29 68 79 177 104 229 63 125 143 273 174 322 20 31
37 60 37 63 0 3 12 24 27 48 15 23 35 59 45 79 9 21 31 58 47 82 17 25 31 48
31 53 0 10 58 93 83 117 9 10 17 23 17 30 0 7 8 21 19 32 10 11 30 39 44 61
15 23 55 78 89 123 35 45 77 101 93 124 17 23 59 76 94 117 35 40 80 93 100
117 20 24 54 63 76 86 113 121 220 240 223 247 2 5 8 9 14 9 12 0 38 26 38 38
0 5 12 18 28 28 15 10 59 49 98 88 85 84 199 185 234 207 14 9 42 33 63 53 21
20 42 36 46 36 5 0 19 10 32 23 44 42 136 117 144 117 4 0 25 15 46 33 59 50
95 76 120 87 13 6 38 19 54 30 17 11 41 25 55 32 27 13 131 88 141 101 8 11
159 87 172 87 6 0 33 15 61 34 54 35 90 54 196 106 36 18 99 49 140 71 40 21
81 39 90 39 9 0 22 6 29 13 6 6 15 12 19 12 18 0 122 40 122 47 0 4 9 8 20 8
11 0 20 5 20 10 0 6 8 10 18 10 20 0 132 38 147 50 6 4 27 10 48 14 20 4 37
11 37 16 0 6 3 9 8 9 20 -4 71 15 65 24 -3 6 -1 7 5 3 16 -10 63 4 55 17 -3 6
-1 7 6 3 10 -7 80 12 91 25 10 12 41 19 34 8 -4 -8 -1 -8 14 0 11 6 32 11 46
11 14 0 26 5 26 11 0 6 7 9 15 6 8 -4 17 -2 20 4 4 5 12 8 18 7 15 -3 108 22
123 33 6 5 28 10 50 13 21 2 50 8 64 14 22 10 156 30 250 38 19 2 78 10 130
19 52 8 109 16 125 17 17 0 34 3 39 6 11 6 45 9 214 16 68 3 128 8 132 11 26
16 966 28 1066 14 23 -3 67 -3 98 1 46 5 59 3 66 -9 5 -9 10 -11 10 -6 0 12
150 14 150 2 0 -4 18 -6 40 -3 22 2 42 0 45 -4 6 -9 37 -6 57 6 7 5 8 3 3 -5
-6 -10 13 -12 84 -9 50 2 91 1 91 -2 0 -8 48 -5 56 3 4 3 15 2 25 -4 11 -5 36
-9 57 -8 21 2 44 -1 50 -5 7 -4 18 -4 25 1 13 10 140 -5 133 -15 -2 -4 21 -8
52 -9 32 -1 66 -2 77 -2 11 -1 38 -1 59 -1 22 0 50 -7 63 -15 15 -10 23 -11
23 -4 0 7 7 8 18 4 9 -4 24 -7 32 -7 23 1 173 -19 190 -25 8 -3 43 -7 77 -9
34 -2 81 -11 105 -19 48 -18 73 -23 137 -30 24 -3 47 -8 52 -11 7 -4 47 -12
144 -29 11 -2 36 -6 55 -9 19 -2 60 -12 90 -21 30 -9 78 -20 105 -25 53 -9
195 -53 232 -71 11 -6 26 -8 33 -4 7 4 22 3 33 -3 33 -16 208 -72 241 -77 16
-3 34 -9 40 -14 6 -5 40 -18 76 -31 36 -12 88 -32 115 -45 28 -12 68 -28 90
-35 22 -6 63 -22 90 -35 54 -25 116 -52 180 -79 66 -28 85 -39 85 -48 0 -4 5
-8 11 -8 16 0 172 -70 189 -85 8 -7 40 -23 70 -36 30 -13 57 -26 60 -29 15
-20 212 -129 233 -130 4 0 20 -12 35 -26 15 -14 41 -32 57 -41 26 -14 72 -46
140 -98 11 -8 32 -21 47 -28 15 -6 28 -15 28 -19 0 -5 5 -8 10 -8 6 0 44 -27
86 -60 41 -33 78 -60 82 -60 4 0 23 -15 42 -33 19 -18 62 -53 95 -77 33 -24
62 -46 65 -50 3 -3 30 -25 60 -48 87 -66 276 -238 377 -342 108 -111 262 -277
319 -344 78 -91 160 -186 184 -213 11 -12 20 -27 20 -33 0 -5 4 -10 9 -10 5 0
24 -26 42 -57 17 -32 37 -62 43 -68 7 -5 29 -36 50 -67 21 -32 42 -58 47 -58
4 0 20 -21 35 -47 15 -27 37 -64 50 -84 13 -19 24 -43 24 -52 0 -9 4 -17 9
-17 12 0 108 -147 148 -225 26 -52 92 -167 123 -215 6 -8 15 -26 21 -40 5 -14
37 -79 69 -145 56 -114 94 -205 85 -205 -2 0 7 -11 20 -24 13 -13 28 -43 34
-67 6 -24 22 -66 35 -94 12 -27 29 -71 37 -97 7 -27 17 -48 20 -48 4 0 10 -15
14 -32 4 -18 13 -43 21 -55 11 -18 12 -23 2 -23 -10 0 -10 -2 -1 -8 19 -12
108 -276 98 -291 -3 -5 2 -22 10 -37 8 -16 15 -36 15 -44 0 -9 5 -21 12 -28
10 -10 21 -57 33 -142 3 -19 12 -52 20 -73 8 -20 15 -50 15 -65 0 -15 9 -58
20 -97 11 -38 20 -82 20 -97 0 -15 5 -30 11 -33 6 -4 8 -14 5 -22 -4 -9 -1
-22 5 -29 6 -7 8 -18 4 -24 -3 -5 -3 -16 2 -22 4 -7 8 -31 9 -53 1 -52 14
-136 22 -150 4 -5 8 -32 9 -60 3 -63 8 -99 17 -113 3 -5 0 -13 -6 -16 -9 -3
-7 -9 7 -21 16 -13 17 -17 6 -24 -7 -5 -11 -13 -8 -18 6 -9 13 -76 22 -193 3
-30 7 -70 11 -90 10 -58 11 -745 2 -875 -5 -66 -11 -145 -13 -175 -1 -30 -4
-55 -5 -55 -1 0 -4 -27 -5 -60 -3 -56 -10 -102 -37 -250 -5 -33 -12 -73 -14
-90 -9 -87 -19 -131 -31 -143 -7 -7 -15 -25 -19 -40 -3 -15 -9 -34 -15 -42 -5
-8 -12 -22 -16 -30 -3 -8 -13 -31 -21 -50 -8 -19 -14 -38 -14 -42 1 -5 -3 -8
-9 -8 -6 0 -8 -7 -5 -16 4 -10 -1 -22 -11 -29 -10 -8 -18 -17 -18 -22 0 -11
-32 -89 -52 -128 -61 -114 -73 -140 -73 -152 0 -7 -4 -13 -10 -13 -5 0 -10 -5
-10 -11 0 -20 -52 -129 -62 -129 -5 0 -6 -9 -3 -20 4 -11 2 -20 -4 -20 -6 0
-11 -8 -11 -18 0 -11 -9 -27 -20 -37 -11 -10 -20 -27 -20 -37 0 -11 -9 -31
-20 -45 -11 -14 -20 -34 -20 -44 0 -10 -16 -35 -35 -56 -19 -21 -35 -48 -35
-60 0 -12 -4 -25 -10 -28 -5 -3 -10 -14 -10 -24 0 -10 -7 -24 -15 -31 -8 -7
-15 -22 -15 -34 0 -12 -9 -29 -20 -39 -11 -9 -20 -23 -20 -31 0 -7 -6 -19 -14
-25 -8 -7 -18 -27 -22 -44 -4 -18 -15 -38 -25 -45 -10 -7 -16 -19 -13 -26 3
-8 0 -17 -6 -21 -6 -4 -8 -16 -4 -27 4 -15 3 -18 -6 -13 -9 6 -11 4 -5 -4 4
-8 -4 -25 -23 -44 -16 -18 -36 -49 -43 -69 -7 -21 -16 -38 -21 -38 -4 0 -5 -7
-2 -15 4 -8 2 -15 -4 -15 -5 0 -7 -11 -5 -23 3 -17 -4 -32 -27 -53 -17 -16
-38 -46 -47 -66 -8 -21 -21 -38 -27 -38 -8 0 -11 -12 -8 -36 4 -28 -1 -41 -23
-64 -15 -16 -24 -33 -21 -39 4 -6 0 -11 -8 -11 -10 0 -13 -6 -9 -16 4 -10 -1
-17 -15 -21 -11 -2 -23 -12 -26 -21 -7 -21 -28 -55 -39 -63 -4 -3 -7 -10 -6
-15 4 -25 -2 -44 -16 -44 -8 0 -12 -6 -9 -14 3 -8 -7 -26 -23 -40 -23 -22 -26
-29 -16 -44 7 -13 8 -23 1 -33 -8 -11 -9 -10 -4 4 3 9 2 17 -3 17 -11 0 -34
-56 -28 -67 7 -10 -1 -23 -25 -41 -14 -12 -16 -10 -11 10 4 18 3 20 -6 8 -6
-8 -8 -22 -5 -31 2 -9 -2 -19 -11 -23 -18 -7 -20 -32 -2 -40 6 -4 3 -5 -9 -2
-17 3 -20 -1 -16 -22 4 -20 2 -24 -11 -19 -10 4 -17 -1 -20 -14 -3 -11 -1 -16
5 -13 6 4 8 -2 6 -12 -2 -11 -11 -18 -21 -16 -12 2 -17 -4 -17 -23 0 -14 5
-25 12 -25 6 0 8 -3 5 -6 -4 -4 -14 -1 -24 7 -9 8 -14 9 -10 3 4 -7 0 -17 -8
-24 -8 -7 -15 -21 -15 -31 0 -11 -7 -19 -15 -19 -15 0 -42 -40 -28 -40 4 -1
-2 -9 -15 -19 -15 -14 -18 -21 -10 -25 10 -5 10 -7 0 -12 -10 -5 -10 -9 -1
-20 10 -12 9 -13 -6 -8 -14 6 -16 3 -10 -14 4 -15 2 -22 -7 -22 -15 0 -42 -39
-34 -48 3 -3 6 1 6 8 0 7 2 11 5 8 10 -9 -7 -38 -22 -38 -9 0 -13 -6 -9 -15 3
-8 2 -14 -2 -14 -20 3 -32 -3 -32 -16 0 -8 6 -12 14 -9 8 3 17 1 21 -5 3 -6 1
-11 -5 -11 -7 0 -10 -6 -7 -13 4 -10 -2 -13 -21 -9 -15 3 -24 1 -19 -3 4 -5 0
-16 -9 -26 -9 -10 -14 -24 -11 -32 4 -10 -1 -13 -18 -9 -20 3 -23 0 -21 -22 2
-14 -1 -23 -5 -20 -5 3 -9 0 -9 -5 0 -6 -7 -11 -16 -11 -10 0 -14 -6 -11 -14
4 -10 1 -13 -9 -9 -16 6 -20 -12 -4 -22 16 -10 11 -26 -7 -23 -13 2 -17 -3
-16 -19 2 -14 -5 -28 -17 -35 -18 -11 -18 -14 -3 -30 14 -16 13 -18 -10 -23
-14 -4 -31 -4 -38 1 -8 5 -9 3 -5 -5 5 -7 0 -21 -9 -31 -9 -10 -15 -25 -12
-32 2 -7 -5 -26 -16 -41 -15 -22 -22 -26 -28 -15 -6 9 -9 9 -9 1 0 -6 5 -15
10 -18 6 -4 0 -20 -15 -39 -14 -18 -25 -43 -25 -56 0 -17 -4 -21 -19 -17 -22
5 -31 -10 -31 -52 0 -15 -7 -36 -15 -47 -8 -10 -15 -31 -15 -46 0 -16 -8 -31
-19 -37 -10 -6 -22 -27 -26 -47 -3 -20 -10 -44 -15 -53 -5 -9 -21 -47 -35 -86
-15 -38 -33 -83 -40 -100 -21 -45 -65 -162 -65 -172 0 -5 -15 -44 -34 -88 -18
-44 -43 -109 -55 -145 -12 -36 -26 -74 -30 -85 -50 -121 -72 -181 -152 -415
-17 -52 -43 -118 -55 -147 -13 -28 -24 -54 -24 -57 0 -2 -5 -17 -12 -33 -6
-15 -13 -37 -15 -47 -2 -11 -10 -33 -18 -49 -8 -17 -15 -36 -15 -43 0 -8 -9
-33 -19 -56 -11 -24 -29 -70 -41 -103 -12 -33 -29 -76 -38 -95 -8 -19 -16 -40
-18 -47 -5 -28 -28 -90 -40 -108 -7 -11 -15 -33 -17 -50 -4 -26 -20 -63 -49
-115 -4 -8 -11 -22 -14 -30 -3 -8 -10 -24 -14 -35 -17 -40 -44 -130 -42 -138
1 -5 -7 -21 -17 -36 -11 -16 -18 -31 -15 -34 3 -3 -3 -16 -15 -28 -12 -13 -21
-30 -21 -38 0 -24 -33 -111 -42 -111 -4 0 -8 -12 -8 -27 -1 -16 -7 -39 -15
-53 -8 -14 -14 -35 -15 -46 0 -12 -6 -27 -14 -34 -8 -6 -12 -18 -9 -26 3 -8 1
-14 -5 -14 -6 0 -14 -15 -17 -32 -4 -18 -11 -37 -14 -43 -4 -5 -16 -32 -26
-60 -10 -27 -24 -57 -31 -66 -8 -8 -14 -25 -14 -37 0 -12 -5 -22 -11 -22 -5 0
-8 -4 -5 -9 6 -9 -15 -61 -26 -61 -3 0 -9 -18 -13 -40 -4 -22 -11 -42 -16 -46
-5 -3 -9 -18 -9 -34 0 -16 -9 -45 -20 -65 -11 -20 -29 -61 -40 -92 -11 -31
-26 -63 -35 -73 -8 -9 -16 -30 -18 -46 -2 -16 -10 -42 -17 -59 -7 -16 -14 -34
-15 -40 -8 -38 -19 -56 -33 -50 -13 5 -13 3 -1 -11 11 -13 11 -17 -4 -25 -9
-5 -14 -16 -11 -24 3 -8 0 -21 -8 -29 -33 -37 -39 -47 -33 -56 3 -5 -3 -18
-13 -28 -10 -10 -17 -23 -15 -29 2 -6 -5 -28 -16 -49 -11 -20 -18 -41 -15 -45
2 -4 -6 -15 -18 -23 -12 -9 -17 -16 -10 -16 9 0 9 -8 -2 -34 -8 -19 -12 -37
-9 -40 3 -3 -2 -8 -11 -12 -14 -5 -14 -9 -4 -22 11 -13 10 -15 -9 -10 -16 4
-20 2 -16 -8 3 -8 10 -14 16 -14 6 0 7 -3 3 -7 -4 -4 -15 -8 -24 -8 -11 0 -17
-8 -16 -21 0 -14 -4 -20 -13 -17 -17 7 -17 -23 0 -31 9 -5 9 -7 -1 -12 -6 -3
-10 -9 -7 -14 3 -4 -3 -7 -13 -6 -13 1 -17 -7 -17 -37 0 -20 -3 -37 -8 -37 -4
0 -4 -12 -1 -27 6 -22 4 -25 -11 -19 -14 5 -16 2 -12 -14 3 -11 1 -18 -4 -14
-5 3 -9 -9 -9 -27 0 -40 -29 -109 -47 -109 -7 0 -20 -14 -28 -31 -15 -28 -15
-32 -1 -42 15 -11 14 -13 -4 -25 -15 -9 -20 -9 -20 0 0 6 -3 8 -6 5 -4 -4 -1
-13 6 -22 11 -13 10 -14 -5 -9 -15 6 -17 3 -13 -13 4 -14 -3 -30 -19 -47 -13
-14 -22 -30 -18 -35 3 -5 2 -11 -2 -13 -15 -6 -57 -123 -55 -150 2 -21 -1 -26
-13 -22 -11 4 -16 -4 -21 -35 -4 -23 -12 -41 -19 -41 -7 0 -16 -17 -20 -37 -4
-21 -12 -44 -18 -51 -6 -7 -12 -25 -13 -40 -2 -15 -10 -32 -19 -38 -8 -6 -15
-18 -15 -27 0 -9 -4 -18 -9 -21 -5 -3 -7 -14 -4 -24 2 -10 -3 -24 -11 -31 -9
-8 -16 -21 -16 -31 0 -9 -9 -29 -20 -43 -11 -14 -20 -30 -20 -36 0 -6 -7 -11
-15 -11 -8 0 -15 -5 -15 -11 0 -6 7 -8 17 -5 13 5 11 1 -6 -18 -14 -15 -21
-31 -17 -41 3 -9 2 -14 -3 -10 -9 5 -27 -51 -23 -68 2 -5 -2 -6 -8 -2 -5 3
-11 -1 -11 -9 -1 -9 -3 -20 -4 -26 -1 -5 -3 -17 -4 -26 0 -9 -7 -14 -14 -11
-7 3 -19 -4 -25 -14 -9 -14 -9 -19 -1 -19 8 0 6 -7 -4 -18 -10 -10 -17 -26
-17 -34 0 -9 -6 -18 -12 -21 -10 -3 -10 -8 1 -21 12 -14 12 -16 -4 -10 -14 6
-16 1 -13 -32 3 -34 0 -40 -25 -52 -23 -11 -26 -18 -23 -49 4 -31 2 -34 -15
-30 -14 4 -20 1 -18 -11 3 -36 -2 -50 -21 -55 -15 -4 -19 -12 -17 -41 2 -22
-2 -37 -10 -40 -7 -3 -13 -13 -13 -21 0 -9 -4 -14 -9 -11 -5 4 -7 -3 -4 -14 4
-14 1 -19 -8 -17 -8 2 -11 2 -6 0 11 -7 9 -43 -3 -43 -5 0 -10 -5 -10 -11 0
-7 -9 -20 -21 -30 -12 -10 -18 -23 -13 -30 4 -8 3 -9 -4 -5 -8 5 -12 -1 -12
-16 0 -13 -5 -29 -12 -36 -9 -9 -9 -12 0 -12 7 0 12 -8 12 -19 0 -22 -23 -44
-35 -33 -5 4 -5 2 -2 -4 8 -14 -26 -47 -38 -37 -4 5 -5 2 0 -5 4 -8 16 -12 26
-9 18 5 18 4 1 -18 -12 -16 -19 -19 -25 -11 -12 18 -39 -25 -32 -51 6 -25 -4
-30 -23 -11 -13 13 -14 12 -16 -32 0 -16 2 -30 7 -30 4 0 7 -4 7 -10 0 -5 -9
-10 -20 -10 -13 0 -20 -7 -20 -20 0 -15 -7 -20 -27 -20 -21 0 -24 -3 -14 -9
12 -8 12 -12 2 -25 -9 -11 -10 -16 -2 -16 21 0 11 -18 -14 -24 -16 -4 -25 -13
-25 -26 0 -11 -6 -20 -14 -20 -9 0 -12 -10 -10 -30 2 -19 -1 -30 -9 -30 -6 0
-4 -5 5 -11 14 -8 15 -13 6 -23 -7 -8 -20 -11 -28 -9 -12 4 -13 3 -1 -5 13
-10 19 -57 8 -68 -3 -4 -11 -4 -18 -2 -8 3 -7 9 4 20 15 14 15 17 1 22 -8 3
-13 2 -10 -3 3 -5 -5 -24 -17 -43 -13 -18 -22 -39 -20 -45 2 -6 -1 -14 -6 -18
-7 -3 -8 0 -5 9 4 10 0 14 -15 13 -16 -1 -20 -6 -15 -22 4 -11 10 -21 14 -23
15 -6 -4 -46 -32 -71 -19 -15 -28 -31 -25 -43 4 -13 0 -18 -14 -18 -21 0 -26
-16 -6 -23 6 -3 0 -6 -15 -6 -22 -1 -28 -6 -28 -24 0 -13 -9 -32 -20 -42 -11
-10 -20 -24 -20 -32 0 -8 -8 -13 -17 -11 -13 2 -17 -3 -15 -15 2 -11 -4 -27
-14 -38 -19 -21 -12 -49 13 -49 15 0 16 -2 3 -10 -8 -5 -24 -7 -34 -4 -15 5
-18 2 -14 -14 4 -16 2 -18 -14 -14 -17 4 -19 1 -13 -17 5 -18 2 -24 -14 -28
-12 -3 -21 -9 -21 -14 0 -5 -6 -9 -14 -9 -14 0 -30 -29 -21 -38 3 -3 5 0 5 7
0 7 5 9 11 6 6 -4 8 -14 4 -23 -3 -8 0 -19 7 -24 9 -6 7 -10 -10 -14 -19 -6
-22 -11 -17 -35 4 -19 3 -29 -5 -29 -7 0 -10 7 -6 15 4 10 -1 15 -14 15 -26 0
-25 -18 1 -46 l20 -21 -25 2 c-19 2 -23 -1 -19 -13 5 -11 2 -14 -10 -9 -11 4
-17 1 -17 -8 0 -8 -8 -15 -17 -15 -15 0 -14 -2 3 -16 19 -15 18 -15 -3 -11
-14 3 -21 0 -20 -7 1 -6 -6 -10 -15 -10 -10 1 -14 -4 -11 -12 3 -9 -2 -14 -16
-14 -12 0 -21 -5 -21 -10 0 -6 -11 -23 -25 -38 -14 -15 -25 -36 -24 -47 2 -35
-1 -38 -18 -24 -10 8 -25 14 -33 13 -8 -1 -24 -2 -34 -3 -16 -1 -17 -4 -8 -13
18 -18 14 -38 -8 -38 -11 0 -20 -4 -20 -10 0 -5 4 -10 10 -10 14 0 9 -71 -7
-77 -7 -3 -13 -11 -13 -19 0 -10 -7 -13 -26 -8 -24 6 -26 4 -24 -22 4 -52 2
-57 -15 -40 -8 8 -15 21 -15 30 0 8 -4 17 -9 20 -5 4 -7 -4 -4 -16 4 -22 4
-23 -11 -4 -13 17 -16 17 -16 4 0 -9 -8 -19 -17 -21 -17 -4 -17 -5 0 -6 26 -2
21 -36 -9 -56 -17 -11 -24 -23 -21 -35 3 -13 0 -17 -9 -13 -8 3 -14 13 -14 23
0 13 -5 17 -21 13 -12 -3 -18 -11 -15 -19 3 -8 2 -14 -3 -14 -5 0 -16 -16 -25
-35 -19 -39 -24 -43 -22 -17 0 9 -6 17 -14 17 -11 0 -15 -12 -15 -48 0 -49
-13 -67 -44 -62 -9 1 -10 0 -3 -2 6 -3 12 -10 12 -16 0 -7 5 -6 11 3 9 13 10
13 6 0 -2 -8 -9 -16 -15 -16 -7 -1 -16 -2 -22 -3 -5 0 -10 -9 -10 -20 0 -23
-16 -37 -53 -46 -20 -5 -27 -13 -24 -24 5 -20 -33 -27 -45 -8 -5 8 -14 4 -28
-13 -12 -14 -25 -25 -28 -26 -34 -4 -60 -44 -29 -44 9 0 8 -3 -2 -9 -7 -5 -11
-13 -8 -18 3 -5 0 -10 -8 -10 -11 0 -12 5 -3 21 6 12 -9 3 -35 -21 -26 -24
-51 -43 -56 -43 -6 0 -8 -7 -5 -15 4 -8 2 -15 -3 -15 -5 0 -8 -29 -8 -64 1
-59 0 -64 -17 -55 -13 7 -18 6 -18 -3 0 -8 -9 -22 -21 -31 -16 -14 -24 -16
-35 -6 -16 13 -28 6 -76 -44 -30 -31 -61 -30 -85 1 -7 9 -13 11 -13 5 0 -7 5
-15 10 -18 6 -3 10 -16 10 -27 0 -21 -2 -20 -32 8 -18 16 -30 25 -26 20 4 -5
-3 -17 -15 -27 l-22 -19 28 6 c21 5 27 2 27 -10 0 -9 -6 -16 -14 -16 -8 0 -19
-12 -25 -27 l-11 -28 4 28 c3 27 -16 39 -29 17 -3 -5 -12 -7 -19 -4 -8 3 -16
-2 -19 -13 -3 -10 -5 -2 -6 17 -1 25 -4 31 -12 23 -6 -6 -17 -9 -24 -7 -6 3
-18 -3 -26 -12 -13 -16 -12 -17 9 -12 12 4 22 2 22 -2 0 -5 3 -16 6 -24 5 -14
2 -15 -21 -6 -15 6 -30 8 -33 5 -3 -3 0 -5 6 -5 20 0 13 -24 -14 -53 -14 -15
-23 -35 -20 -43 4 -11 -4 -13 -44 -10 -27 2 -52 1 -55 -2 -3 -3 -15 -7 -27 -9
-12 -2 -29 -10 -38 -18 -9 -8 -32 -21 -53 -30 -33 -14 -37 -14 -37 0 0 8 -7
15 -16 15 -9 0 -14 -6 -11 -12 3 -10 -15 -13 -71 -14 -48 -1 -77 -5 -80 -12
-2 -8 -10 -9 -20 -3 -9 4 -36 7 -59 6 -24 -1 -43 2 -43 6 0 5 -7 9 -15 9 -8 0
-15 -5 -15 -11 0 -6 -7 -9 -14 -6 -10 4 -13 1 -9 -9 3 -7 1 -14 -5 -14 -14 0
-33 26 -24 34 4 4 -9 6 -28 4 -27 -2 -35 1 -35 14 0 23 -36 60 -53 53 -7 -3
-20 2 -29 10 -8 8 -19 13 -24 10 -10 -7 -69 25 -69 36 0 6 -45 18 -67 19 -11
0 -7 -31 8 -67 7 -18 19 -33 26 -33 7 0 23 -15 35 -34 13 -19 33 -37 46 -39
21 -4 23 -1 19 19 -4 22 -1 20 27 -11 17 -20 42 -38 55 -40 13 -2 28 -11 35
-18 23 -30 179 -97 222 -97 11 0 25 -5 30 -10 6 -6 19 -12 30 -15 10 -2 39
-12 64 -21 25 -9 52 -17 60 -18 8 -1 43 -6 77 -10 35 -5 60 -12 58 -16 -12
-20 300 -30 485 -16 41 3 100 12 130 20 30 8 82 21 115 29 89 20 89 21 97 37
5 12 7 11 7 -4 1 -17 4 -16 24 8 16 19 26 23 34 15 8 -8 20 -1 44 23 19 18 45
39 59 46 46 24 70 39 92 58 12 10 18 13 14 7 -16 -28 11 -11 44 27 24 28 37
36 46 29 8 -7 14 -6 19 1 4 6 18 15 31 21 14 5 32 22 41 37 9 16 29 34 45 41
15 7 28 17 28 23 0 5 11 24 25 42 14 18 23 35 20 38 -3 2 15 19 40 37 40 29
51 46 46 74 -1 5 3 6 8 3 15 -10 43 5 37 20 -3 8 -1 14 5 14 6 0 8 8 4 19 -4
12 5 29 25 51 17 18 33 44 37 57 3 14 14 28 23 30 15 4 48 77 43 94 -1 3 10 5
25 5 22 -1 28 5 37 39 5 22 18 55 28 74 11 18 30 63 44 99 13 36 32 77 42 91
51 73 122 231 137 308 6 32 106 227 120 236 7 4 16 22 20 39 3 18 13 43 21 55
9 13 12 23 9 23 -4 0 -1 12 7 28 7 15 21 42 30 60 9 19 17 41 17 50 0 22 49
144 66 163 8 8 14 19 14 23 0 5 7 24 16 44 29 68 33 77 39 109 3 17 12 33 19
36 7 3 27 45 46 93 31 85 71 179 91 217 5 9 32 62 61 116 34 65 61 105 80 115
15 10 28 25 28 35 0 19 39 61 57 61 6 0 16 15 23 34 6 18 20 42 32 52 11 11
29 38 40 62 10 23 23 42 28 42 6 0 10 6 10 14 0 7 7 19 16 27 8 7 24 29 34 48
10 20 27 45 37 56 28 30 94 131 112 172 5 11 14 24 19 27 14 8 52 83 52 101 0
8 11 25 25 37 14 12 25 29 25 38 0 10 8 28 19 41 10 13 56 101 101 194 217
448 250 517 250 530 0 8 5 17 11 21 6 4 31 48 54 98 23 50 71 150 105 221 34
72 78 164 97 205 20 41 58 122 85 180 28 58 68 143 90 190 23 47 63 132 90
190 28 58 70 148 95 200 94 199 122 259 178 375 32 66 70 147 85 180 15 33 51
110 80 170 29 61 83 175 120 255 37 80 91 195 120 255 61 128 118 249 167 355
64 137 110 234 155 330 56 117 110 233 153 325 18 39 51 108 73 155 21 47 53
114 70 150 16 36 93 200 170 365 147 315 195 418 244 525 89 193 146 316 189
409 27 57 49 105 49 107 0 1 25 55 55 119 30 65 55 118 55 120 0 2 25 56 55
120 30 63 55 117 55 120 0 2 23 51 50 110 28 59 50 108 50 110 0 2 21 48 46
102 26 54 63 136 84 183 21 47 52 115 69 153 17 37 31 69 31 71 0 2 16 39 36
83 20 43 42 92 49 108 19 45 50 114 74 167 11 26 21 49 21 52 0 3 13 33 29 68
16 35 57 128 91 208 34 80 65 154 70 165 31 71 101 240 123 295 90 232 117
301 117 306 0 3 6 20 14 37 14 33 82 232 109 322 71 235 107 519 128 1005 17
408 -12 928 -75 1330 -34 216 -57 335 -96 505 -49 210 -69 285 -142 535 -19
68 -90 275 -104 307 -8 17 -14 35 -14 39 0 25 -169 428 -255 609 -79 165 -85
179 -135 270 -24 44 -61 114 -82 155 -22 41 -49 87 -59 101 -10 15 -19 30 -19
33 0 9 -134 224 -213 341 -72 107 -122 180 -130 190 -7 9 -58 79 -105 143 -44
60 -205 263 -265 333 -12 14 -44 52 -72 84 -74 88 -172 191 -345 365 -206 206
-277 272 -455 420 -83 69 -152 127 -155 130 -21 22 -415 310 -471 345 -9 6
-27 17 -40 26 -114 78 -376 236 -504 304 -49 26 -94 51 -100 55 -29 23 -378
191 -515 249 -41 18 -84 36 -95 41 -11 5 -49 21 -85 35 -36 15 -78 32 -95 40
-16 7 -41 16 -55 20 -14 3 -34 10 -45 15 -22 11 -60 24 -225 79 -115 38 -188
61 -330 101 -143 41 -176 49 -265 70 -49 12 -117 27 -150 35 -233 54 -541 102
-875 136 -163 16 -292 21 -625 24 -231 2 -463 -1 -515 -6z m-6175 -8187 c-3
-3 -11 0 -18 7 -9 10 -8 11 6 5 10 -3 15 -9 12 -12z m50 -263 c11 -16 1 -19
-13 -3 -7 8 -8 14 -3 14 5 0 13 -5 16 -11z m12005 -2240 c0 -5 -4 -9 -10 -9
-5 0 -10 7 -10 16 0 8 5 12 10 9 6 -3 10 -10 10 -16z m-2487 -5879 c-3 -10
-11 -24 -19 -31 -12 -9 -12 -6 -3 20 12 34 30 43 22 11z m-1766 -3286 c2 -13
1 -15 -4 -4 -3 8 -11 19 -17 23 -7 6 -6 7 4 4 8 -2 16 -12 17 -23z m-71 -56
c4 -13 11 -25 15 -28 5 -4 -6 -6 -25 -6 -33 0 -33 0 -12 18 12 9 15 17 9 18
-15 0 -18 20 -4 20 5 0 13 -10 17 -22z m-46 -68 c0 -5 -4 -10 -10 -10 -5 0
-10 5 -10 10 0 6 5 10 10 10 6 0 10 -4 10 -10z m-55 -59 c-7 -12 -49 -6 -51 8
-2 7 0 7 3 1 7 -15 33 7 34 29 0 10 4 8 10 -7 5 -13 7 -27 4 -31z m-65 -31 c0
-5 -4 -10 -10 -10 -5 0 -10 5 -10 10 0 6 5 10 10 10 6 0 10 -4 10 -10z m-190
-220 c0 -5 -4 -10 -10 -10 -5 0 -10 5 -10 10 0 6 5 10 10 10 6 0 10 -4 10 -10z
m-90 -48 c-7 -3 -16 2 -21 9 -16 25 -9 32 12 13 13 -12 16 -20 9 -22z m-133
-136 c-3 -8 -2 -17 4 -20 5 -2 4 -3 -3 -2 -17 3 -23 36 -8 36 7 0 10 -6 7 -14z
m-1286 -435 c6 10 9 10 9 2 0 -6 -4 -14 -8 -17 -12 -7 -52 5 -52 16 0 5 10 4
21 -3 17 -9 23 -8 30 2z"/>
<path d="M38128 30361 c-15 -5 -29 -7 -32 -4 -2 3 -10 1 -18 -3 -7 -4 -60 -8
-118 -9 -58 0 -110 -4 -117 -8 -6 -4 -42 -9 -80 -11 -37 -2 -86 -8 -108 -14
-22 -6 -52 -10 -67 -8 -16 2 -28 0 -28 -5 0 -4 -35 -15 -77 -24 -43 -9 -86
-20 -95 -26 -10 -5 -28 -9 -41 -9 -25 0 -77 -21 -77 -31 0 -3 -11 -5 -25 -4
-14 2 -25 -1 -25 -6 0 -5 -9 -9 -21 -9 -11 0 -44 -11 -72 -24 -29 -13 -77 -31
-108 -40 -30 -9 -72 -28 -92 -41 -20 -14 -39 -25 -42 -25 -4 0 -21 -11 -39
-25 -18 -14 -42 -25 -53 -25 -11 0 -26 -7 -33 -15 -7 -8 -18 -15 -25 -15 -7 0
-18 -6 -24 -14 -7 -8 -23 -17 -36 -20 -14 -4 -44 -19 -67 -35 -56 -37 -194
-123 -219 -136 -10 -5 -22 -18 -25 -28 -3 -9 -9 -15 -14 -12 -5 3 -19 -6 -32
-19 -13 -13 -42 -34 -64 -46 -23 -11 -44 -30 -47 -40 -3 -11 -14 -20 -24 -20
-10 0 -59 -38 -108 -85 -49 -47 -94 -85 -100 -85 -7 0 -23 -12 -37 -27 -14
-16 -36 -38 -49 -50 -13 -11 -41 -40 -62 -62 -21 -23 -41 -41 -45 -41 -4 0
-18 -17 -32 -37 -26 -40 -40 -55 -157 -176 -40 -40 -73 -79 -73 -85 0 -5 -20
-35 -45 -65 -25 -31 -45 -60 -45 -64 0 -5 -18 -28 -40 -52 -23 -24 -39 -48
-37 -54 2 -6 -9 -22 -25 -35 -29 -25 -75 -102 -61 -102 5 0 3 -4 -3 -8 -13 -9
-53 -75 -51 -84 1 -4 -5 -16 -14 -26 -8 -10 -18 -26 -22 -35 -3 -9 -11 -17
-16 -17 -6 0 -8 -7 -5 -15 4 -9 0 -15 -9 -15 -9 0 -18 -13 -22 -30 -4 -16 -10
-30 -15 -30 -11 0 -31 -60 -24 -71 3 -5 0 -9 -6 -9 -12 0 -34 -48 -31 -67 1
-7 -2 -13 -6 -13 -5 0 -10 -10 -10 -22 -1 -13 -7 -24 -13 -26 -5 -2 -10 -12
-10 -23 0 -10 -4 -19 -10 -19 -5 0 -10 -11 -10 -25 0 -13 -9 -40 -20 -60 -11
-20 -20 -42 -20 -50 0 -8 -8 -29 -18 -47 -10 -18 -17 -48 -15 -65 1 -18 -1
-33 -6 -33 -4 0 -13 -19 -20 -42 -7 -24 -19 -56 -26 -73 -7 -16 -18 -57 -25
-90 -7 -33 -15 -67 -18 -75 -3 -8 -6 -20 -7 -25 0 -6 -6 -28 -13 -50 -6 -22
-19 -92 -27 -155 -8 -63 -16 -124 -19 -135 -25 -124 -35 -431 -22 -694 12
-227 96 -693 141 -781 7 -14 17 -44 21 -65 4 -22 17 -62 29 -90 13 -27 27 -66
33 -85 23 -84 195 -450 211 -450 4 0 13 -17 20 -37 7 -21 21 -47 31 -58 10
-11 25 -35 35 -54 21 -42 79 -125 105 -151 11 -11 20 -24 20 -29 0 -10 61 -85
110 -137 17 -16 30 -33 30 -38 0 -34 390 -424 487 -487 15 -10 51 -38 78 -63
28 -25 64 -53 81 -61 17 -8 37 -21 44 -30 7 -8 16 -15 21 -15 5 0 28 -14 51
-30 133 -94 234 -154 247 -146 4 3 16 -3 26 -14 10 -11 26 -20 37 -20 10 0 18
-5 18 -10 0 -6 12 -15 28 -22 15 -6 55 -24 90 -39 35 -16 67 -29 71 -29 5 0
14 -7 21 -15 7 -8 21 -15 32 -15 10 0 36 -9 57 -20 21 -10 60 -24 87 -31 27
-6 63 -17 81 -25 17 -8 38 -14 46 -14 8 0 34 -7 58 -16 24 -8 57 -17 72 -19
43 -6 91 -17 102 -23 12 -8 27 -11 75 -18 19 -3 69 -11 111 -19 42 -8 87 -15
100 -14 23 1 214 -10 214 -12 0 0 12 -2 28 -3 15 -1 27 3 27 9 0 6 3 6 8 -1 4
-6 25 -10 47 -8 85 6 155 5 165 -1 5 -3 10 -3 10 2 0 4 26 9 57 10 75 2 184
23 177 34 -3 5 -1 9 5 9 5 0 13 -4 16 -10 7 -11 42 -6 135 20 36 10 72 18 80
18 25 -1 173 41 200 56 14 8 41 17 60 21 19 4 71 23 115 42 44 20 100 44 125
55 25 10 54 24 65 30 11 7 61 33 111 58 162 82 436 263 567 376 18 16 57 49
85 73 29 24 98 92 155 149 56 58 116 119 133 136 17 17 38 42 46 56 9 14 44
57 78 95 34 39 85 104 112 145 28 41 56 79 64 83 8 4 22 25 33 45 43 85 53
102 62 102 5 0 9 9 9 19 0 11 10 32 23 48 32 39 95 162 99 193 0 3 9 17 19 32
11 14 42 84 69 155 28 70 54 137 59 148 5 11 14 34 21 50 7 17 16 46 21 65 4
19 12 51 18 70 5 19 17 64 26 100 9 36 20 81 26 100 55 196 95 621 85 893 -4
99 -9 184 -12 189 -3 4 -7 43 -10 86 -4 72 -18 202 -30 282 -3 19 -6 47 -8 61
-1 14 -5 30 -8 35 -3 5 -4 24 -3 42 2 17 0 32 -4 32 -3 0 -7 25 -8 55 -1 35
-8 61 -18 71 -11 11 -14 25 -10 45 4 16 3 29 -2 29 -5 0 -8 12 -7 28 1 15 -1
32 -5 37 -3 6 -7 21 -8 35 -1 14 -10 54 -18 90 -9 36 -17 79 -18 97 -2 18 -6
35 -10 39 -3 4 -4 18 -1 30 4 16 2 24 -6 24 -9 0 -11 10 -6 30 3 17 1 30 -4
30 -5 0 -11 15 -14 33 -5 31 -14 89 -20 132 -2 11 -7 28 -11 38 -4 9 -5 23 -2
31 3 8 3 17 0 20 -4 3 -7 18 -9 33 -4 55 -14 95 -25 109 -6 8 -13 31 -14 52
-4 56 -16 115 -28 130 -6 8 -6 12 2 12 8 0 6 8 -4 23 -8 13 -18 50 -21 83 -3
32 -10 61 -15 62 -5 2 -6 8 -3 13 3 6 1 15 -4 22 -6 7 -13 24 -15 37 -2 14 -9
38 -16 54 -6 16 -12 45 -13 64 -1 18 -7 36 -14 39 -7 2 -10 12 -7 21 5 11 2
14 -9 10 -11 -5 -14 -1 -10 17 3 16 -4 32 -22 50 -14 14 -26 32 -26 39 0 8 -7
17 -16 20 -9 3 -14 12 -11 19 3 8 -3 19 -14 25 -10 7 -16 18 -13 26 4 9 -17
38 -54 75 -33 33 -58 62 -55 64 15 15 -42 62 -70 58 -4 -1 -6 4 -5 10 2 6 -10
19 -27 28 -16 10 -35 28 -41 40 -14 27 -49 61 -64 61 -6 0 -15 11 -20 25 -6
16 -20 27 -38 31 -16 3 -40 16 -53 28 -13 12 -32 25 -42 29 -11 4 -21 16 -24
27 -3 11 -13 20 -23 20 -9 0 -25 9 -35 20 -10 12 -24 19 -31 16 -7 -3 -15 1
-17 8 -3 7 -25 23 -49 35 -23 13 -54 33 -68 45 -31 26 -118 69 -146 71 -6 0
-18 6 -27 14 -9 7 -20 10 -26 7 -5 -3 -11 -3 -13 1 -5 13 -65 43 -86 43 -11 0
-25 6 -31 14 -12 14 -28 19 -91 31 -32 6 -100 36 -100 44 0 4 -8 7 -17 8 -66
6 -82 9 -89 16 -4 4 -17 7 -30 7 -12 0 -24 5 -26 12 -3 7 -20 14 -39 15 -74 6
-82 8 -87 21 -2 6 -8 10 -13 6 -5 -3 -15 -2 -21 2 -7 5 -26 7 -43 6 -16 -2
-48 5 -70 14 -22 10 -56 18 -75 19 -19 1 -50 5 -68 9 -36 9 -86 15 -149 20
-22 2 -45 6 -50 8 -4 3 -43 4 -85 2 -45 -1 -78 2 -78 8 0 5 -4 7 -9 3 -5 -3
-13 -1 -16 5 -4 7 -11 7 -18 2 -7 -5 -28 -7 -47 -5 -79 11 -126 12 -152 4z
m-3 -1400 c108 -14 279 -46 355 -67 90 -25 283 -86 315 -100 17 -7 59 -25 95
-39 119 -49 342 -168 454 -243 152 -102 279 -206 416 -342 194 -192 291 -316
457 -585 73 -119 174 -344 229 -515 98 -300 134 -526 134 -850 1 -253 -13
-379 -67 -610 -183 -786 -723 -1451 -1463 -1803 -158 -75 -467 -187 -516 -187
-8 0 -36 -6 -62 -14 -89 -27 -221 -46 -427 -62 -189 -14 -222 -14 -398 0 -192
16 -327 36 -422 61 -27 8 -63 17 -80 20 -39 8 -165 44 -190 55 -11 5 -31 12
-45 15 -14 4 -38 13 -55 20 -16 6 -57 22 -90 35 -137 53 -389 188 -520 279
-176 122 -259 193 -425 361 -113 114 -155 165 -291 350 -60 81 -172 273 -219
375 -23 50 -46 98 -51 107 -17 33 -86 223 -108 298 -45 157 -50 177 -61 244
-6 38 -13 72 -15 76 -7 12 -35 294 -38 395 -5 120 16 386 39 510 70 381 196
699 399 1010 183 281 473 575 741 752 322 212 643 345 1019 421 98 20 131 25
265 38 36 3 67 8 70 11 9 9 464 -5 555 -16z"/>
<path d="M31147 24865 c-4 -9 -1 -18 9 -22 22 -8 30 5 12 23 -14 14 -16 14
-21 -1z"/>
<path d="M31166 24782 c6 -4 13 -14 16 -22 3 -11 6 -9 10 6 4 15 0 20 -16 22
-11 0 -16 -2 -10 -6z"/>
<path d="M42875 22230 c-3 -5 1 -10 9 -10 9 0 16 5 16 10 0 6 -4 10 -9 10 -6
0 -13 -4 -16 -10z"/>
<path d="M33380 21965 c7 -8 16 -12 21 -9 13 8 1 24 -18 24 -13 0 -13 -3 -3
-15z"/>
<path d="M33445 21940 c-3 -5 1 -10 9 -10 9 0 16 5 16 10 0 6 -4 10 -9 10 -6
0 -13 -4 -16 -10z"/>
<path d="M33370 21920 c0 -11 -12 -32 -26 -45 -24 -23 -25 -25 -9 -54 15 -30
15 -31 -5 -31 -11 0 -20 6 -20 14 0 8 -5 18 -10 21 -11 7 -9 -23 3 -42 5 -7 6
-17 3 -22 -3 -5 1 -11 9 -15 10 -4 13 -14 9 -34 -3 -16 -1 -38 4 -49 7 -12 7
-25 1 -36 -8 -13 -6 -17 5 -17 18 0 35 -29 29 -47 -3 -7 0 -13 6 -13 6 0 11
-6 11 -14 0 -7 6 -19 14 -25 14 -12 22 -43 33 -131 3 -25 10 -50 15 -57 5 -7
7 -22 3 -33 -5 -15 0 -29 13 -43 11 -12 23 -39 26 -59 4 -21 11 -38 15 -38 5
0 11 -18 15 -41 5 -29 12 -43 26 -46 16 -4 19 -11 14 -38 -3 -19 0 -36 6 -40
6 -4 8 -15 5 -26 -4 -11 -2 -19 4 -19 6 0 11 -9 11 -19 0 -11 5 -23 10 -26 6
-3 7 -17 4 -30 -3 -12 -1 -26 5 -29 6 -4 11 -16 11 -27 0 -11 9 -40 20 -64 11
-24 17 -51 14 -59 -4 -9 7 -32 25 -55 17 -21 31 -46 31 -54 0 -8 7 -20 15 -27
8 -7 12 -16 9 -21 -3 -5 -1 -9 4 -9 5 0 8 -13 6 -29 -4 -33 17 -91 39 -109 8
-7 14 -31 14 -55 1 -24 11 -61 22 -83 12 -21 24 -54 27 -74 4 -19 10 -40 15
-46 5 -6 14 -35 20 -65 10 -49 46 -149 101 -284 34 -83 36 -89 41 -115 3 -14
13 -47 22 -75 10 -27 20 -57 23 -65 3 -8 6 -17 7 -20 9 -26 18 -48 26 -62 5
-10 9 -24 9 -32 0 -8 9 -31 21 -50 11 -19 18 -40 14 -46 -4 -6 3 -27 14 -46
12 -19 21 -44 21 -55 0 -33 72 -211 98 -241 8 -10 12 -24 8 -33 -6 -17 28
-109 51 -137 8 -9 13 -22 11 -30 -2 -13 49 -164 63 -183 4 -5 23 -57 42 -115
48 -141 105 -298 122 -337 8 -17 15 -37 15 -45 0 -7 12 -38 26 -68 14 -30 34
-77 44 -105 40 -111 68 -182 88 -225 11 -25 28 -72 38 -105 15 -54 50 -142 75
-187 5 -10 9 -23 9 -29 0 -6 7 -27 16 -47 9 -21 22 -52 30 -70 8 -18 14 -40
14 -50 0 -9 9 -30 20 -47 11 -16 20 -36 20 -43 0 -11 56 -163 80 -217 4 -11
16 -42 25 -70 9 -27 20 -57 25 -66 16 -30 59 -144 66 -174 4 -16 20 -54 36
-84 16 -30 30 -67 30 -83 1 -15 7 -33 15 -39 7 -6 13 -22 13 -35 0 -12 4 -25
9 -28 5 -3 14 -27 20 -53 7 -27 23 -64 36 -83 13 -19 31 -66 41 -105 9 -38 27
-88 40 -111 13 -23 27 -61 30 -85 4 -25 17 -53 31 -67 12 -12 23 -32 23 -42 0
-11 4 -20 9 -20 5 0 12 -12 15 -26 4 -14 16 -38 27 -53 11 -15 21 -43 23 -63
2 -21 11 -48 20 -62 9 -14 16 -37 16 -51 0 -14 5 -24 11 -22 7 1 15 -9 19 -23
4 -14 23 -59 42 -100 57 -121 68 -147 74 -182 4 -18 12 -40 19 -48 7 -8 17
-30 23 -48 6 -18 20 -45 32 -59 11 -14 20 -41 20 -60 0 -35 13 -67 36 -90 7
-7 15 -30 19 -51 6 -36 23 -62 77 -121 15 -16 21 -33 20 -55 -2 -23 4 -40 22
-59 14 -16 26 -34 26 -41 0 -7 8 -24 19 -37 10 -13 16 -30 14 -36 -3 -7 4 -13
14 -14 11 0 13 -3 5 -6 -10 -4 -10 -8 -1 -19 6 -8 15 -11 20 -8 9 5 11 -2 13
-41 1 -15 7 -19 23 -17 12 2 24 -2 28 -8 3 -5 1 -10 -4 -10 -16 0 -13 -26 4
-40 8 -7 15 -21 15 -31 0 -10 6 -22 14 -26 8 -4 15 -17 17 -27 2 -11 10 -21
17 -22 7 -1 8 0 2 3 -16 8 -12 41 6 51 9 5 25 7 35 5 13 -4 17 0 15 14 -2 10
-1 12 1 6 7 -20 26 -15 52 12 14 16 17 23 8 19 -12 -4 -18 2 -23 21 -4 15 -16
30 -28 35 -19 8 -19 9 -2 9 15 1 16 4 6 16 -6 8 -9 23 -5 35 7 23 -7 27 -24 6
-9 -11 -9 -15 1 -19 9 -4 9 -6 1 -6 -19 -1 -24 16 -8 29 11 9 12 16 2 31 -9
15 -9 21 0 27 6 4 15 20 18 35 4 15 12 27 18 27 6 0 7 3 4 6 -4 4 -13 1 -21
-5 -8 -7 -20 -10 -26 -6 -15 9 17 45 35 39 7 -3 16 -1 19 4 3 5 -10 7 -31 5
-35 -4 -36 -3 -30 26 4 19 2 32 -6 35 -7 3 -2 3 11 0 12 -3 22 -1 22 5 0 6 -7
11 -17 11 -15 0 -15 2 0 18 13 14 13 20 3 35 -8 10 -20 15 -30 11 -11 -4 -16
0 -16 14 0 11 -3 27 -6 36 -4 12 0 16 17 17 16 1 18 3 7 6 -22 6 -29 26 -18
62 7 24 5 29 -6 24 -17 -6 -19 13 -2 23 8 5 5 10 -9 15 -11 4 -22 18 -25 32
-4 20 -1 23 15 19 14 -3 18 -1 13 6 -4 7 -17 12 -30 12 -25 0 -46 17 -46 39 0
11 4 10 16 -5 14 -18 14 -18 3 6 -7 14 -14 36 -15 49 -2 13 -10 31 -19 41 -16
18 -16 18 4 13 12 -3 21 -1 21 6 0 6 -7 11 -16 11 -11 0 -13 6 -9 19 4 13 0
23 -12 29 -15 9 -15 12 -3 28 14 16 12 17 -23 11 -37 -6 -38 -5 -20 11 17 15
18 21 9 51 -7 18 -20 39 -30 46 -10 8 -15 19 -11 25 7 12 -25 41 -36 34 -4 -2
-2 7 4 20 9 19 15 22 25 13 12 -9 11 -12 -5 -18 -15 -7 -16 -8 -1 -8 9 -1 20
-10 23 -21 3 -11 13 -20 21 -20 11 0 9 10 -11 43 -14 24 -25 52 -25 61 0 12
-5 16 -15 12 -10 -4 -15 1 -15 14 0 11 -6 20 -14 20 -20 0 -45 32 -28 37 6 3
12 10 12 16 -1 18 -34 54 -56 60 -16 4 -16 5 4 6 21 1 33 31 11 31 -5 0 -7 5
-4 10 4 6 -1 22 -9 35 -9 14 -12 25 -6 25 5 0 10 -4 10 -10 0 -5 5 -10 10 -10
16 0 12 17 -6 24 -9 4 -23 1 -30 -5 -10 -8 -17 -7 -29 4 -20 21 -19 27 4 27
23 0 39 39 21 50 -7 4 -9 13 -6 19 4 6 0 11 -8 11 -9 0 -16 7 -16 15 0 8 -7
15 -15 15 -8 0 -15 7 -15 15 0 9 7 18 15 21 8 4 15 10 15 16 0 5 -5 6 -12 2
-8 -5 -9 -2 -5 11 4 9 2 24 -5 33 -7 8 -13 25 -13 36 0 12 -5 21 -11 21 -6 0
-19 8 -29 19 -19 18 -19 18 3 12 17 -6 22 -3 22 9 0 11 -5 15 -15 11 -10 -3
-15 1 -15 13 0 10 -10 26 -22 34 l-23 16 24 -6 c17 -4 22 -3 17 5 -4 7 -4 18
1 25 13 20 9 41 -10 55 -9 7 -15 17 -12 22 3 4 -1 11 -7 14 -9 4 -10 8 -2 11
16 8 -7 57 -23 50 -7 -2 -13 1 -13 8 0 7 -3 23 -5 37 -5 22 -4 22 4 5 7 -15
10 -16 10 -5 1 9 -4 21 -11 28 -9 9 -9 15 -1 23 16 16 4 47 -20 51 -11 2 -22
10 -24 18 -4 13 -3 13 6 0 13 -18 14 -1 2 19 -5 7 -13 11 -18 8 -6 -4 -19 0
-29 7 -18 13 -18 15 -2 33 18 19 15 55 -6 82 -6 8 -9 24 -8 36 2 13 -2 27 -9
31 -9 5 -10 2 -6 -9 3 -9 -1 -21 -11 -29 -15 -12 -16 -11 -3 5 10 13 10 17 1
17 -7 0 -10 8 -7 20 4 15 0 20 -14 20 -18 0 -18 2 -5 23 8 12 14 35 14 51 0
17 -3 23 -8 16 -6 -9 -11 -7 -19 7 -5 11 -7 24 -3 28 4 3 -1 13 -12 20 -10 8
-15 18 -11 24 3 6 2 11 -3 11 -5 0 -12 9 -15 20 -3 11 -1 20 5 20 6 0 8 9 5
20 -3 13 0 20 9 20 8 0 14 5 14 10 0 6 -8 10 -17 10 -13 0 -14 3 -5 12 15 15
16 38 2 38 -5 0 -10 -7 -10 -15 0 -8 -4 -15 -9 -15 -6 0 -8 17 -6 38 3 20 2
29 -1 20 -7 -24 -24 -23 -24 1 0 11 -3 26 -6 34 -3 9 3 16 15 20 17 4 20 11
15 43 -2 21 -11 45 -19 54 -13 13 -15 11 -15 -12 0 -14 -6 -28 -12 -31 -9 -3
-13 7 -13 34 0 25 5 39 13 39 6 0 12 4 12 9 0 5 -18 7 -40 4 -26 -4 -40 -2
-40 6 0 6 4 11 8 11 13 0 11 34 -2 42 -8 5 -7 8 2 8 6 0 12 7 12 16 0 8 -5 12
-10 9 -6 -3 -18 2 -27 11 -13 13 -14 19 -5 22 6 2 12 9 12 15 0 8 -4 7 -12 -1
-18 -18 -30 -14 -23 8 4 12 2 20 -5 20 -8 0 -10 10 -8 25 3 13 1 22 -3 19 -5
-3 -9 4 -9 14 0 15 5 19 20 15 25 -7 25 2 1 26 -16 16 -19 28 -14 57 5 28 3
35 -6 30 -15 -10 -63 32 -55 46 4 6 -4 24 -17 41 -16 22 -24 47 -25 82 -1 27
-5 57 -8 66 -4 10 -3 20 3 24 6 3 11 12 11 18 0 7 -5 4 -11 -5 -16 -29 -27
-21 -25 20 1 32 -2 37 -19 34 -16 -2 -17 -1 -5 7 12 8 12 13 0 35 -7 14 -22
28 -33 32 -13 4 -17 12 -14 26 7 24 -2 50 -14 42 -5 -3 -9 -1 -9 3 0 5 9 14
20 21 15 9 20 9 20 0 0 -6 3 -8 7 -4 5 4 0 14 -10 21 -12 8 -14 15 -8 20 14 8
14 25 1 25 -6 0 -15 -10 -20 -22 -9 -20 -10 -18 -8 12 1 19 -1 41 -6 48 -4 6
-4 17 -1 22 3 6 0 10 -8 10 -8 0 -18 7 -21 16 -4 10 -2 13 7 9 6 -4 1 4 -13
17 -14 13 -26 37 -27 52 -1 16 -7 33 -14 37 -8 4 -4 9 10 14 28 9 27 26 -4 55
-14 13 -25 29 -25 37 0 7 -7 13 -15 13 -21 0 -31 30 -14 42 10 7 11 11 3 14
-7 3 -10 14 -7 25 4 15 2 18 -11 13 -9 -3 -16 -1 -16 5 0 6 5 11 10 11 6 0 10
5 10 11 0 6 -9 8 -20 4 -14 -5 -20 -2 -20 9 0 9 -6 16 -12 16 -9 1 -7 5 3 13
11 8 14 19 9 32 -4 11 -3 29 2 40 8 19 8 19 4 -1 -2 -12 0 -28 5 -35 6 -10 9
-4 9 17 0 34 -22 85 -45 104 -9 7 -12 22 -9 39 4 19 0 32 -12 42 -15 11 -16
12 -9 0 5 -10 4 -12 -3 -7 -19 11 -14 32 11 45 l22 11 -22 -6 c-25 -6 -30 5
-10 25 10 10 6 10 -17 1 -27 -10 -28 -9 -15 7 9 11 10 14 2 9 -8 -4 -13 -2
-13 4 0 7 -9 23 -20 37 -11 14 -20 31 -20 37 0 6 5 4 10 -4 13 -21 13 -3 -1
22 -8 16 -8 23 2 30 10 6 5 8 -16 6 -22 -2 -29 1 -26 12 10 39 6 55 -14 53
-11 -1 -14 0 -7 3 6 3 12 16 12 29 0 13 6 26 13 29 9 5 9 7 0 12 -7 3 -9 12
-6 20 3 7 -2 17 -11 20 -14 5 -14 8 1 30 15 24 15 24 -11 15 -17 -7 -26 -7
-26 -1 0 6 -7 10 -15 10 -9 0 -15 6 -14 13 3 26 -1 47 -11 47 -13 0 -13 -27 0
-33 6 -3 5 -4 -2 -3 -14 3 -15 65 -1 75 13 10 9 51 -6 60 -8 5 -21 7 -30 4
-14 -4 -14 -3 -1 5 8 6 18 8 22 6 4 -3 5 2 2 10 -4 10 -18 16 -35 16 -16 0
-29 4 -29 9 0 15 18 23 23 11 3 -6 4 -5 3 2 -1 7 -12 17 -24 23 -12 5 -22 16
-22 23 0 8 5 10 13 6 6 -4 4 1 -5 12 -23 27 -33 71 -19 88 9 10 9 16 1 21 -8
5 -8 10 0 20 8 9 5 14 -12 19 -19 5 -21 8 -8 16 11 8 8 9 -12 4 -18 -4 -28 -2
-28 6 0 6 4 8 10 5 6 -4 6 5 -1 22 -6 15 -11 40 -11 56 1 17 -5 27 -14 27 -8
0 -14 10 -14 25 0 13 -8 29 -17 34 -17 10 -17 10 1 11 20 0 20 0 0 15 -15 12
-16 16 -6 23 11 8 11 10 -2 15 -19 7 -22 28 -3 23 6 -1 9 -1 5 1 -5 3 -8 11
-8 18 0 8 -9 19 -21 25 -12 7 -18 18 -15 26 3 7 0 13 -6 11 -6 -1 -13 4 -15
11 -3 6 1 12 8 12 7 0 3 10 -10 24 -20 21 -21 25 -7 39 14 13 14 16 0 21 -10
4 -13 2 -8 -6 4 -7 3 -8 -4 -4 -15 9 -15 36 0 36 6 0 9 3 6 6 -4 3 -17 0 -29
-7 -23 -12 -23 -12 -7 14 15 22 15 26 3 31 -19 7 -19 25 1 47 14 16 14 18 -5
24 -12 3 -21 13 -21 21 0 21 -57 96 -65 84 -3 -5 -11 -10 -18 -10 -6 0 -4 6 5
13 9 6 18 24 22 40 6 24 4 27 -19 27 l-25 0 20 20 c22 22 18 45 -6 36 -16 -6
-16 -5 -18 43 -1 19 -10 39 -20 47 -10 7 -16 20 -13 28 3 8 -1 20 -9 27 -8 6
-12 20 -9 30 3 9 1 20 -4 24 -7 4 -8 0 -4 -10 4 -13 1 -16 -13 -13 -13 2 -19
12 -19 31 -1 19 3 26 13 22 7 -2 10 0 7 5 -3 6 -17 7 -31 4 -26 -7 -31 5 -12
24 9 9 9 12 -3 12 -12 0 -15 15 -14 73 0 66 -2 72 -20 69 -17 -2 -20 4 -23 40
-2 32 -10 50 -32 71 -17 16 -30 33 -30 37 0 4 -9 10 -20 13 -24 6 -27 27 -3
27 14 0 14 2 -2 20 -17 19 -17 21 -1 39 13 14 14 21 5 27 -8 4 -10 3 -5 -4 5
-8 0 -12 -13 -12 -13 0 -19 5 -15 14 3 7 -2 16 -10 19 -16 7 -22 32 -8 40 4 2
2 2 -5 1 -13 -3 -26 23 -17 37 3 5 -2 9 -10 9 -9 0 -16 8 -16 19 0 10 -9 21
-20 24 -25 6 -27 44 -2 50 15 4 15 5 -2 6 -11 0 -27 -5 -35 -13 -14 -12 -19
-11 -35 5 -19 19 -19 19 2 19 13 0 22 6 22 15 0 8 -9 15 -19 15 -10 0 -22 7
-25 16 -3 8 -2 13 3 10 4 -3 8 8 7 24 -1 24 -5 29 -18 24 -10 -3 -18 0 -18 6
0 6 -12 27 -26 46 -15 19 -24 37 -20 41 3 3 6 1 6 -5 0 -7 8 -12 18 -12 15 1
15 2 -3 16 -11 8 -28 13 -37 10 -10 -2 -21 0 -24 5 -3 5 -14 9 -25 9 -12 0
-19 5 -16 13 2 6 11 10 18 9 38 -10 49 -10 44 -1 -4 5 1 9 9 9 9 0 16 5 16 10
0 15 -16 12 -30 -4 -14 -18 -40 -10 -41 13 0 12 -2 12 -8 -4 -7 -18 -8 -18
-18 -1 -6 10 -23 20 -39 22 -15 1 -33 9 -39 17 -5 7 -15 12 -22 10 -7 -3 -13
10 -15 34 -2 31 -7 39 -25 41 -18 3 -23 -2 -23 -18z m37 -19 c-1 -16 -5 -27
-8 -25 -10 6 -8 54 2 54 4 0 7 -13 6 -29z m250 -247 c-3 -3 -12 -4 -19 -1 -8
3 -5 6 6 6 11 1 17 -2 13 -5z m-240 -106 c-3 -8 -6 -5 -6 6 -1 11 2 17 5 13 3
-3 4 -12 1 -19z m430 -220 c-3 -8 -6 -5 -6 6 -1 11 2 17 5 13 3 -3 4 -12 1
-19z m43 -58 c0 -5 -6 -10 -14 -10 -8 0 -18 5 -21 10 -3 6 3 10 14 10 12 0 21
-4 21 -10z m77 -165 c0 -8 -4 -12 -9 -9 -5 3 -6 10 -3 15 9 13 12 11 12 -6z
m60 -77 c-3 -7 -5 -2 -5 12 0 14 2 19 5 13 2 -7 2 -19 0 -25z m208 -558 c-3
-5 -13 -10 -21 -10 -8 0 -14 5 -14 10 0 6 9 10 21 10 11 0 17 -4 14 -10z m385
-989 c0 -5 -6 -14 -14 -20 -12 -10 -13 -8 -9 8 5 21 23 30 23 12z m560 -1621
c0 -5 -4 -10 -10 -10 -5 0 -10 5 -10 10 0 6 5 10 10 10 6 0 10 -4 10 -10z
m228 -614 c0 -22 -2 -23 -15 -11 -8 8 -11 19 -8 25 11 18 23 11 23 -14z m133
-453 c13 -16 12 -17 -3 -4 -17 13 -22 21 -14 21 2 0 10 -8 17 -17z m154 -343
c3 -6 -1 -7 -9 -4 -18 7 -21 14 -7 14 6 0 13 -4 16 -10z m161 -653 c-2 -7 -5
-4 -5 6 -1 9 -9 17 -18 17 -15 0 -16 2 -3 10 17 10 35 -12 26 -33z m129 -307
c7 -23 -1 -40 -18 -40 -7 0 -6 4 3 10 10 6 11 10 3 10 -7 0 -13 9 -13 20 0 26
17 26 25 0z m-22 -75 c-3 -9 -8 -14 -10 -11 -3 3 -2 9 2 15 9 16 15 13 8 -4z
m67 -69 c0 -3 -4 -8 -10 -11 -5 -3 -10 -1 -10 4 0 6 5 11 10 11 6 0 10 -2 10
-4z m7 -58 c-3 -8 -6 -5 -6 6 -1 11 2 17 5 13 3 -3 4 -12 1 -19z m113 -323 c0
-7 6 -16 13 -18 9 -4 9 -6 -1 -6 -7 -1 -17 9 -22 22 -7 17 -9 18 -9 5 -1 -10
-5 -18 -11 -18 -13 0 -13 13 2 28 13 13 28 7 28 -13z m97 -261 c-3 -3 -12 -4
-19 -1 -8 3 -5 6 6 6 11 1 17 -2 13 -5z m-33 -86 c-4 -6 1 -17 11 -25 11 -7
14 -13 8 -13 -16 0 -36 28 -28 40 3 5 8 10 11 10 3 0 2 -5 -2 -12z m26 -158
c0 -11 -4 -20 -10 -20 -5 0 -10 9 -10 20 0 11 5 20 10 20 6 0 10 -9 10 -20z
m-65 -80 c3 -5 2 -10 -4 -10 -5 0 -13 5 -16 10 -3 6 -2 10 4 10 5 0 13 -4 16
-10z m145 -80 c8 -5 11 -10 5 -10 -5 0 -17 5 -25 10 -8 5 -10 10 -5 10 6 0 17
-5 25 -10z"/>
<path d="M33331 21894 c0 -11 3 -14 6 -6 3 7 2 16 -1 19 -3 4 -6 -2 -5 -13z"/>
<path d="M33292 21884 c-7 -8 -19 -11 -25 -8 -7 4 -3 -3 8 -15 l19 -23 8 28
c9 34 7 36 -10 18z"/>
<path d="M33640 21790 c0 -5 5 -10 10 -10 6 0 10 5 10 10 0 6 -4 10 -10 10 -5
0 -10 -4 -10 -10z"/>
<path d="M33760 21630 c0 -5 5 -10 10 -10 6 0 10 5 10 10 0 6 -4 10 -10 10 -5
0 -10 -4 -10 -10z"/>
<path d="M34000 21130 c0 -5 5 -10 10 -10 6 0 10 5 10 10 0 6 -4 10 -10 10 -5
0 -10 -4 -10 -10z"/>
<path d="M34287 20449 c7 -7 15 -10 18 -7 3 3 -2 9 -12 12 -14 6 -15 5 -6 -5z"/>
<path d="M34290 20364 c0 -8 5 -12 10 -9 6 3 10 10 10 16 0 5 -4 9 -10 9 -5 0
-10 -7 -10 -16z"/>
<path d="M34373 20213 c9 -9 19 -14 23 -11 10 10 -6 28 -24 28 -15 0 -15 -1 1
-17z"/>
<path d="M34460 19957 c0 -19 16 -31 24 -18 3 5 -1 14 -9 21 -12 10 -15 10
-15 -3z"/>
<path d="M34736 19201 c22 -21 27 -21 18 3 -3 9 -13 16 -22 16 -13 0 -12 -3 4
-19z"/>
<path d="M34726 19154 c-5 -14 -4 -15 9 -4 17 14 19 20 6 20 -5 0 -12 -7 -15
-16z"/>
<path d="M35278 17673 c7 -3 16 -2 19 1 4 3 -2 6 -13 5 -11 0 -14 -3 -6 -6z"/>
<path d="M40910 17400 c0 -5 5 -10 10 -10 6 0 10 5 10 10 0 6 -4 10 -10 10 -5
0 -10 -4 -10 -10z"/>
<path d="M40863 17245 c-3 -9 -3 -18 -1 -21 3 -3 8 4 11 16 6 23 -1 27 -10 5z"/>
<path d="M22958 17237 c-12 -4 -45 -13 -73 -19 -27 -6 -54 -14 -60 -18 -5 -5
-28 -11 -49 -16 -22 -4 -51 -13 -65 -20 -14 -8 -36 -14 -48 -14 -12 0 -24 -4
-27 -9 -6 -9 3 -8 124 15 160 31 215 34 620 38 573 6 823 -12 1195 -84 28 -6
113 -21 190 -35 77 -14 163 -29 190 -35 28 -5 113 -21 190 -35 77 -14 169 -32
205 -41 36 -8 112 -23 170 -34 58 -11 213 -42 345 -69 132 -28 287 -60 345
-72 58 -11 195 -41 305 -65 110 -24 228 -48 262 -54 34 -6 83 -17 110 -24 26
-8 68 -17 93 -21 25 -4 83 -15 130 -26 230 -51 426 -93 600 -129 52 -11 111
-24 130 -30 19 -5 46 -10 60 -10 37 1 6 16 -50 25 -25 4 -103 20 -175 36 -242
55 -300 68 -395 87 -52 11 -117 25 -145 32 -72 16 -166 36 -270 58 -49 11
-144 31 -210 46 -66 15 -163 36 -215 47 -52 11 -133 29 -180 39 -147 33 -319
71 -490 106 -157 33 -246 52 -440 94 -47 10 -197 44 -335 75 -137 31 -281 62
-320 70 -38 8 -149 32 -245 53 l-175 40 -637 4 c-350 2 -647 0 -660 -5z"/>
<path d="M22505 17100 c-3 -6 1 -7 9 -4 18 7 21 14 7 14 -6 0 -13 -4 -16 -10z"/>
<path d="M22380 17070 l-25 -8 27 -1 c15 -1 30 4 33 9 7 11 0 11 -35 0z"/>
<path d="M22180 17013 c-148 -45 -207 -66 -225 -80 -19 -14 -17 -15 25 -9 24
4 64 16 88 26 25 11 50 20 57 20 21 0 119 46 109 51 -5 3 -29 -1 -54 -8z"/>
<path d="M27932 16425 c2 -3 94 -25 204 -49 219 -49 278 -68 371 -115 34 -17
65 -31 68 -31 11 0 -11 27 -48 60 -38 33 -98 50 -282 81 -33 5 -74 14 -91 20
-27 8 -194 38 -218 39 -5 0 -7 -2 -4 -5z"/>
<path d="M28601 16214 c6 -8 15 -14 20 -14 5 0 31 -16 59 -36 37 -27 50 -32
50 -20 0 31 -53 74 -98 79 -36 4 -41 3 -31 -9z"/>
<path d="M34705 16194 c-22 -8 -52 -19 -66 -23 -31 -10 -331 -118 -379 -136
-37 -14 -382 -137 -580 -207 -63 -22 -131 -46 -150 -53 -214 -80 -230 -83
-380 -90 -682 -28 -884 -35 -1074 -35 -172 0 -217 -3 -208 -12 8 -8 97 -16
270 -24 461 -22 607 -18 1022 31 106 13 195 32 330 70 331 94 669 209 935 320
88 36 180 74 205 84 100 41 140 63 140 76 0 19 -14 18 -65 -1z"/>
<path d="M40266 15885 c4 -8 8 -15 10 -15 2 0 4 7 4 15 0 8 -4 15 -10 15 -5 0
-7 -7 -4 -15z"/>
<path d="M18830 15450 c-44 -6 -147 -54 -505 -235 -408 -206 -482 -245 -463
-245 7 0 129 58 363 170 148 71 300 140 380 170 52 20 79 24 200 24 106 1 158
-4 213 -18 40 -10 75 -16 78 -13 9 9 -25 49 -86 98 -62 51 -96 60 -180 49z"/>
<path d="M17820 14960 c-8 -5 -10 -10 -5 -10 6 0 17 5 25 10 8 5 11 10 5 10
-5 0 -17 -5 -25 -10z"/>
<path d="M17595 14850 c-16 -7 -17 -9 -3 -9 9 -1 20 4 23 9 7 11 7 11 -20 0z"/>
<path d="M36287 14493 c-4 -3 -7 -15 -7 -25 0 -26 24 -17 28 10 3 21 -8 29
-21 15z"/>
<path d="M36335 14431 c-3 -5 -1 -12 5 -16 5 -3 10 1 10 9 0 18 -6 21 -15 7z"/>
<path d="M36258 14223 c7 -3 16 -2 19 1 4 3 -2 6 -13 5 -11 0 -14 -3 -6 -6z"/>
<path d="M36350 14206 c0 -8 -6 -17 -12 -19 -8 -3 -6 -6 5 -6 9 -1 17 1 17 3
0 2 3 11 6 20 3 9 1 16 -5 16 -6 0 -11 -6 -11 -14z"/>
<path d="M39291 14146 c-7 -8 -8 -17 -3 -20 6 -3 12 3 15 14 6 24 4 25 -12 6z"/>
<path d="M39152 13920 c0 -14 2 -19 5 -12 2 6 2 18 0 25 -3 6 -5 1 -5 -13z"/>
<path d="M39098 13893 c6 -2 18 -2 25 0 6 3 1 5 -13 5 -14 0 -19 -2 -12 -5z"/>
<path d="M39090 13860 c0 -5 5 -10 10 -10 6 0 10 5 10 10 0 6 -4 10 -10 10 -5
0 -10 -4 -10 -10z"/>
<path d="M39054 13828 c-4 -7 -3 -8 5 -4 6 4 20 2 29 -6 15 -12 16 -11 3 5
-16 20 -27 22 -37 5z"/>
<path d="M14900 13763 c0 -5 16 -21 36 -36 25 -21 58 -33 115 -45 l79 -15 130
42 c71 23 130 44 130 48 0 3 -8 2 -17 -2 -10 -4 -66 -17 -125 -29 -103 -22
-109 -23 -201 -7 -58 10 -103 23 -114 34 -21 18 -33 22 -33 10z"/>
<path d="M38954 13716 c-10 -8 -17 -16 -14 -19 3 -2 14 4 24 14 23 22 18 25
-10 5z"/>
<path d="M38970 13679 c0 -6 -8 -8 -17 -5 -13 4 -11 0 5 -13 27 -23 51 -18 49
10 -1 20 -37 28 -37 8z"/>
<path d="M38660 13350 c0 -5 5 -10 10 -10 6 0 10 5 10 10 0 6 -4 10 -10 10 -5
0 -10 -4 -10 -10z"/>
<path d="M36535 12870 c3 -5 8 -10 11 -10 2 0 4 5 4 10 0 6 -5 10 -11 10 -5 0
-7 -4 -4 -10z"/>
<path d="M37956 12783 c-6 -14 -5 -15 5 -6 7 7 10 15 7 18 -3 3 -9 -2 -12 -12z"/>
<path d="M37908 12738 c-14 -14 -15 -18 -2 -28 11 -10 15 -9 20 3 3 9 4 22 2
29 -2 10 -7 10 -20 -4z"/>
<path d="M36767 12623 c-10 -9 -9 -23 2 -23 5 0 11 7 15 15 5 15 -5 20 -17 8z"/>
<path d="M37418 12513 c7 -3 16 -2 19 1 4 3 -2 6 -13 5 -11 0 -14 -3 -6 -6z"/>
<path d="M38796 12464 c-9 -24 -7 -28 9 -14 17 14 20 30 6 30 -5 0 -12 -7 -15
-16z"/>
<path d="M23465 8343 c-11 -3 -24 -9 -30 -13 -5 -4 -71 -39 -145 -78 -74 -38
-175 -91 -225 -117 -49 -26 -175 -90 -280 -142 -104 -51 -199 -99 -209 -105
-11 -6 -64 -33 -119 -60 -54 -28 -96 -52 -94 -54 2 -3 48 17 101 43 53 26 173
86 267 133 95 47 181 90 193 97 12 6 59 30 106 54 47 23 157 81 245 128 88 46
172 91 188 98 15 8 27 16 27 19 0 2 -1 3 -2 3 -2 -1 -12 -4 -23 -6z"/>
<path d="M22315 7755 c-16 -8 -23 -14 -14 -15 8 0 24 7 35 15 23 18 18 18 -21
0z"/>
<path d="M22176 7686 c-89 -45 -121 -65 -76 -48 30 12 160 79 168 87 12 12 -9
3 -92 -39z"/>
<path d="M22023 7610 c-13 -5 -23 -11 -23 -14 0 -7 40 6 46 15 6 10 6 10 -23
-1z"/>
<path d="M21865 7530 c-3 -6 1 -7 9 -4 18 7 21 14 7 14 -6 0 -13 -4 -16 -10z"/>
<path d="M21682 7440 c-38 -21 -49 -30 -36 -30 5 0 27 11 49 25 46 28 36 31
-13 5z"/>
<path d="M21585 7390 c-13 -6 -15 -9 -5 -9 8 0 22 4 30 9 18 12 2 12 -25 0z"/>
<path d="M21310 7250 c-9 -6 -10 -10 -3 -10 6 0 15 5 18 10 8 12 4 12 -15 0z"/>
<path d="M21210 7199 c0 -5 5 -7 10 -4 6 3 10 8 10 11 0 2 -4 4 -10 4 -5 0
-10 -5 -10 -11z"/>
<path d="M20965 7079 c-39 -24 -21 -24 25 1 19 11 28 19 20 19 -8 0 -28 -9
-45 -20z"/>
<path d="M20778 6983 c7 -3 16 -2 19 1 4 3 -2 6 -13 5 -11 0 -14 -3 -6 -6z"/>
<path d="M20485 6840 c-13 -6 -15 -9 -5 -9 8 0 22 4 30 9 18 12 2 12 -25 0z"/>
<path d="M20430 6810 c-9 -6 -10 -10 -3 -10 6 0 15 5 18 10 8 12 4 12 -15 0z"/>
<path d="M20293 6746 c-44 -22 -74 -46 -57 -46 5 0 36 16 69 35 65 38 56 46
-12 11z"/>
<path d="M19510 6661 c0 -18 80 -78 120 -90 23 -7 78 -14 123 -17 76 -5 91 -2
202 35 127 42 129 54 4 22 -116 -30 -163 -34 -252 -21 -64 9 -93 19 -133 46
-53 36 -64 40 -64 25z"/>
<path d="M20130 6660 c-8 -5 -10 -10 -5 -10 6 0 17 5 25 10 8 5 11 10 5 10 -5
0 -17 -5 -25 -10z"/>
<path d="M17861 6274 c0 -11 3 -14 6 -6 3 7 2 16 -1 19 -3 4 -6 -2 -5 -13z"/>
<path d="M18076 5827 c3 -10 9 -15 12 -12 3 3 0 11 -7 18 -10 9 -11 8 -5 -6z"/>
<path d="M18106 5767 c3 -10 9 -15 12 -12 3 3 0 11 -7 18 -10 9 -11 8 -5 -6z"/>
<path d="M18182 5609 c6 -16 12 -28 14 -26 5 5 -13 57 -20 57 -3 0 0 -14 6
-31z"/>
<path d="M18400 5165 c0 -5 5 -17 10 -25 5 -8 10 -10 10 -5 0 6 -5 17 -10 25
-5 8 -10 11 -10 5z"/>
<path d="M18430 5105 c0 -5 5 -17 10 -25 5 -8 10 -10 10 -5 0 6 -5 17 -10 25
-5 8 -10 11 -10 5z"/>
<path d="M18476 5010 c7 -28 12 -35 18 -29 2 2 -2 15 -10 29 l-15 25 7 -25z"/>
<path d="M18520 4910 c0 -5 5 -10 11 -10 5 0 7 5 4 10 -3 6 -8 10 -11 10 -2 0
-4 -4 -4 -10z"/>
<path d="M18576 4810 c3 -14 10 -32 15 -40 7 -13 8 -13 8 0 0 8 -6 26 -15 40
l-15 25 7 -25z"/>
<path d="M18610 4742 c0 -14 28 -72 35 -72 6 0 -16 63 -26 75 -6 5 -9 4 -9 -3z"/>
<path d="M18656 4638 c3 -13 10 -24 15 -26 4 -2 13 -19 19 -38 6 -19 16 -34
21 -34 5 0 -4 27 -21 60 -31 61 -47 79 -34 38z"/>
<path d="M18720 4516 c0 -4 11 -28 25 -54 14 -26 25 -53 25 -59 0 -7 4 -13 8
-13 4 0 14 -16 21 -35 7 -19 16 -35 20 -35 5 0 -9 35 -30 77 -22 43 -39 83
-39 89 0 6 -7 17 -15 24 -8 7 -15 9 -15 6z"/>
<path d="M36020 4321 c0 -37 281 -157 436 -186 44 -7 162 -26 264 -40 102 -14
219 -32 260 -40 41 -8 116 -19 165 -25 50 -6 131 -17 180 -25 161 -27 438 -67
515 -76 41 -4 111 -13 155 -19 82 -11 221 -4 231 11 3 5 -22 9 -54 9 -33 0
-113 9 -178 19 -66 11 -193 31 -284 45 -91 15 -192 31 -225 36 -56 9 -285 45
-660 105 -88 13 -200 32 -250 40 -49 8 -151 24 -225 35 -133 21 -162 30 -250
80 -56 33 -80 42 -80 31z"/>
<path d="M18830 4296 c0 -13 74 -156 78 -152 2 3 -7 29 -20 58 -14 29 -28 63
-32 76 -6 18 -26 32 -26 18z"/>
<path d="M18910 4129 c0 -10 545 -1085 638 -1259 22 -41 53 -100 68 -130 16
-30 43 -80 60 -110 17 -30 59 -109 94 -175 101 -193 424 -758 480 -840 15 -22
63 -96 107 -165 102 -161 234 -332 342 -443 302 -310 808 -557 1351 -658 163
-31 460 -58 628 -59 335 0 778 62 1077 151 119 36 474 158 530 183 17 8 62 26
100 41 84 33 208 86 290 124 33 16 71 32 85 36 14 4 30 11 35 15 6 4 44 22 85
40 75 33 193 88 345 160 542 258 489 232 1835 898 618 305 1160 567 1282 618
32 13 94 41 136 60 107 49 104 47 227 99 61 26 124 53 142 61 17 8 34 14 38
14 4 0 21 6 38 14 49 21 253 92 337 116 41 11 89 25 105 30 280 83 627 108
1060 75 367 -28 815 -74 1032 -106 40 -6 128 -17 195 -24 68 -8 195 -24 283
-35 88 -11 210 -27 270 -35 61 -8 180 -24 265 -35 85 -12 223 -30 305 -41 83
-11 197 -27 255 -34 202 -28 406 -55 525 -70 66 -9 127 -17 135 -20 8 -2 71
-11 140 -20 69 -8 193 -24 275 -35 148 -21 252 -34 490 -64 66 -9 149 -20 185
-26 36 -5 124 -17 195 -26 72 -8 177 -22 235 -30 58 -7 179 -23 270 -34 91
-11 239 -29 330 -40 171 -21 314 -38 555 -64 77 -9 174 -20 215 -26 187 -26
1026 -103 1305 -120 465 -27 612 -33 920 -33 546 0 959 38 1385 130 63 13 144
31 180 38 36 8 101 24 145 35 44 12 112 29 150 40 110 29 288 80 310 89 46 20
244 83 288 93 26 6 47 14 47 18 0 4 15 10 33 14 30 6 102 32 174 62 17 8 35
14 40 14 4 1 26 9 48 20 22 11 46 19 53 20 7 0 20 4 30 10 19 10 133 54 170
65 12 3 22 11 22 17 0 6 -8 8 -17 5 -73 -24 -165 -58 -203 -75 -25 -11 -61
-24 -80 -28 -19 -3 -44 -13 -55 -20 -11 -8 -26 -14 -35 -14 -8 0 -54 -18 -102
-39 -48 -21 -89 -37 -91 -35 -4 4 -81 -23 -132 -46 -11 -5 -38 -12 -60 -16
-22 -4 -44 -9 -50 -10 -23 -7 -114 -34 -175 -53 -156 -49 -541 -142 -660 -160
-41 -7 -97 -16 -125 -21 -96 -18 -274 -38 -640 -72 -166 -15 -884 -15 -1100 1
-215 16 -441 33 -490 37 -22 2 -89 5 -150 8 -60 3 -164 12 -230 20 -66 8 -205
22 -310 31 -104 9 -212 20 -240 25 -27 5 -106 14 -175 20 -69 6 -154 16 -190
22 -81 12 -76 12 -305 37 -104 12 -224 26 -265 32 -41 6 -97 13 -125 15 -27 2
-81 9 -120 14 -38 6 -140 19 -225 30 -85 10 -191 24 -235 30 -44 6 -127 18
-185 26 -58 7 -136 19 -175 24 -38 6 -97 13 -130 16 -33 2 -85 9 -115 14 -81
14 -201 29 -320 40 -57 6 -118 14 -135 20 -16 5 -73 14 -125 20 -134 16 -226
28 -295 40 -33 5 -87 12 -120 15 -33 4 -79 10 -102 16 -23 5 -73 12 -110 15
-37 3 -104 12 -148 19 -44 7 -118 19 -165 25 -47 6 -110 15 -141 21 -31 5 -74
10 -95 10 -22 1 -104 11 -184 24 -80 13 -179 26 -220 30 -41 3 -109 13 -150
20 -41 8 -99 17 -128 20 -28 3 -67 7 -85 10 -79 11 -278 35 -337 40 -36 3
-103 12 -150 20 -47 8 -148 21 -225 30 -77 8 -201 22 -275 30 -74 9 -187 20
-250 25 -63 6 -133 12 -155 15 -22 2 -74 7 -115 10 -41 2 -124 8 -185 12 -60
4 -225 7 -365 6 -272 -1 -349 -10 -523 -57 -53 -14 -108 -26 -122 -26 -13 0
-47 -9 -75 -20 -28 -11 -61 -20 -75 -20 -13 0 -45 -9 -72 -21 -26 -12 -77 -30
-113 -40 -36 -10 -103 -35 -150 -55 -122 -52 -122 -52 -157 -59 -18 -4 -33
-11 -33 -16 0 -5 -9 -9 -20 -9 -11 0 -28 -4 -38 -10 -9 -5 -64 -30 -122 -55
-58 -25 -109 -50 -114 -56 -6 -5 -17 -9 -27 -9 -9 0 -43 -13 -75 -30 -32 -16
-67 -30 -76 -30 -9 0 -20 -5 -23 -10 -8 -13 -89 -50 -109 -50 -8 0 -16 -3 -18
-7 -1 -5 -19 -15 -38 -25 -84 -39 -126 -60 -140 -67 -8 -5 -48 -23 -87 -42
-40 -18 -73 -36 -73 -40 0 -4 -32 -17 -71 -29 -39 -12 -79 -30 -89 -40 -9 -9
-33 -20 -52 -24 -20 -3 -43 -15 -53 -26 -10 -11 -36 -23 -57 -26 -21 -4 -49
-17 -63 -30 -15 -13 -29 -24 -32 -24 -3 0 -36 -14 -72 -32 -36 -17 -81 -38
-98 -47 -18 -9 -33 -19 -33 -22 0 -4 -22 -12 -50 -19 -27 -7 -60 -20 -72 -29
-39 -30 -120 -71 -139 -71 -9 0 -24 -6 -31 -13 -27 -26 -68 -47 -92 -47 -14 0
-28 -5 -31 -10 -3 -6 -25 -19 -49 -30 -23 -10 -48 -25 -54 -33 -7 -7 -31 -20
-54 -27 -24 -8 -50 -20 -59 -27 -8 -7 -21 -13 -27 -13 -7 0 -12 -4 -12 -10 0
-5 -10 -10 -21 -10 -12 0 -78 -27 -148 -61 -69 -34 -163 -79 -209 -101 -46
-23 -98 -51 -117 -64 -19 -13 -58 -31 -87 -41 -29 -10 -61 -28 -71 -40 -10
-13 -25 -23 -33 -23 -8 0 -34 -11 -57 -23 -23 -13 -55 -27 -72 -31 -16 -4 -59
-21 -95 -39 -159 -76 -206 -101 -220 -112 -8 -7 -34 -18 -56 -24 -23 -6 -47
-18 -54 -26 -7 -8 -19 -15 -27 -15 -8 0 -47 -16 -86 -35 -39 -19 -78 -35 -88
-35 -9 0 -22 -7 -29 -15 -7 -8 -17 -15 -22 -15 -6 0 -38 -13 -72 -29 -74 -36
-298 -133 -346 -151 -19 -7 -42 -19 -50 -25 -8 -7 -37 -19 -65 -28 -87 -26
-156 -52 -197 -74 -48 -24 -139 -51 -158 -46 -10 3 -34 -2 -52 -12 -34 -17
-164 -63 -195 -70 -10 -2 -40 -9 -68 -15 -27 -7 -60 -14 -72 -15 -12 -2 -26
-6 -31 -9 -15 -9 -146 -28 -184 -27 -20 1 -39 -2 -41 -6 -9 -14 -296 -16 -312
-3 -8 7 -13 15 -11 19 2 3 -24 6 -57 7 -34 0 -71 4 -82 8 -16 6 -17 6 -5 -3 8
-6 10 -11 4 -11 -6 0 -22 8 -35 18 -31 24 -59 34 -59 21 0 -6 -7 -3 -16 5 -19
19 -28 21 -18 4 4 -7 -5 -2 -20 12 -14 13 -24 30 -22 37 3 8 -2 13 -14 13 -12
0 -20 -7 -20 -16 0 -13 -3 -14 -14 -5 -11 9 -15 9 -20 -1 -3 -7 -3 -3 -1 9 8
29 -7 36 -40 19 -24 -13 -31 -12 -61 6 -39 23 -45 42 -11 34 12 -3 16 -3 10 0
-7 3 -13 12 -13 19 0 7 -6 15 -13 18 -9 3 -13 -3 -13 -16 1 -13 -6 -23 -16
-25 -13 -2 -16 1 -12 12 3 9 1 16 -5 16 -12 0 -3 31 13 43 7 6 4 7 -6 3 -10
-3 -18 -1 -18 4 0 22 -19 8 -29 -20 -10 -30 -25 -38 -36 -20 -3 5 0 7 8 4 9
-3 17 3 20 16 5 19 2 21 -17 18 -35 -7 -65 48 -43 79 16 22 -3 34 -44 28 -29
-4 -39 -3 -37 7 2 7 -6 14 -18 16 -11 1 -28 16 -37 31 -15 26 -20 28 -51 21
-18 -4 -38 -10 -44 -14 -13 -8 -43 4 -37 14 3 5 -4 6 -15 3 -15 -4 -20 0 -20
15 0 12 -10 28 -22 37 -16 12 -19 19 -10 22 6 3 12 18 12 34 0 30 -13 35 -75
31 -39 -2 -114 20 -131 39 -9 10 -25 19 -34 19 -10 0 -23 7 -30 15 -7 8 -24
13 -40 11 -18 -2 -31 2 -34 10 -3 8 -12 14 -19 14 -8 0 -26 9 -41 21 -17 13
-33 18 -46 14 -13 -4 -33 2 -54 14 -20 13 -41 19 -52 14 -9 -3 -15 -2 -12 3 4
5 -9 10 -28 10 -19 1 -48 12 -67 27 -19 14 -51 29 -73 33 -21 3 -43 10 -49 14
-5 5 -27 11 -48 15 -20 4 -40 11 -43 16 -3 5 -14 9 -25 9 -10 0 -19 3 -19 8 0
9 -104 49 -148 57 -18 3 -50 14 -70 25 -20 11 -42 20 -48 20 -6 0 -17 7 -24
15 -7 8 -20 15 -29 15 -22 0 -316 149 -396 201 -152 98 -195 126 -250 163 -58
39 -237 215 -294 291 -74 98 -175 240 -209 295 -20 34 -45 73 -54 88 -10 15
-28 45 -40 67 -12 22 -27 47 -33 57 -5 9 -30 52 -54 95 -24 43 -52 89 -62 104
-10 14 -50 86 -90 160 -39 73 -94 175 -120 224 -77 142 -102 188 -140 262 -19
37 -40 77 -47 88 -6 11 -33 65 -60 120 -116 237 -212 410 -212 384z"/>
<path d="M42938 3263 c7 -3 16 -2 19 1 4 3 -2 6 -13 5 -11 0 -14 -3 -6 -6z"/>
<path d="M42878 3233 c6 -2 18 -2 25 0 6 3 1 5 -13 5 -14 0 -19 -2 -12 -5z"/>
<path d="M42819 3203 c-13 -15 -12 -15 9 -4 23 12 28 21 13 21 -5 0 -15 -7
-22 -17z"/>
<path d="M42714 3155 c-18 -13 -18 -14 4 -8 12 3 25 9 28 14 8 14 -10 11 -32
-6z"/>
<path d="M42611 3109 c-49 -30 -31 -34 25 -5 31 16 42 26 29 26 -11 0 -35 -9
-54 -21z"/>
<path d="M42508 3059 c-21 -11 -38 -21 -38 -24 0 -6 64 17 70 25 3 4 12 10 20
13 13 5 13 5 0 5 -8 0 -32 -9 -52 -19z"/>
<path d="M42405 3010 c-7 -12 2 -12 30 0 19 8 19 9 -2 9 -12 1 -25 -3 -28 -9z"/>
<path d="M42350 2985 c-52 -20 -139 -66 -110 -59 32 8 150 63 150 69 0 6 3 7
-40 -10z"/>
<path d="M42160 2905 c-13 -16 -8 -18 28 -9 12 4 22 10 22 15 0 15 -37 10 -50
-6z"/>
<path d="M42104 2875 c-10 -8 -14 -15 -8 -15 5 0 19 7 30 15 10 8 14 15 8 15
-5 0 -19 -7 -30 -15z"/>
<path d="M42014 2846 c-40 -18 -57 -41 -23 -31 31 9 89 36 89 41 0 8 -36 3
-66 -10z"/>
<path d="M41909 2800 c-19 -13 -8 -18 21 -10 19 4 21 7 9 12 -9 3 -22 2 -30
-2z"/>
<path d="M22540 840 c-8 -5 -10 -10 -5 -10 6 0 17 5 25 10 8 5 11 10 5 10 -5
0 -17 -5 -25 -10z"/>
<path d="M22740 691 c0 -6 4 -13 10 -16 6 -3 7 1 4 9 -7 18 -14 21 -14 7z"/>
</g>
</svg>
