<?xml version="1.0" standalone="no"?>
<!DOCTYPE svg PUBLIC "-//W3C//DTD SVG 20010904//EN"
 "http://www.w3.org/TR/2001/REC-SVG-20010904/DTD/svg10.dtd">
<svg version="1.0" xmlns="http://www.w3.org/2000/svg"
 width="6000.000000pt" height="3375.000000pt" viewBox="0 0 6000.000000 3375.000000"
 preserveAspectRatio="xMidYMid meet">

<g transform="translate(0.000000,3375.000000) scale(0.100000,-0.100000)"
fill="#000000" stroke="none">
<path d="M22380 33713 c-127 -6 -467 -44 -600 -68 -440 -78 -755 -198 -1021
-390 -423 -304 -660 -840 -758 -1710 -46 -403 -45 -311 -48 -5069 -1 -2491 -4
-4531 -7 -4533 -2 -2 -39 31 -83 74 -69 70 -234 191 -318 235 -187 96 -325
163 -395 191 -133 55 -164 67 -185 77 -50 23 -153 60 -165 60 -7 0 -1 -11 14
-25 15 -14 35 -25 44 -25 14 0 15 -2 3 -9 -12 -8 -12 -13 -3 -24 7 -8 10 -21
7 -29 -4 -9 4 -19 20 -26 28 -13 81 -114 96 -182 4 -19 10 -46 13 -60 3 -14
13 -61 21 -105 9 -44 20 -90 26 -103 5 -13 14 -54 20 -90 5 -37 12 -76 14 -87
3 -11 9 -47 14 -80 4 -34 12 -72 16 -85 12 -38 9 -372 -3 -411 -6 -19 -10 -41
-10 -49 8 -70 -70 -380 -118 -467 -13 -24 -21 -43 -18 -43 3 0 -4 -12 -15 -26
-12 -15 -21 -31 -21 -37 0 -5 -15 -27 -34 -47 -19 -21 -45 -57 -58 -79 -13
-23 -31 -44 -42 -47 -10 -3 -33 -21 -50 -39 -34 -35 -156 -105 -184 -105 -9 0
-26 -7 -36 -15 -10 -8 -23 -12 -27 -9 -5 3 -15 2 -21 -2 -7 -5 -19 -9 -28 -10
-8 -1 -33 -5 -55 -8 -22 -4 -69 -7 -105 -8 -36 -1 -70 -5 -75 -9 -6 -4 -17 -4
-24 1 -8 5 -24 4 -37 -2 -15 -7 -28 -8 -36 -1 -7 5 -56 9 -108 7 -52 -1 -101
3 -107 8 -7 6 -13 8 -13 4 0 -3 -11 -1 -24 4 -17 6 -26 5 -30 -3 -4 -12 -20 2
-30 28 -2 6 -9 5 -17 -2 -16 -16 -33 -17 -24 -3 4 7 -2 9 -18 5 -14 -4 -35 -1
-47 5 -15 8 -20 8 -16 1 4 -7 1 -9 -8 -5 -8 3 -17 12 -20 20 -4 10 -11 11 -31
4 -17 -6 -25 -6 -25 1 0 5 -10 3 -22 -5 -37 -26 -43 -18 -10 14 62 59 12 38
-80 -33 -160 -125 -197 -146 -388 -223 -59 -24 -187 -44 -281 -44 -49 0 -89
-4 -89 -8 0 -4 64 -28 141 -52 l142 -44 -6 -266 c-3 -146 -11 -321 -17 -390
-32 -339 -56 -509 -85 -589 -8 -24 -15 -51 -15 -60 1 -32 55 87 105 234 30 89
56 149 63 148 7 -2 12 1 12 7 0 13 57 70 70 70 5 0 10 7 10 15 0 8 5 15 11 15
6 0 23 9 37 21 25 19 27 19 33 2 6 -15 8 -14 14 9 4 15 4 32 0 37 -3 6 0 11 8
11 16 0 31 78 21 105 -4 8 -2 15 3 15 5 0 15 44 22 98 21 162 70 393 88 422
31 48 80 98 112 114 32 17 131 22 131 7 0 -6 18 -8 41 -5 27 3 39 1 34 -6 -4
-6 5 -10 21 -10 15 0 41 -4 58 -10 17 -5 80 -23 140 -40 60 -16 114 -34 121
-40 6 -5 44 -20 84 -34 83 -28 169 -77 213 -121 35 -35 84 -133 103 -204 7
-27 12 -84 11 -125 0 -42 3 -76 7 -76 5 0 5 -5 1 -12 -4 -7 -9 -78 -10 -159
-2 -81 -5 -169 -8 -195 -29 -288 -54 -474 -71 -539 -8 -27 -19 -84 -25 -125
-6 -41 -20 -98 -30 -125 -10 -28 -20 -65 -23 -83 -3 -18 -10 -38 -15 -45 -5
-7 -13 -30 -16 -51 -4 -22 -25 -84 -47 -138 -21 -54 -39 -103 -39 -110 0 -6
-11 -34 -24 -62 -27 -58 -56 -133 -56 -144 1 -14 276 560 545 1138 35 74 82
176 105 225 23 50 52 113 65 140 12 28 35 77 50 110 16 33 59 127 95 210 l68
149 104 32 c152 47 249 99 390 211 37 29 77 53 90 53 13 0 61 -7 108 -15 47
-8 120 -17 163 -20 l77 -7 0 -3499 0 -3499 220 0 220 0 3 9193 3 9192 22 210
c12 116 31 266 42 335 137 849 444 1273 1085 1496 89 31 228 70 280 78 22 4
69 13 105 21 285 61 630 81 1438 84 560 2 592 -1 631 -43 28 -31 59 -130 70
-221 42 -340 57 -415 107 -521 66 -141 183 -213 409 -251 106 -17 296 -18
5020 -18 l4910 0 129 23 c156 27 274 79 333 146 83 95 136 259 163 511 27 245
58 340 120 361 54 19 1039 18 1391 -1 152 -8 307 -19 345 -24 441 -59 730
-153 978 -316 252 -166 428 -412 546 -765 33 -100 50 -165 99 -376 19 -77 61
-410 70 -554 33 -469 33 -582 29 -5095 -2 -2480 -2 -5060 -1 -5732 l3 -1223
220 0 c126 0 221 4 225 9 3 6 5 1639 5 3630 0 2466 3 3621 10 3621 33 0 35
-48 40 -1080 3 -564 8 -1032 12 -1040 4 -8 17 -96 28 -195 60 -508 121 -990
160 -1263 11 -78 28 -204 39 -280 10 -75 26 -189 35 -252 9 -63 21 -140 26
-170 5 -30 16 -114 25 -186 51 -447 136 -729 269 -896 50 -63 158 -141 251
-181 230 -99 289 -122 373 -143 58 -15 123 -24 169 -24 239 0 553 93 928 275
245 119 451 247 623 388 79 64 105 107 138 222 28 101 29 157 3 233 -27 77
-101 212 -161 292 -37 48 -183 226 -198 240 -20 19 -269 326 -328 405 -82 109
-161 262 -189 367 -24 84 -24 398 0 543 34 215 45 272 102 525 66 292 173 708
187 726 5 7 21 14 36 17 15 2 151 32 302 66 l274 62 106 -11 c58 -6 143 -17
190 -25 47 -8 130 -22 185 -30 147 -23 288 -48 599 -109 137 -27 523 -126 606
-155 14 -5 57 -19 97 -31 70 -22 73 -24 130 -99 286 -379 649 -735 983 -963
367 -251 689 -387 1101 -464 130 -24 167 -27 374 -27 179 -1 252 3 330 17 164
30 377 88 460 126 11 5 54 23 95 41 129 55 308 159 274 159 -11 0 -24 -4 -29
-9 -28 -26 -247 -99 -325 -107 -30 -3 -75 -12 -100 -20 -106 -32 -409 -21
-665 25 -69 12 -277 75 -318 97 -16 7 -36 14 -45 14 -42 0 -562 273 -592 311
-8 11 -84 49 -96 49 -6 0 -17 7 -24 15 -17 20 -93 71 -118 79 -11 4 -31 17
-45 29 -50 45 -68 57 -82 57 -8 0 -15 6 -15 13 0 16 -68 60 -81 52 -5 -4 -8
-1 -7 6 2 7 -5 15 -16 17 -11 2 -16 0 -12 -7 13 -21 -13 -11 -46 17 -18 15
-46 36 -61 45 -15 10 -25 23 -21 29 5 7 -1 9 -20 4 -20 -5 -26 -3 -26 10 0 11
-6 15 -18 12 -12 -4 -25 4 -37 22 -12 18 -25 26 -37 22 -13 -3 -18 1 -18 14 0
28 -16 48 -31 39 -9 -6 -8 -10 7 -16 16 -6 16 -8 2 -8 -9 -1 -24 9 -33 22 -8
12 -19 22 -24 22 -5 0 -23 12 -40 28 -17 15 -37 27 -45 27 -8 0 -23 11 -34 25
-11 14 -27 25 -36 25 -9 0 -16 4 -16 9 0 5 -9 11 -20 14 -12 3 -20 14 -20 26
0 14 -5 19 -15 15 -10 -4 -15 0 -15 11 0 15 -2 15 -16 4 -14 -11 -16 -10 -14
6 4 33 1 43 -12 42 -33 -1 -44 5 -63 33 -11 16 -26 30 -32 30 -7 0 -12 6 -10
12 1 7 -8 14 -20 16 -14 2 -20 8 -16 18 3 8 0 14 -7 14 -17 0 -96 72 -93 85 1
5 -12 19 -30 30 -17 11 -36 29 -42 40 -10 19 -72 85 -80 85 -3 0 -31 29 -142
145 -7 7 -9 15 -6 19 4 3 1 6 -6 6 -6 0 -15 10 -20 23 -14 37 -89 125 -118
139 -15 7 -26 15 -24 18 3 3 -7 18 -22 34 -15 16 -27 37 -27 47 0 11 -6 18
-12 16 -8 -1 -12 7 -11 18 1 11 -5 24 -13 28 -8 4 -14 16 -14 25 0 9 -13 30
-30 45 -16 16 -30 33 -30 38 0 6 -4 8 -9 5 -5 -3 -14 1 -21 9 -7 8 -9 15 -5
15 5 0 0 9 -9 19 -10 11 -15 25 -11 30 3 6 -1 11 -10 11 -9 0 -14 4 -10 9 3 5
-2 16 -10 24 -9 9 -12 23 -8 33 4 12 3 15 -6 10 -16 -10 -41 12 -41 37 0 24
-48 109 -58 103 -4 -3 -14 9 -21 25 -12 28 -31 39 -31 18 0 -5 -4 -7 -10 -4
-5 3 -10 0 -10 -9 0 -27 12 -45 26 -39 10 4 12 0 8 -11 -4 -10 5 -34 22 -59
16 -23 29 -45 29 -49 0 -3 3 -10 8 -14 4 -4 7 -18 7 -32 0 -21 35 -107 74
-182 7 -14 17 -38 20 -55 4 -16 16 -38 27 -48 23 -21 25 -42 4 -33 -8 3 -15 1
-15 -4 0 -6 7 -10 16 -10 10 0 14 -6 11 -14 -3 -7 -1 -18 5 -24 8 -8 8 -16 -2
-27 -17 -21 -30 -19 -30 5 0 13 -7 20 -18 20 -10 0 -24 9 -32 20 -8 11 -25 20
-38 20 -13 0 -21 4 -17 9 3 5 1 12 -5 16 -6 4 -8 11 -5 16 4 5 -3 5 -18 0 -22
-9 -24 -7 -19 16 3 18 1 24 -7 19 -6 -4 -11 0 -11 9 0 11 -5 15 -14 12 -8 -3
-22 3 -32 14 -14 15 -20 17 -32 6 -13 -10 -14 -9 -8 1 6 11 0 13 -27 11 -20
-2 -39 0 -43 4 -4 4 -12 7 -18 7 -6 0 -4 -5 4 -10 10 -6 11 -10 3 -10 -7 0
-18 9 -25 20 -7 11 -18 20 -25 20 -7 0 -20 11 -28 24 -9 13 -24 26 -33 28 -31
8 -37 11 -50 25 -7 7 -24 13 -38 13 -15 0 -24 6 -24 15 0 8 -9 15 -20 15 -12
0 -33 11 -48 25 -24 22 -48 31 -75 26 -5 -1 -22 8 -38 19 -16 12 -29 17 -29
12 0 -5 -12 -12 -27 -15 -29 -5 -54 8 -52 27 4 29 -2 37 -21 31 -11 -4 -20 -2
-20 4 0 6 -12 11 -26 11 -15 0 -33 8 -40 18 -11 14 -15 14 -23 3 -10 -15 -26
3 -16 19 5 9 -23 14 -64 13 -9 -1 -11 7 -7 30 l6 30 -18 -21 c-21 -23 -34 -20
-25 6 4 14 3 14 -5 3 -6 -8 -8 -20 -5 -28 3 -7 1 -13 -4 -13 -15 0 -33 23 -33
42 0 11 -7 18 -18 18 -10 0 -23 5 -30 12 -9 9 -15 9 -24 -1 -11 -11 -10 -12 0
-7 14 9 42 -10 42 -28 0 -6 -5 -3 -11 7 -14 24 -29 21 -29 -5 0 -37 -13 -10
-14 29 -1 35 -3 38 -33 40 -19 2 -33 -2 -33 -8 0 -6 6 -9 14 -6 8 3 16 -2 19
-14 3 -10 1 -19 -3 -19 -18 0 -40 13 -40 24 0 6 -11 12 -25 12 -40 3 -55 12
-55 33 0 11 -5 23 -10 26 -15 10 -42 -16 -37 -35 3 -10 -2 -16 -14 -16 -13 0
-20 11 -24 38 -4 21 -11 38 -17 38 -5 0 -7 -9 -3 -19 5 -16 1 -19 -15 -18 -14
1 -20 8 -20 25 0 19 -4 22 -20 17 -11 -4 -20 -2 -20 4 0 6 -4 11 -10 11 -5 0
-10 -9 -10 -20 0 -11 -4 -20 -9 -20 -13 0 -32 26 -24 33 3 4 -1 7 -11 7 -9 0
-15 -4 -12 -9 4 -5 -3 -7 -14 -4 -11 3 -20 12 -20 19 0 8 -8 14 -19 14 -10 0
-25 10 -33 22 -13 19 -25 23 -79 24 -46 1 -69 -3 -81 -14 -10 -8 -18 -10 -18
-4 0 6 6 13 13 15 6 3 0 6 -15 6 -21 1 -25 5 -21 21 4 16 2 19 -13 13 -14 -5
-16 -3 -11 11 4 11 3 15 -4 11 -6 -4 -19 1 -30 11 -15 14 -19 14 -14 3 6 -17
-21 -46 -32 -35 -4 4 -2 16 5 26 10 16 10 20 -1 20 -7 0 -19 -6 -25 -12 -10
-10 -15 -10 -22 2 -8 12 -10 12 -10 -4 0 -18 -1 -18 -18 -3 -22 20 -33 22 -28
5 1 -7 1 -10 -1 -5 -3 4 -11 7 -19 7 -9 0 -12 4 -9 10 3 6 -1 7 -10 4 -8 -4
-15 -11 -14 -18 3 -22 -1 -36 -10 -36 -5 0 -11 12 -13 28 -2 19 -9 28 -25 30
-24 4 -30 17 -13 25 6 3 5 4 -2 3 -21 -4 -21 -27 1 -33 17 -4 19 -8 10 -19
-16 -19 -43 -18 -35 1 3 8 1 15 -4 15 -6 0 -10 8 -11 18 0 10 -3 12 -6 5 -4
-10 -10 -10 -26 2 -12 8 -32 15 -45 15 -19 0 -23 4 -19 20 6 23 -11 27 -19 5
-7 -18 -28 -20 -22 -2 3 6 -3 20 -13 29 -17 16 -18 15 -25 -14 -5 -26 -8 -29
-16 -14 -9 16 -12 15 -44 -4 -26 -17 -34 -18 -34 -7 0 8 10 19 23 26 15 8 16
9 2 4 -11 -4 -35 -6 -53 -6 -18 1 -30 -3 -27 -8 3 -5 -2 -6 -11 -2 -10 3 -22
0 -28 -8 -15 -19 -41 -22 -55 -5 -11 13 -55 11 -47 -3 10 -16 -58 -2 -70 14
-10 14 -14 15 -14 4 -1 -15 -39 56 -43 81 -2 8 -10 29 -19 45 -8 17 -18 46
-22 65 -3 19 -17 57 -31 84 -14 27 -25 55 -25 63 0 7 -4 21 -9 31 -6 9 -19 62
-31 117 -12 55 -28 127 -36 160 -33 133 -63 417 -65 605 -1 74 -3 126 -6 115
-10 -45 -15 -50 -24 -20 -5 16 -6 38 -3 50 3 11 1 38 -5 60 -8 36 -10 37 -16
17 -5 -14 -13 -21 -21 -18 -9 3 -14 -1 -14 -12 0 -11 -8 -18 -20 -18 -11 0
-20 6 -20 13 0 16 -46 17 -55 2 -4 -6 -13 -8 -21 -5 -9 3 -11 0 -7 -12 6 -15
5 -15 -11 -3 -9 8 -14 21 -11 30 3 8 -5 3 -19 -12 -18 -19 -36 -27 -63 -29
-57 -2 -59 -2 -75 -15 -16 -14 -58 -6 -58 10 0 5 -8 3 -18 -6 -24 -22 -34 -21
-66 4 -26 20 -51 18 -43 -5 3 -8 -8 -10 -34 -8 -22 2 -39 8 -39 12 0 4 -7 10
-15 14 -8 3 -14 0 -12 -6 3 -14 -46 -28 -78 -22 -16 3 -25 0 -25 -8 0 -8 -3
-9 -8 -3 -13 18 -51 35 -57 25 -6 -10 -70 -8 -80 2 -4 4 -18 2 -31 -4 -18 -8
-31 -8 -49 0 -14 6 -25 8 -25 3 0 -24 -151 -30 -187 -8 -7 5 -21 4 -30 -1 -29
-15 -113 -23 -113 -11 0 6 -4 7 -10 4 -5 -3 -10 -15 -10 -26 0 -10 -4 -19 -9
-19 -9 0 -16 68 -26 250 -2 47 -7 744 -11 1550 -6 1474 -12 1867 -28 1762 -5
-29 -10 -51 -12 -50 -1 2 -10 91 -19 198 -26 312 -70 595 -126 815 -43 170
-87 305 -88 274 -1 -9 6 -36 14 -60 72 -203 140 -631 165 -1039 14 -229 23
-900 12 -900 -5 0 -12 141 -16 313 -7 355 -30 683 -62 917 -102 739 -289 1178
-626 1474 -98 87 -197 151 -343 221 -218 106 -416 167 -755 231 -160 30 -167
33 -90 28 93 -6 381 -51 418 -65 13 -5 35 -9 50 -9 37 0 11 17 -40 25 -21 4
-38 11 -38 16 0 5 -16 9 -36 9 -19 0 -33 4 -30 9 6 9 -25 16 -114 26 -30 4
-64 11 -75 15 -20 9 -241 34 -450 50 -98 8 -14333 11 -14495 3z m15097 -89
c-3 -3 -12 -4 -19 -1 -8 3 -5 6 6 6 11 1 17 -2 13 -5z m-3952 -279 c169 -44
261 -153 272 -323 17 -248 -132 -404 -385 -403 -135 1 -218 34 -289 115 -52
59 -75 127 -75 224 0 130 24 208 86 286 79 98 241 140 391 101z m-7988 -64
c117 -51 186 -171 186 -321 0 -164 -65 -264 -200 -307 -67 -22 -204 -33 -174
-14 10 6 10 10 1 16 -6 4 -17 2 -23 -4 -15 -15 -27 -14 -27 3 0 14 -22 27 -43
25 -7 0 -3 -5 8 -10 16 -7 14 -8 -10 -3 -16 3 -34 12 -38 20 -4 8 -14 14 -21
14 -20 0 -69 59 -97 116 -21 43 -24 63 -24 164 0 105 2 119 27 166 41 77 111
132 195 154 63 15 182 6 240 -19z m13603 -2263 c0 -67 -2 -119 -4 -117 -2 2
-7 60 -10 127 -5 87 -4 122 3 117 7 -4 11 -52 11 -127z m7 -390 c-2 -29 -3 -6
-3 52 0 58 1 81 3 53 2 -29 2 -77 0 -105z m0 -165 c-2 -21 -4 -4 -4 37 0 41 2
58 4 38 2 -21 2 -55 0 -75z m-63 -123 c-6 -69 -14 -60 -13 16 0 48 3 63 9 48
5 -12 6 -41 4 -64z m63 3 c-3 -10 -5 -4 -5 12 0 17 2 24 5 18 2 -7 2 -21 0
-30z m-70 -85 c-3 -8 -6 -5 -6 6 -1 11 2 17 5 13 3 -3 4 -12 1 -19z m70 -40
c-3 -7 -5 -2 -5 12 0 14 2 19 5 13 2 -7 2 -19 0 -25z m0 -100 c-3 -8 -6 -5 -6
6 -1 11 2 17 5 13 3 -3 4 -12 1 -19z m-70 -255 c-2 -21 -4 -6 -4 32 0 39 2 55
4 38 2 -18 2 -50 0 -70z m2293 -3603 c0 -5 -4 -10 -10 -10 -5 0 -10 5 -10 10
0 6 5 10 10 10 6 0 10 -4 10 -10z m524 -124 c27 -13 27 -14 4 -19 -20 -6 -37
6 -38 26 0 10 4 9 34 -7z m63 -18 c-3 -7 -5 -2 -5 12 0 14 2 19 5 13 2 -7 2
-19 0 -25z m613 -234 c0 -8 -4 -12 -10 -9 -5 3 -10 10 -10 16 0 5 5 9 10 9 6
0 10 -7 10 -16z m237 -86 c-3 -8 -6 -5 -6 6 -1 11 2 17 5 13 3 -3 4 -12 1 -19z
m-1997 -1375 c-11 -3 -15 -16 -14 -46 1 -23 -4 -45 -10 -49 -8 -6 -7 -11 3
-17 8 -5 9 -11 3 -15 -5 -3 -8 -29 -7 -58 1 -29 -1 -57 -4 -63 -3 -5 -7 -21
-8 -35 -1 -14 -5 -45 -8 -70 -4 -25 -7 -56 -7 -70 1 -14 -5 -48 -12 -77 -10
-38 -11 -54 -2 -63 8 -8 7 -10 -5 -5 -12 5 -15 -2 -13 -34 1 -22 5 -44 9 -50
3 -6 1 -11 -5 -11 -6 0 -10 -16 -8 -40 1 -22 6 -40 11 -40 5 0 -1 -9 -14 -20
-21 -17 -22 -21 -9 -30 13 -9 13 -12 -2 -21 -13 -7 -16 -17 -11 -40 5 -29 5
-29 -22 -19 -22 8 -30 8 -36 -2 -5 -8 -7 -1 -5 16 2 15 8 31 15 36 10 5 9 9
-4 13 -9 4 -13 3 -10 -3 3 -6 1 -10 -6 -10 -7 0 -10 12 -7 32 3 18 -1 47 -9
65 -12 30 -10 37 9 34 9 -1 7 62 -3 74 -4 6 -4 17 0 24 5 8 5 27 1 43 -5 15
-5 26 -1 24 4 -3 8 14 9 38 0 24 7 59 16 78 16 36 17 69 1 80 -6 5 -3 8 6 8
12 0 15 9 12 38 -1 22 1 32 6 24 6 -10 10 -10 21 3 7 8 9 15 6 15 -4 0 -1 6 6
14 7 8 16 12 20 9 4 -2 5 4 1 13 -4 11 1 22 12 30 10 8 20 30 22 51 2 21 8 40
13 41 13 5 13 49 0 57 -8 5 -8 11 -1 19 6 7 8 15 6 18 -3 3 7 3 22 0 15 -3 21
-7 13 -9z m-63 -159 c-3 -3 -12 -4 -19 -1 -8 3 -5 6 6 6 11 1 17 -2 13 -5z
m633 -1827 c25 -6 59 -21 76 -34 17 -13 35 -23 41 -23 5 0 15 -11 21 -25 6
-14 18 -25 27 -25 8 0 17 -11 21 -24 7 -29 31 -53 59 -58 10 -1 22 -13 25 -25
7 -30 62 -93 81 -93 8 0 22 -12 30 -27 7 -16 26 -40 41 -54 16 -14 28 -31 28
-37 0 -7 3 -12 8 -12 6 0 7 -33 3 -77 0 -7 -21 -33 -46 -57 -66 -66 -131 -78
-261 -49 -61 14 -154 79 -154 108 0 13 -6 25 -12 27 -10 4 -10 10 0 32 9 20
10 32 2 41 -6 7 -7 16 -2 19 13 8 5 228 -9 237 -7 4 -17 23 -24 43 -7 20 -9
33 -4 30 5 -3 9 0 9 5 0 6 -7 11 -15 11 -18 0 -20 16 -2 24 9 5 9 7 -1 12 -7
3 -16 13 -21 23 -12 21 15 24 79 8z"/>
<path d="M37740 33540 c14 -4 32 -8 40 -9 13 -1 13 0 0 9 -8 5 -26 9 -40 9
l-25 -1 25 -8z"/>
<path d="M39103 31630 c0 -25 2 -35 4 -22 2 12 2 32 0 45 -2 12 -4 2 -4 -23z"/>
<path d="M39113 31520 c0 -25 2 -35 4 -22 2 12 2 32 0 45 -2 12 -4 2 -4 -23z"/>
<path d="M39121 31384 c0 -11 3 -14 6 -6 3 7 2 16 -1 19 -3 4 -6 -2 -5 -13z"/>
<path d="M39131 31284 c0 -11 3 -14 6 -6 3 7 2 16 -1 19 -3 4 -6 -2 -5 -13z"/>
<path d="M24120 29265 c-10 -12 -10 -15 4 -15 9 0 16 5 16 10 0 6 5 10 11 10
5 0 7 -4 4 -10 -3 -5 3 -10 14 -10 14 0 19 5 15 15 -4 8 -16 15 -29 15 -12 0
-28 -7 -35 -15z"/>
<path d="M23901 29236 c-10 -24 -52 -44 -48 -22 2 11 -3 12 -40 7 -16 -2 -16
-3 2 -10 13 -5 -11 -10 -70 -15 -126 -10 -197 -32 -216 -68 -6 -10 -12 -45
-15 -77 -5 -54 -4 -60 16 -71 12 -6 24 -9 27 -6 4 3 13 -3 21 -15 12 -18 21
-20 63 -14 38 5 56 3 75 -10 14 -9 30 -15 37 -12 6 2 20 -6 30 -17 13 -15 20
-17 23 -9 4 10 10 9 22 -3 16 -17 44 -16 237 2 28 3 277 6 555 8 590 5 553 4
546 15 -3 5 1 11 9 15 9 3 15 0 15 -8 0 -10 39 -12 178 -12 97 1 186 5 197 9
16 7 17 7 5 -2 -8 -6 -10 -11 -4 -11 5 0 15 5 22 12 9 9 12 9 12 0 0 -9 31
-12 111 -12 105 0 144 8 161 34 5 6 8 1 8 -11 0 -18 6 -23 26 -23 14 0 23 4
20 9 -3 5 1 12 10 15 8 3 12 10 9 16 -4 6 -11 8 -16 5 -5 -3 -6 1 -3 10 6 14
22 16 105 14 55 -2 99 -6 99 -9 0 -4 -11 -17 -24 -29 -20 -19 -24 -20 -29 -7
-8 21 -36 20 -59 -1 -14 -13 -21 -14 -30 -5 -16 16 -28 15 -28 -3 0 -12 10
-15 44 -13 26 2 42 7 39 13 -3 6 0 4 8 -2 13 -13 128 -19 116 -6 -4 3 -2 12 4
20 9 10 8 13 -4 13 -9 0 -19 -4 -22 -10 -3 -5 -10 -10 -16 -10 -5 0 -9 5 -9
10 0 6 7 10 15 10 8 0 15 6 15 13 0 9 29 13 118 15 64 1 163 4 220 7 67 3 101
1 97 -5 -3 -6 1 -10 9 -10 8 0 18 -9 21 -20 6 -18 17 -24 38 -21 4 0 7 -3 7
-9 0 -10 110 -4 120 7 3 3 -21 3 -52 1 -44 -4 -58 -1 -58 9 0 7 -11 13 -27 13
-24 1 -26 2 -12 13 9 7 14 17 12 22 -2 6 51 9 150 8 83 -2 179 -3 212 -2 33 0
98 -1 145 -1 47 -1 103 -1 125 -1 168 1 214 4 209 12 -3 5 7 4 21 -1 32 -12
158 -13 151 -1 -6 8 20 7 64 -4 20 -5 22 -4 10 4 -11 9 5 10 65 4 147 -14 555
-6 555 11 0 6 4 4 10 -4 11 -17 21 -10 23 17 1 25 27 24 53 -1 19 -19 18 -19
-8 -13 -15 4 -29 3 -32 -2 -5 -7 62 -21 103 -21 14 0 14 2 1 10 -10 6 -11 10
-2 10 19 0 14 28 -5 33 -10 3 4 5 30 6 27 0 46 -3 43 -8 -12 -18 24 -32 95
-36 41 -2 81 -5 89 -6 24 -4 80 12 80 23 0 5 -9 6 -20 3 -14 -4 -20 -2 -20 8
0 11 18 15 83 16 45 0 100 3 122 6 22 2 66 1 98 -2 46 -5 57 -9 57 -24 0 -21
5 -25 50 -33 28 -5 31 -5 18 4 -10 6 -18 20 -18 30 0 19 8 20 125 20 104 0
125 -2 125 -15 0 -8 5 -15 11 -15 5 0 7 -6 3 -12 -5 -8 -1 -8 10 1 11 9 20 11
24 5 4 -6 49 -10 99 -9 51 0 93 -4 93 -9 0 -4 12 -5 28 -1 15 4 32 7 37 7 20
-1 262 -3 325 -2 36 0 79 -2 95 -5 24 -4 26 -3 10 4 -19 9 -18 10 5 12 14 1
30 2 37 2 17 -1 4 25 -15 30 -10 3 -5 4 9 4 15 -1 25 -6 23 -12 -11 -29 13
-35 127 -33 117 1 279 1 429 -2 47 0 102 -1 123 -1 40 0 67 14 67 35 0 6 -4 5
-9 -3 -8 -13 -23 -12 -81 3 -8 3 -19 5 -25 6 -5 1 5 6 24 10 19 4 61 4 93 0
33 -5 67 -6 76 -2 15 5 15 4 3 -11 -15 -19 -41 -23 -41 -7 0 6 -4 10 -10 10
-25 0 -6 -20 28 -29 51 -15 52 -14 52 13 0 23 2 23 88 24 48 0 76 -2 62 -4
-14 -3 -40 -7 -57 -10 -18 -3 -33 -9 -33 -14 0 -13 161 -1 177 12 7 6 11 14 8
18 -3 5 32 10 77 12 46 2 85 0 86 -4 5 -12 32 -10 32 2 0 12 27 13 32 2 2 -5
57 -5 123 0 158 12 192 18 176 28 -7 4 -22 5 -32 3 -14 -4 -18 -1 -14 9 5 11
-4 15 -34 16 -21 1 -50 6 -63 11 -25 10 -70 8 -128 -4 -19 -4 -44 -8 -55 -9
-11 0 -23 -5 -27 -11 -5 -6 -8 -3 -8 6 0 20 -56 31 -170 34 -41 1 -82 4 -90 7
-31 12 -60 16 -60 8 0 -14 -33 -17 -53 -6 -12 8 -20 8 -25 1 -15 -22 -94 -2
-85 21 4 11 -4 14 -35 14 -26 0 -42 -5 -46 -15 -6 -17 -56 -21 -56 -5 0 6 -7
10 -15 10 -8 0 -15 -7 -15 -16 0 -13 -7 -15 -32 -10 -18 3 -35 11 -39 17 -4 7
-9 7 -12 2 -4 -5 -24 -10 -47 -11 -30 -1 -40 2 -40 14 0 12 -13 15 -67 15 -38
0 -134 1 -215 2 -144 1 -147 1 -166 -23 -20 -24 -20 -25 -41 -6 -17 15 -23 16
-36 6 -12 -10 -15 -10 -15 4 0 9 -4 16 -10 16 -5 0 -10 -6 -10 -12 0 -9 -3
-10 -8 -2 -11 18 -218 17 -235 -1 -8 -7 -18 -10 -23 -6 -5 5 -21 11 -36 15
-21 5 -28 3 -28 -9 0 -9 -9 -15 -22 -15 -17 0 -19 3 -10 9 14 8 -86 31 -138
32 -244 0 -512 -9 -522 -19 -9 -9 -9 -12 2 -12 7 0 10 -3 7 -6 -4 -4 -15 -1
-24 7 -10 7 -15 9 -11 5 4 -5 0 -15 -10 -22 -10 -8 -19 -9 -23 -3 -3 6 -20 11
-37 11 -19 1 -32 6 -32 14 0 7 -13 15 -29 19 -33 7 -83 -3 -75 -16 3 -5 -2 -6
-10 -3 -9 3 -16 1 -16 -6 0 -6 -5 -8 -10 -5 -6 4 -8 11 -5 16 4 5 -3 9 -14 9
-11 0 -24 -6 -28 -14 -4 -8 -15 -15 -23 -17 -21 -3 -51 11 -44 22 3 5 2 9 -3
9 -4 1 -44 3 -87 7 -71 5 -78 4 -73 -11 4 -10 3 -15 -3 -11 -6 3 -10 1 -10 -4
0 -6 -7 -11 -16 -11 -14 0 -14 3 -4 15 11 13 8 15 -17 15 -16 0 -35 -6 -42
-12 -11 -11 -12 -10 -6 1 6 10 1 12 -25 6 -23 -5 -35 -3 -41 6 -7 11 -9 11 -9
1 0 -7 10 -17 23 -22 22 -9 22 -9 1 -9 -12 -1 -27 6 -35 15 -8 10 -23 14 -41
12 -15 -3 -28 -2 -28 2 0 9 -28 10 -260 10 -197 1 -238 -3 -294 -26 -16 -6
-18 -4 -13 9 7 19 1 20 -91 19 -29 0 -55 -2 -58 -5 -3 -2 -25 -2 -50 1 -33 3
-44 1 -42 -8 2 -7 -5 -14 -15 -15 -9 -2 -15 1 -11 6 3 5 -4 9 -16 9 -14 0 -19
-4 -15 -12 4 -7 0 -5 -8 5 -11 13 -29 17 -73 17 -71 0 -101 -14 -64 -29 17 -6
19 -10 8 -10 -9 -1 -23 8 -31 19 -16 23 -56 20 -78 -6 -6 -8 -19 -14 -28 -13
-11 0 -9 3 7 9 12 5 22 13 22 16 0 4 -3 4 -6 1 -4 -3 -16 -1 -27 5 -14 7 -190
12 -546 15 -289 2 -533 4 -541 4 -8 1 -139 0 -290 -1 -151 -1 -291 1 -310 4
-19 3 -30 2 -23 -2 6 -4 -75 -6 -180 -4 -105 1 -193 6 -196 11 -4 5 -22 6 -41
3 -33 -5 -34 -6 -10 -13 17 -6 10 -7 -20 -3 -25 2 -55 5 -67 5 -14 1 -20 6
-16 15 7 18 -6 18 -43 -1 -31 -15 -208 -25 -221 -12 -3 4 -1 13 5 19 7 7 12
16 12 21 0 5 -9 -2 -21 -17 -20 -25 -22 -26 -34 -9 -10 13 -10 20 -2 25 13 8
-48 2 -79 -7 -12 -4 -25 -2 -28 4 -4 6 -16 11 -27 11 -11 0 -17 -4 -14 -10 3
-6 -5 -10 -19 -10 -13 0 -26 -4 -28 -9 -1 -5 -10 -2 -18 7 -13 14 -13 15 0 10
8 -3 24 -2 35 2 13 5 4 8 -29 8 -34 1 -56 -4 -73 -18 -13 -10 -31 -16 -39 -13
-9 3 -14 0 -12 -8 2 -9 -8 -15 -29 -17 -27 -3 -33 0 -33 15 0 21 -40 27 -52 9
-5 -7 -8 -6 -8 2 0 7 -5 10 -11 7 -6 -4 -8 -13 -5 -21 4 -10 -3 -14 -24 -14
-17 0 -30 5 -30 10 0 6 5 10 10 10 6 0 10 5 10 10 0 6 -7 10 -16 10 -8 0 -13
3 -11 8 3 4 -10 8 -29 9 -19 1 -34 -3 -34 -9 0 -5 7 -8 15 -4 8 3 15 2 15 -3
0 -16 -13 -20 -31 -8 -23 14 -36 3 -19 -18 21 -26 -19 -19 -44 8 -12 12 -30
21 -41 19 -16 -3 -17 -1 -5 7 11 8 11 11 2 11 -7 0 -17 -11 -21 -24z m312 -33
c-7 -2 -19 -2 -25 0 -7 3 -2 5 12 5 14 0 19 -2 13 -5z m3982 -33 c3 -6 -1 -7
-9 -4 -18 7 -21 14 -7 14 6 0 13 -4 16 -10z m760 0 c3 -6 -1 -7 -9 -4 -18 7
-21 14 -7 14 6 0 13 -4 16 -10z m265 1 c0 -4 -11 -6 -25 -3 -14 2 -25 6 -25 8
0 2 11 4 25 4 14 0 25 -4 25 -9z m524 0 c4 -5 -3 -7 -14 -4 -23 6 -26 13 -6
13 8 0 17 -4 20 -9z m796 -1 c0 -5 -2 -10 -4 -10 -3 0 -8 5 -11 10 -3 6 -1 10
4 10 6 0 11 -4 11 -10z m-2415 -10 c-3 -5 -13 -10 -21 -10 -8 0 -12 5 -9 10 3
6 13 10 21 10 8 0 12 -4 9 -10z m185 5 c0 -7 -39 -12 -49 -5 -7 4 1 7 18 8 17
0 31 -1 31 -3z m-70 -115 c3 0 -10 -8 -28 -17 -26 -12 -38 -14 -57 -5 -18 8
-25 9 -25 1 0 -8 -5 -7 -15 1 -12 10 -19 9 -38 -3 -21 -13 -25 -13 -45 3 l-22
19 22 4 c17 4 174 2 208 -3z m2505 0 c4 -6 -5 -10 -20 -10 -15 0 -24 4 -20 10
3 6 12 10 20 10 8 0 17 -4 20 -10z m110 0 c4 -6 -8 -10 -30 -10 -22 0 -34 4
-30 10 3 6 17 10 30 10 13 0 27 -4 30 -10z m-3645 -11 c0 -5 -4 -8 -9 -4 -5 3
-12 1 -16 -5 -4 -6 -11 -7 -18 -3 -7 4 -4 9 9 14 27 11 34 10 34 -2z m1130 4
c-13 -3 -29 -12 -36 -20 -8 -13 -13 -13 -19 -3 -10 17 13 30 50 28 27 -1 27
-1 5 -5z m264 -1 c3 -5 -1 -9 -9 -9 -8 0 -12 4 -9 9 3 4 7 8 9 8 2 0 6 -4 9
-8z m1266 0 c0 -9 -30 -32 -42 -32 -10 0 -10 2 1 9 7 5 11 13 8 18 -3 5 3 9
14 9 10 0 19 -2 19 -4z m94 -7 c-4 -8 -10 -12 -15 -9 -11 6 -2 24 11 24 5 0 7
-7 4 -15z m1359 8 c-7 -2 -21 -2 -30 0 -10 3 -4 5 12 5 17 0 24 -2 18 -5z
m-2558 -41 c-3 -3 -11 0 -18 7 -9 10 -8 11 6 5 10 -3 15 -9 12 -12z m-3205
-38 c0 -14 -3 -14 -15 -4 -8 7 -15 14 -15 16 0 2 7 4 15 4 8 0 15 -7 15 -16z
m228 3 c15 -10 16 -37 1 -37 -6 0 -9 6 -6 14 5 12 0 12 -26 4 -47 -14 -93 -14
-111 1 -14 11 -16 11 -16 -2 0 -11 -5 -14 -17 -10 -34 12 -34 28 0 33 48 8
160 6 175 -3z m100 -2 c4 -4 -12 -5 -36 -2 -23 2 -46 8 -50 11 -4 4 12 6 36 3
23 -2 46 -7 50 -12z m-561 -1 c-3 -3 -12 -4 -19 -1 -8 3 -5 6 6 6 11 1 17 -2
13 -5z m103 -2 c0 -4 -17 -6 -37 -4 -59 5 -63 10 -10 11 26 1 47 -3 47 -7z"/>
<path d="M23988 29253 c7 -3 16 -2 19 1 4 3 -2 6 -13 5 -11 0 -14 -3 -6 -6z"/>
<path d="M24255 29251 c-3 -5 -2 -12 3 -15 5 -3 9 1 9 9 0 17 -3 19 -12 6z"/>
<path d="M30200 29181 c0 -5 9 -7 20 -4 11 3 20 7 20 9 0 2 -9 4 -20 4 -11 0
-20 -4 -20 -9z"/>
<path d="M30918 29183 c7 -3 16 -2 19 1 4 3 -2 6 -13 5 -11 0 -14 -3 -6 -6z"/>
<path d="M35006 29182 c-4 -3 -30 -5 -59 -5 -48 1 -49 0 -13 -6 22 -3 41 -12
44 -19 3 -11 0 -12 -18 -2 -18 9 -25 9 -40 -5 -23 -20 -62 -11 -58 13 2 12 -5
18 -22 19 -14 1 -18 0 -7 -3 20 -6 22 -23 3 -30 -8 -3 -12 -13 -9 -23 4 -14
-2 -19 -24 -23 -46 -6 -65 1 -60 23 3 11 1 16 -5 13 -5 -3 -8 -15 -5 -25 4
-14 -1 -21 -20 -25 -55 -14 2 -23 182 -29 327 -9 440 -16 450 -26 8 -8 -6 -14
-28 -10 -5 1 -6 -3 -3 -8 4 -5 -2 -12 -11 -14 -10 -3 8 -5 40 -6 37 -1 56 3
52 9 -3 6 -13 10 -21 10 -8 0 -14 5 -14 10 0 6 9 10 20 10 11 0 20 -4 20 -9 0
-5 7 -12 16 -15 8 -3 13 -2 10 3 -10 15 23 21 52 9 15 -6 36 -14 47 -19 36
-14 87 -18 320 -25 127 -3 233 -8 237 -10 3 -2 8 2 11 8 3 10 7 10 19 0 13
-10 19 -10 31 2 8 8 18 12 21 9 4 -4 16 -8 28 -10 12 -2 44 -25 72 -51 28 -26
60 -54 72 -62 11 -8 35 -44 52 -80 31 -63 32 -67 21 -128 -9 -47 -8 -78 0
-123 7 -32 12 -104 12 -159 0 -54 4 -102 9 -105 5 -3 6 -20 3 -39 -4 -25 -1
-35 12 -40 15 -5 16 -1 12 26 -3 18 -1 42 3 53 7 15 9 5 9 -35 0 -30 0 -57 1
-60 4 -12 13 -180 12 -222 -1 -25 5 -59 13 -74 11 -22 12 -31 2 -43 -8 -9 -8
-15 -2 -18 6 -2 9 -21 7 -43 -2 -23 0 -40 6 -40 6 0 8 9 5 20 -3 11 0 20 6 20
6 0 10 3 10 8 -1 4 0 9 1 12 1 3 3 14 5 25 2 11 8 39 13 63 5 23 6 45 2 47
-13 8 1 45 16 45 8 0 14 9 14 20 0 12 -7 20 -16 20 -15 0 -15 2 -1 23 12 19
14 68 12 307 -3 316 -6 356 -30 426 -47 138 -133 262 -215 311 -30 18 -60 36
-66 42 -17 14 -77 45 -94 48 -94 18 -818 24 -1032 10 -21 -2 -38 0 -38 3 0 7
-87 10 -94 2z"/>
<path d="M34545 29090 c-64 -5 -67 -6 -34 -14 20 -4 45 -7 55 -5 11 1 34 -1
52 -5 22 -5 38 -4 47 4 33 28 18 30 -120 20z"/>
<path d="M29090 29029 c0 -7 -20 -10 -57 -7 -32 2 -58 -1 -60 -7 -2 -6 22 -10
60 -10 53 0 63 3 64 18 1 9 0 17 -3 17 -2 0 -4 -5 -4 -11z"/>
<path d="M29219 29023 c-9 -11 -10 -14 -2 -10 7 5 24 0 38 -9 14 -9 28 -14 31
-11 9 9 -6 27 -22 27 -8 0 -14 5 -14 10 0 15 -16 12 -31 -7z"/>
<path d="M29373 29013 c9 -2 25 -2 35 0 9 3 1 5 -18 5 -19 0 -27 -2 -17 -5z"/>
<path d="M35237 29013 c-3 -5 -24 -8 -46 -7 -23 0 -41 -3 -41 -8 0 -15 87 -9
94 7 6 16 1 21 -7 8z"/>
<path d="M28885 29000 c-3 -5 -2 -10 4 -10 5 0 13 5 16 10 3 6 2 10 -4 10 -5
0 -13 -4 -16 -10z"/>
<path d="M30998 29003 c7 -3 16 -2 19 1 4 3 -2 6 -13 5 -11 0 -14 -3 -6 -6z"/>
<path d="M35038 29003 c6 -2 18 -2 25 0 6 3 1 5 -13 5 -14 0 -19 -2 -12 -5z"/>
<path d="M35090 29000 c0 -6 7 -10 15 -10 8 0 15 2 15 4 0 2 -7 6 -15 10 -8 3
-15 1 -15 -4z"/>
<path d="M26238 28956 c3 -5 -4 -7 -16 -4 -19 5 -20 4 -11 -14 9 -17 8 -19
-10 -13 -12 3 -21 2 -21 -3 0 -5 29 -8 64 -8 39 1 59 4 50 9 -8 5 -12 16 -10
25 5 13 -1 17 -23 17 -16 0 -27 -4 -23 -9z"/>
<path d="M26350 28940 c0 -5 7 -10 15 -10 8 0 15 5 15 10 0 6 -7 10 -15 10 -8
0 -15 -4 -15 -10z"/>
<path d="M36130 28938 c0 -4 7 -8 15 -8 8 0 15 4 15 8 0 5 -7 9 -15 9 -8 0
-15 -4 -15 -9z"/>
<path d="M26925 28930 c-15 -5 -9 -8 25 -12 25 -3 52 -1 60 4 12 8 12 8 -3 4
-9 -3 -27 -2 -40 3 -12 5 -31 5 -42 1z"/>
<path d="M26463 28913 c9 -2 25 -2 35 0 9 3 1 5 -18 5 -19 0 -27 -2 -17 -5z"/>
<path d="M45825 28828 c-16 -6 -40 -20 -52 -31 -23 -20 -59 -90 -74 -141 l-8
-29 51 6 c28 4 83 13 122 22 39 9 91 20 116 25 85 16 105 22 92 27 -6 3 -10 9
-6 14 3 5 1 9 -5 9 -6 0 -26 14 -44 30 -19 17 -39 30 -45 30 -5 0 -15 6 -21
14 -6 7 -24 16 -39 19 -15 3 -34 8 -42 11 -8 2 -28 0 -45 -6z"/>
<path d="M45765 27947 c10 -31 84 -169 102 -189 22 -24 36 -23 71 7 27 23 29
28 20 53 -11 28 -23 38 -80 64 -16 7 -28 18 -28 24 0 7 -20 24 -46 38 -45 25
-45 25 -39 3z"/>
<path d="M36561 27824 c0 -11 3 -14 6 -6 3 7 2 16 -1 19 -3 4 -6 -2 -5 -13z"/>
<path d="M36520 27611 c0 -7 -4 -10 -8 -7 -5 3 -7 -14 -6 -37 2 -53 1 -52 18
-38 9 8 13 26 11 47 -3 34 -15 61 -15 35z"/>
<path d="M43364 26324 c3 -8 6 -18 6 -20 0 -2 5 -4 10 -4 16 0 11 27 -6 34
-12 5 -15 2 -10 -10z"/>
<path d="M43380 26281 c0 -5 5 -13 10 -16 6 -3 10 -2 10 4 0 5 -4 13 -10 16
-5 3 -10 2 -10 -4z"/>
<path d="M41518 26269 c-19 -11 -24 -29 -8 -29 5 0 14 9 20 20 12 23 12 23
-12 9z"/>
<path d="M43411 26191 c-11 -7 -11 -13 0 -32 8 -13 14 -34 16 -46 1 -12 13
-39 27 -60 14 -21 26 -45 26 -55 0 -9 5 -20 10 -23 9 -5 12 1 9 21 0 4 4 10
10 13 11 7 -14 94 -41 149 -15 29 -40 43 -57 33z"/>
<path d="M42191 26094 c0 -11 3 -14 6 -6 3 7 2 16 -1 19 -3 4 -6 -2 -5 -13z"/>
<path d="M42262 26065 c0 -16 2 -22 5 -12 2 9 2 23 0 30 -3 6 -5 -1 -5 -18z"/>
<path d="M30720 26018 c-8 -24 -15 -52 -16 -63 -9 -76 -15 -108 -24 -126 -9
-15 -8 -24 1 -35 8 -10 8 -14 0 -14 -13 0 -7 -45 9 -65 7 -9 7 -14 1 -17 -11
-3 -22 -213 -12 -223 3 -3 6 -11 7 -18 2 -7 10 -46 19 -87 9 -41 19 -88 21
-105 13 -81 28 -146 35 -151 7 -4 31 -72 35 -99 3 -25 19 -52 43 -72 17 -15
20 -21 8 -17 -16 6 -16 4 -5 -22 16 -38 69 -113 102 -143 14 -14 26 -32 26
-41 0 -10 13 -32 29 -51 16 -18 28 -36 25 -40 -2 -4 3 -12 11 -19 8 -7 12 -16
9 -21 -3 -5 2 -12 10 -15 9 -3 16 -12 16 -19 0 -6 9 -23 21 -36 52 -61 108
-116 123 -122 10 -4 15 -11 12 -15 -3 -5 7 -19 22 -31 54 -44 127 -96 130 -92
4 4 88 -66 119 -99 13 -14 23 -21 23 -17 0 5 12 -1 26 -12 15 -12 35 -21 46
-21 11 0 16 -4 13 -10 -3 -5 -1 -10 5 -10 20 0 120 -51 120 -61 0 -6 5 -7 11
-4 5 4 18 1 27 -7 9 -8 27 -15 39 -16 12 0 37 -7 55 -15 18 -8 53 -20 78 -27
88 -25 110 -34 110 -47 0 -10 5 -11 18 -5 16 8 32 8 50 2 4 -2 21 -4 37 -6
105 -10 145 -18 145 -28 0 -8 2 -8 8 0 7 12 92 24 92 13 0 -10 259 5 310 18
14 3 33 5 42 4 10 -1 28 4 40 11 13 7 34 14 47 15 13 1 27 6 30 10 3 4 20 9
36 11 17 2 34 8 40 13 5 5 16 9 25 9 20 0 247 115 273 138 27 24 15 24 -39 1
-27 -11 -58 -24 -69 -29 -43 -17 -194 -60 -265 -75 -139 -30 -194 -35 -377
-35 -156 0 -203 4 -315 26 -554 107 -1002 442 -1254 939 -155 305 -217 642
-189 1018 4 53 5 97 3 97 -3 0 -11 -19 -18 -42z"/>
<path d="M42330 26010 c0 -5 5 -10 11 -10 5 0 7 5 4 10 -3 6 -8 10 -11 10 -2
0 -4 -4 -4 -10z"/>
<path d="M14185 25966 c-97 -18 -208 -47 -219 -57 -6 -5 -20 -9 -32 -9 -13 0
-26 -4 -29 -10 -3 -5 -14 -10 -24 -10 -10 0 -36 -14 -57 -31 -22 -17 -46 -28
-56 -26 -10 3 -18 1 -18 -5 0 -6 -7 -8 -15 -4 -9 3 -15 0 -15 -9 0 -8 -6 -16
-12 -16 -7 -1 -19 -2 -25 -3 -7 0 -26 -13 -42 -28 -16 -16 -32 -28 -35 -28
-12 0 -46 -35 -46 -48 0 -7 -4 -11 -9 -7 -5 3 -26 -11 -47 -30 -20 -19 -43
-35 -50 -35 -8 0 -14 -5 -14 -11 0 -13 -27 -41 -54 -54 -12 -6 -23 -19 -25
-30 -2 -11 -16 -32 -32 -48 -16 -15 -29 -32 -29 -37 0 -6 -4 -10 -10 -10 -20
0 -25 -2 -38 -12 -8 -7 -9 -15 -3 -22 6 -7 5 -18 -4 -29 -10 -14 -14 -15 -18
-5 -3 7 -6 -1 -6 -19 -1 -22 -12 -44 -36 -70 -29 -32 -38 -55 -34 -89 0 -3
-10 -15 -23 -27 -25 -24 -68 -105 -68 -128 0 -8 -7 -25 -16 -37 -9 -13 -13
-26 -10 -29 3 -4 0 -14 -8 -22 -8 -9 -16 -29 -18 -44 -3 -16 -10 -32 -17 -37
-8 -4 -11 -13 -7 -19 4 -6 2 -20 -4 -31 -8 -16 -8 -25 0 -35 8 -10 8 -15 0
-20 -6 -4 -9 -12 -7 -18 2 -6 -7 -20 -20 -32 -19 -16 -27 -38 -37 -105 -16
-101 -36 -199 -44 -220 -3 -8 -6 -17 -7 -20 0 -3 -8 -21 -17 -40 -16 -37 -27
-74 -54 -180 -40 -165 -57 -226 -64 -235 -5 -5 -13 -39 -20 -75 -6 -36 -16
-76 -21 -90 -5 -14 -11 -41 -13 -60 -3 -19 -10 -51 -15 -70 -6 -19 -16 -62
-22 -95 -15 -80 -14 -77 -23 -103 -12 -36 -13 -251 -1 -246 5 3 3 0 -6 -8 -15
-12 -22 -48 -9 -48 6 0 37 67 78 165 158 383 367 776 557 1047 47 67 171 233
186 249 8 8 27 32 44 54 40 54 219 235 232 235 6 0 14 7 17 16 3 8 10 13 14
10 5 -3 24 8 43 24 19 16 39 29 44 30 6 0 16 9 23 20 7 11 17 20 24 20 6 0 20
7 29 16 10 9 27 17 36 18 26 3 89 32 97 45 4 6 15 11 24 11 10 0 29 8 42 18
14 9 41 18 60 18 19 1 49 7 65 14 17 8 51 15 77 16 42 3 47 1 50 -19 3 -19 9
-22 43 -20 22 1 31 -1 20 -4 -11 -3 -24 -9 -30 -15 -6 -6 -4 -7 6 -3 10 4 20
2 24 -4 4 -8 13 -6 28 4 27 19 66 19 73 1 3 -8 16 -17 30 -20 25 -7 31 -20 14
-31 -5 -3 -10 1 -10 9 0 11 -9 16 -27 16 l-27 0 24 -17 c14 -9 28 -22 32 -27
5 -7 8 -7 8 2 0 6 7 12 15 12 9 0 12 -6 9 -15 -4 -11 4 -19 26 -26 23 -9 28
-14 19 -20 -11 -6 -11 -11 -2 -20 6 -6 9 -19 6 -28 -3 -9 -1 -12 4 -6 4 6 17
17 27 25 18 14 19 14 7 -8 -7 -13 -11 -25 -9 -26 47 -31 67 -40 88 -39 19 1
20 0 5 -3 -11 -3 -25 -12 -30 -19 -6 -7 -21 -15 -32 -17 l-22 -3 20 -25 c18
-23 20 -24 33 -7 7 9 19 17 26 17 10 0 10 -3 0 -15 -10 -12 -10 -15 3 -15 17
0 40 -24 30 -33 -3 -4 -12 1 -20 11 -13 15 -13 15 -4 -5 9 -18 8 -22 -7 -26
-9 -2 -1 -3 18 -1 19 1 27 0 18 -2 -20 -6 -32 -36 -33 -81 0 -24 5 -35 22 -42
25 -12 31 -31 9 -31 -7 0 -16 -9 -19 -19 -3 -14 -1 -18 10 -14 12 5 14 1 9
-15 -5 -15 0 -25 16 -36 20 -14 21 -18 8 -26 -13 -8 -13 -10 2 -10 9 0 20 -5
23 -10 4 -6 3 -10 -2 -9 -20 3 -24 -2 -12 -17 16 -19 21 -60 5 -44 -17 17 -27
11 -16 -11 9 -15 8 -24 -2 -37 -9 -11 -10 -14 0 -8 8 5 16 -2 24 -21 15 -38
20 -95 6 -87 -5 4 -7 19 -4 35 3 16 2 29 -3 29 -11 0 -36 -30 -25 -30 5 0 3
-4 -5 -9 -11 -7 -10 -13 7 -31 15 -17 18 -27 11 -41 -5 -11 -13 -28 -19 -39
-14 -28 -12 -40 4 -34 8 3 17 1 21 -5 3 -6 2 -11 -3 -11 -11 0 -21 -29 -28
-80 -3 -19 -10 -38 -17 -42 -9 -5 -9 -10 1 -20 16 -16 15 -31 -1 -25 -9 3 -13
-2 -12 -16 2 -30 -15 -56 -33 -49 -11 4 -13 0 -8 -16 8 -26 -3 -74 -16 -66
-14 9 -38 -15 -31 -32 3 -9 -2 -14 -16 -14 -17 0 -21 -6 -21 -29 0 -33 -24
-48 -48 -29 -11 9 -14 9 -9 1 4 -7 0 -16 -10 -22 -16 -9 -15 -10 7 -11 19 0
21 -3 12 -12 -7 -7 -12 -19 -12 -27 0 -23 -30 -50 -48 -44 -12 5 -14 2 -9 -11
4 -10 1 -24 -8 -32 -8 -9 -15 -11 -15 -5 0 20 -18 11 -25 -11 -9 -30 -10 -68
0 -97 7 -22 5 -23 -23 -19 -17 2 -29 1 -26 -3 6 -10 -61 -23 -81 -16 -8 4 -17
2 -20 -3 -4 -6 0 -10 8 -10 56 0 201 -351 177 -429 -5 -14 -11 -64 -14 -110
-3 -46 -10 -89 -15 -95 -5 -6 -12 -27 -16 -46 -8 -39 -33 -92 -47 -101 -5 -3
-9 -8 -7 -10 5 -7 -34 -89 -42 -89 -4 0 -22 -20 -40 -45 -18 -25 -36 -45 -41
-45 -4 0 -54 -48 -110 -106 -172 -178 -283 -242 -401 -231 -32 3 -69 13 -83
22 -47 30 -36 8 18 -38 46 -39 149 -103 318 -199 25 -14 91 -49 148 -78 73
-38 102 -58 102 -72 0 -10 5 -18 11 -18 6 0 9 -6 6 -12 -2 -7 3 -19 12 -26 13
-11 12 -11 -7 -2 -26 13 -45 4 -23 -9 7 -5 10 -14 7 -20 -4 -6 0 -18 9 -27 15
-15 15 -18 0 -34 -10 -11 -12 -20 -6 -24 5 -3 12 2 14 11 4 14 5 13 6 -4 0
-12 -5 -23 -11 -26 -10 -3 -10 -7 0 -20 11 -13 10 -15 -7 -10 -24 6 -26 0 -10
-30 13 -24 18 -96 7 -100 -5 -1 -9 -30 -11 -64 -3 -58 -2 -61 16 -52 17 9 17
8 7 -10 -6 -12 -9 -25 -6 -30 3 -4 -4 -18 -15 -29 l-20 -22 23 3 c14 1 23 -4
26 -15 2 -13 -1 -16 -12 -12 -14 5 -14 3 -1 -22 8 -16 12 -36 9 -46 -2 -9 0
-19 6 -23 7 -4 7 -12 0 -26 -6 -10 -7 -19 -3 -19 4 -1 19 -10 32 -21 21 -17
22 -22 10 -30 -9 -6 -10 -9 -2 -9 28 0 217 276 361 526 101 177 262 506 292
599 7 22 16 45 20 50 3 6 19 46 35 90 15 44 33 94 41 110 7 17 27 75 44 130
17 55 35 107 39 115 4 8 14 40 21 70 7 30 17 63 21 72 5 9 16 45 24 80 23 98
52 217 70 283 9 33 17 71 16 85 0 14 4 34 9 45 12 25 29 116 34 175 2 25 9 65
16 90 14 51 19 114 21 255 2 94 2 96 8 35 l6 -65 8 90 c4 50 9 107 11 128 3
29 0 37 -10 33 -10 -4 -14 3 -14 21 0 21 3 24 12 15 7 -7 14 -12 18 -12 7 0 4
361 -4 500 -8 145 -29 298 -57 409 -4 19 -6 37 -4 41 3 5 -4 36 -15 70 -11 35
-20 71 -20 81 0 11 -4 19 -10 19 -5 0 -9 3 -8 8 4 12 -24 102 -33 108 -5 3 -9
12 -9 21 0 8 -6 29 -14 46 -7 18 -23 56 -34 85 -26 66 -156 285 -197 332 -132
152 -294 272 -428 316 -29 9 -55 22 -59 28 -5 7 -8 6 -8 -3 0 -10 -3 -11 -13
-2 -8 6 -17 8 -20 4 -4 -3 -7 -1 -7 6 0 7 -8 11 -17 9 -10 -1 -23 1 -30 5 -23
14 -197 16 -268 3z m584 -1334 c-6 -2 -5 -10 2 -18 7 -8 9 -17 5 -21 -9 -10
-14 -1 -21 35 -5 28 -3 31 9 20 8 -7 10 -15 5 -16z m49 -651 c3 -8 -1 -12 -9
-9 -7 2 -15 10 -17 17 -3 8 1 12 9 9 7 -2 15 -10 17 -17z m-154 -335 c-6 -15
-24 -23 -24 -11 0 8 24 34 28 30 1 -1 0 -10 -4 -19z"/>
<path d="M43335 25601 c-5 -10 -4 -16 3 -19 7 -2 12 -10 12 -18 0 -12 4 -12
20 -2 25 16 26 28 1 21 -13 -3 -20 1 -23 14 -3 15 -5 15 -13 4z"/>
<path d="M14660 24856 c0 -9 5 -16 10 -16 6 0 10 4 10 9 0 6 -4 13 -10 16 -5
3 -10 -1 -10 -9z"/>
<path d="M14698 24743 c7 -3 16 -2 19 1 4 3 -2 6 -13 5 -11 0 -14 -3 -6 -6z"/>
<path d="M14741 24564 c0 -11 3 -14 6 -6 3 7 2 16 -1 19 -3 4 -6 -2 -5 -13z"/>
<path d="M14758 24223 c7 -3 16 -2 19 1 4 3 -2 6 -13 5 -11 0 -14 -3 -6 -6z"/>
<path d="M14025 23196 c-17 -7 -36 -20 -44 -29 -7 -10 -19 -17 -26 -17 -20 0
-113 -124 -146 -193 -32 -68 -24 -85 19 -44 33 31 108 66 142 67 34 0 160 -33
160 -42 0 -4 9 -15 20 -26 25 -23 50 -94 50 -141 0 -61 -32 -134 -74 -172 -22
-19 -76 -53 -120 -75 -45 -23 -103 -53 -130 -68 -27 -14 -61 -26 -76 -26 -27
0 -67 35 -89 78 -16 31 -25 22 -41 -42 -23 -96 -1 -179 70 -258 37 -42 38 -43
113 -46 63 -3 84 0 121 17 65 32 164 142 213 236 152 295 163 585 28 744 -40
48 -127 65 -190 37z"/>
<path d="M23056 22240 c-10 -30 -29 -66 -41 -80 -37 -41 -73 -140 -85 -236 -6
-49 -15 -116 -20 -149 -15 -98 -17 -129 -10 -150 4 -11 1 -33 -5 -50 -12 -29
-12 -108 1 -172 3 -18 1 -55 -6 -82 -13 -54 -6 -116 13 -104 6 3 3 -4 -6 -18
-20 -28 -22 -75 -4 -82 7 -3 4 -6 -6 -6 -10 -1 -16 -5 -12 -10 3 -5 8 -53 11
-107 3 -54 7 -101 10 -106 3 -4 1 -8 -5 -8 -7 0 -7 -8 -1 -25 5 -13 5 -27 1
-30 -5 -3 -5 -20 -1 -39 4 -19 4 -40 -1 -47 -10 -17 -1 -196 11 -218 6 -11 4
-22 -6 -33 -18 -19 -23 -193 -7 -209 6 -6 7 -29 0 -65 -11 -64 -2 -128 16
-117 7 4 4 -6 -7 -21 -15 -24 -18 -47 -17 -130 2 -170 2 -177 -1 -313 -2 -72
-7 -129 -12 -126 -4 3 -5 -9 -1 -28 11 -50 13 -231 2 -252 -4 -10 -5 -26 -2
-35 9 -22 10 -90 2 -99 -4 -3 -7 -11 -7 -17 0 -6 5 -4 10 4 8 12 10 10 10 -8
0 -15 -4 -21 -12 -16 -7 5 -8 3 -3 -6 5 -7 9 -27 11 -44 12 -149 13 -176 4
-181 -5 -3 -7 -12 -4 -19 3 -8 1 -29 -3 -48 -5 -18 -6 -50 -3 -70 4 -24 3 -35
-3 -31 -7 4 -7 -1 -2 -13 5 -10 10 -82 11 -159 3 -149 4 -162 19 -184 5 -9 5
-16 -2 -18 -6 -2 -9 -19 -7 -38 1 -19 -1 -37 -4 -39 -13 -8 -5 -145 8 -162 8
-9 13 -38 13 -72 -1 -31 3 -74 8 -95 6 -23 6 -50 1 -71 -5 -18 -6 -39 -2 -47
4 -8 10 -61 14 -119 11 -172 12 -181 23 -188 5 -4 10 -15 10 -24 0 -35 26
-134 49 -186 13 -29 24 -55 24 -58 0 -3 9 -17 20 -31 11 -14 20 -34 20 -45 0
-18 104 -126 186 -193 20 -16 46 -38 58 -48 62 -54 212 -104 331 -110 22 -1
42 -5 45 -9 3 -4 36 -8 73 -9 37 -1 70 -6 73 -11 7 -11 62 -10 69 2 6 10 75 9
75 -1 0 -4 15 -4 33 -2 17 3 41 4 52 3 11 -1 44 -2 73 -2 28 0 52 -4 52 -9 0
-5 31 -8 68 -7 37 1 73 -2 80 -6 7 -4 12 -3 12 2 0 5 40 9 89 8 49 0 87 -4 84
-8 -2 -5 5 -8 17 -8 14 0 19 4 14 13 -5 7 0 6 11 -3 14 -11 19 -12 22 -2 3 6
9 12 14 12 6 0 8 -4 5 -8 -3 -5 12 -7 32 -6 146 12 169 11 220 -6 30 -10 55
-13 58 -8 3 5 20 9 38 8 17 -1 33 -1 36 0 17 7 338 6 352 -1 10 -6 33 -6 56 0
27 5 51 4 76 -4 21 -7 39 -9 42 -4 3 5 9 7 13 4 16 -9 101 -12 101 -3 0 5 9 4
20 -2 12 -6 20 -7 20 -1 0 5 22 11 49 13 27 1 47 0 44 -4 -2 -5 3 -8 11 -8 9
0 16 3 16 8 0 15 94 12 112 -5 16 -14 21 -14 56 0 28 11 62 15 113 12 91 -5
103 -7 123 -24 9 -7 16 -9 16 -4 0 5 28 10 63 11 34 0 97 2 140 4 42 2 77 0
77 -5 0 -4 26 -5 58 -2 31 3 66 6 77 7 11 1 23 6 26 11 4 5 12 0 18 -11 9 -17
16 -20 34 -13 12 5 50 7 84 5 35 -1 65 1 68 5 2 5 23 3 45 -3 33 -8 43 -8 49
3 6 9 10 10 15 2 7 -10 70 -14 161 -9 17 1 46 1 65 0 76 -2 84 -2 94 8 17 17
36 11 36 -10 0 -11 7 -20 16 -20 8 0 13 4 9 9 -3 6 4 8 17 5 37 -7 113 -7 136
0 14 5 22 3 22 -5 0 -9 3 -9 15 1 8 6 18 9 23 6 15 -9 122 -15 122 -7 0 4 18
8 40 8 22 0 40 -4 40 -9 0 -6 8 -4 17 3 9 8 14 9 11 3 -5 -6 11 -10 44 -11 31
0 54 -6 59 -14 8 -12 11 -12 22 1 13 17 42 26 33 11 -4 -5 -2 -12 3 -15 5 -4
12 -2 16 4 7 12 127 9 136 -4 4 -4 16 -3 27 3 25 13 138 15 146 2 7 -10 44 -3
62 11 7 5 14 3 17 -6 3 -8 24 -16 49 -19 24 -2 57 -7 73 -11 21 -4 26 -3 15 3
-8 5 -18 7 -24 4 -5 -3 -6 -1 -2 5 7 11 31 7 52 -10 7 -5 23 -4 39 2 22 8 30
8 37 -2 6 -11 10 -10 17 1 7 11 15 11 40 3 19 -7 31 -7 31 -1 0 5 9 9 20 9 11
0 20 -3 20 -7 0 -5 45 -7 100 -7 85 1 102 -1 116 -17 22 -24 38 -25 25 -1 -9
17 -5 18 52 11 34 -4 64 -7 67 -7 3 1 12 -1 20 -5 8 -3 31 -8 50 -10 19 -2 44
-7 55 -11 16 -6 17 -6 5 3 -13 9 -11 11 7 11 12 0 24 -3 26 -7 3 -5 45 -7 94
-5 160 4 186 3 193 -8 6 -10 29 -9 90 4 8 2 21 -1 28 -7 8 -6 12 -5 12 4 0 12
2 12 9 0 5 -7 14 -10 20 -7 6 4 16 4 22 0 6 -3 32 -8 58 -10 25 -1 87 -6 136
-9 50 -4 105 -7 123 -6 18 1 46 -6 62 -16 23 -13 32 -15 42 -5 16 16 28 15 28
-2 0 -15 29 -15 64 -1 10 4 21 4 25 -2 12 -19 39 -22 46 -5 5 13 9 12 30 -10
24 -26 103 -46 125 -33 6 4 16 2 23 -3 7 -6 50 -10 97 -10 47 0 141 -3 210 -8
69 -4 142 -6 164 -5 21 1 44 -3 51 -9 8 -6 73 -13 149 -16 75 -2 158 -6 184
-9 120 -12 179 -18 202 -19 14 -1 30 -5 37 -9 7 -4 22 -6 35 -3 13 2 75 -4
138 -14 63 -10 118 -16 122 -13 4 2 18 -1 30 -8 22 -12 80 -17 195 -18 37 -1
67 -6 75 -14 7 -8 19 -12 26 -9 6 2 12 -2 13 -10 0 -7 4 -3 9 10 15 37 24 665
10 691 -11 22 -11 22 -328 15 -473 -9 -936 -11 -4527 -19 -2370 -5 -3354 -4
-3520 4 -368 18 -502 45 -589 122 -72 63 -96 126 -120 319 -45 349 -49 572
-55 2775 -6 2050 -6 2079 -25 2025z"/>
<path d="M11402 22250 c0 -19 2 -27 5 -17 2 9 2 25 0 35 -3 9 -5 1 -5 -18z"/>
<path d="M11393 22185 c-3 -9 -3 -18 -1 -21 3 -3 8 4 11 16 6 23 -1 27 -10 5z"/>
<path d="M11391 22134 c0 -11 3 -14 6 -6 3 7 2 16 -1 19 -3 4 -6 -2 -5 -13z"/>
<path d="M11382 22070 c0 -19 2 -27 5 -17 2 9 2 25 0 35 -3 9 -5 1 -5 -18z"/>
<path d="M11366 21978 c-13 -96 -26 -375 -26 -558 0 -377 33 -676 105 -964 37
-145 78 -280 100 -331 8 -16 38 -84 67 -149 112 -256 282 -493 469 -655 96
-84 102 -88 174 -136 153 -101 362 -188 550 -228 138 -29 476 -31 605 -4 189
41 324 84 485 155 102 45 222 108 246 128 8 8 18 14 22 14 11 0 262 172 277
191 3 3 32 28 65 54 33 27 67 56 75 66 64 73 95 113 95 123 0 6 6 21 13 34 7
12 9 23 5 23 -19 3 -49 -4 -60 -13 -9 -7 -13 -7 -13 2 0 7 -8 10 -20 7 -11 -3
-20 -1 -20 4 0 5 -7 9 -15 9 -7 0 -18 6 -22 14 -4 8 -17 14 -28 13 -37 -1
-115 15 -110 24 8 12 -88 6 -97 -6 -5 -6 -8 -5 -8 3 0 8 -5 10 -12 6 -14 -9
-31 -11 -96 -15 -24 -1 -46 -8 -49 -15 -3 -8 -17 -11 -40 -8 -28 4 -42 -1 -60
-18 -22 -21 -25 -21 -34 -6 -11 19 -41 14 -81 -14 -22 -15 -32 -17 -48 -8 -17
9 -27 8 -48 -7 -47 -31 -74 -43 -83 -37 -6 3 -28 -4 -49 -15 -22 -11 -52 -23
-67 -25 -14 -3 -29 -10 -33 -16 -4 -6 -22 -12 -41 -12 -34 -1 -69 -14 -79 -29
-3 -4 -21 -11 -40 -14 -19 -3 -44 -12 -55 -19 -11 -7 -42 -16 -69 -20 -27 -4
-72 -18 -100 -30 -28 -13 -67 -23 -86 -24 -20 -1 -65 -8 -100 -16 -36 -7 -72
-14 -80 -14 -8 0 -51 -3 -95 -8 -98 -10 -170 -10 -255 0 -90 10 -238 45 -282
68 -21 10 -38 16 -38 13 0 -17 -248 134 -258 157 -2 4 -19 17 -38 29 -47 29
-167 166 -237 272 -52 79 -121 206 -162 302 -10 22 -26 58 -36 80 -22 48 -65
194 -85 290 -8 38 -22 89 -30 115 -9 25 -17 59 -19 75 -2 17 -11 89 -20 160
-23 174 -31 343 -28 627 1 224 7 331 19 370 3 9 0 19 -5 22 -5 4 -12 -12 -15
-36z m3314 -2258 c0 -5 -5 -10 -11 -10 -5 0 -7 5 -4 10 3 6 8 10 11 10 2 0 4
-4 4 -10z"/>
<path d="M36549 19534 c0 -27 -2 -68 -4 -91 -3 -23 -1 -52 4 -65 11 -26 11
-26 13 99 1 51 -1 96 -5 99 -4 4 -7 -15 -8 -42z"/>
<path d="M42194 19148 c3 -15 1 -30 -4 -33 -8 -5 -7 -11 1 -21 14 -17 3 -48
-15 -41 -8 3 -24 -1 -36 -10 -17 -12 -19 -17 -9 -24 7 -4 10 -11 7 -14 -11
-12 -30 6 -24 22 8 21 -4 39 -15 22 -8 -12 -11 -11 -22 1 -6 8 -20 16 -30 16
-15 2 -16 -1 -5 -14 10 -12 10 -16 0 -19 -6 -3 -9 -10 -6 -15 4 -7 2 -8 -4 -4
-6 4 -9 13 -5 21 3 9 -1 15 -10 15 -8 0 -17 6 -20 13 -3 9 -8 9 -18 -2 -9 -9
-10 -11 -1 -7 21 12 27 -24 6 -42 -14 -14 -16 -14 -6 -1 10 13 8 18 -11 27
-42 21 -62 19 -65 -7 -3 -19 -6 -21 -13 -10 -8 12 -10 12 -19 -1 -10 -15 -13
-8 -11 20 1 12 -12 15 -61 15 -40 0 -66 -5 -71 -12 -4 -7 -19 -13 -32 -13 -13
0 -27 -4 -30 -10 -4 -6 1 -7 11 -3 11 4 15 2 12 -7 -7 -23 -26 -22 -33 2 -9
30 -35 59 -46 52 -15 -9 -10 -33 25 -107 18 -40 39 -89 45 -110 8 -22 17 -34
23 -31 7 4 8 2 4 -5 -4 -6 -1 -18 6 -25 7 -8 28 -39 47 -70 18 -31 37 -56 42
-56 5 0 9 -5 9 -11 0 -14 45 -75 87 -119 19 -19 60 -62 91 -96 155 -165 376
-308 618 -400 34 -13 120 -35 190 -49 119 -25 142 -26 294 -21 175 6 250 13
263 26 15 14 -13 52 -34 47 -12 -3 -19 0 -19 8 0 7 -4 15 -9 17 -5 2 -7 17 -3
33 8 36 22 40 119 40 81 0 86 18 8 29 -25 3 -67 14 -93 25 -26 11 -81 32 -122
47 -84 31 -286 144 -370 207 -142 107 -343 313 -427 437 -19 28 -42 59 -51 69
-9 9 -30 40 -47 68 -16 27 -38 54 -49 59 -11 5 -31 29 -44 54 -17 31 -22 37
-18 18z m-417 -134 c-3 -3 -12 -4 -19 -1 -8 3 -5 6 6 6 11 1 17 -2 13 -5z
m-57 -14 c0 -5 -4 -10 -10 -10 -5 0 -10 5 -10 10 0 6 5 10 10 10 6 0 10 -4 10
-10z m1547 -882 c-3 -8 -6 -5 -6 6 -1 11 2 17 5 13 3 -3 4 -12 1 -19z"/>
<path d="M33672 17800 c-413 -8 -445 -11 -502 -40 -125 -65 -166 -192 -158
-495 7 -235 33 -297 151 -354 110 -53 189 -55 2852 -55 2817 -1 2804 -1 2936
83 36 22 54 44 78 93 l31 63 -2 250 c-3 239 -4 250 -23 259 -11 5 -36 28 -55
52 -45 54 -108 82 -204 91 -42 3 -73 10 -70 14 3 5 42 9 87 10 67 1 77 2 52
10 -16 6 -205 13 -420 18 -502 10 -4238 10 -4753 1z m4785 -36 c-3 -3 -12 -4
-19 -1 -8 3 -5 6 6 6 11 1 17 -2 13 -5z"/>
<path d="M15712 17437 c-21 -50 -15 -166 12 -222 68 -146 519 -487 836 -633
218 -100 346 -125 612 -120 l193 3 79 35 c92 40 114 67 34 39 -171 -59 -413
22 -758 253 -316 212 -359 243 -465 341 -11 10 -56 47 -100 81 -44 35 -99 82
-121 105 -23 22 -50 41 -60 42 -11 0 -59 1 -107 2 -85 2 -90 3 -113 32 -13 16
-25 38 -27 50 -3 18 -5 17 -15 -8z"/>
<path d="M17569 16590 c-13 -10 -19 -19 -13 -20 6 0 19 9 29 20 23 26 14 26
-16 0z"/>
<path d="M32194 15530 c-13 -13 -240 -18 -1144 -25 -750 -6 -840 -8 -1137 -27
-29 -2 -43 -8 -43 -17 0 -10 -3 -11 -14 -2 -10 9 -16 9 -21 1 -5 -8 -11 -8
-20 0 -7 6 -19 8 -26 5 -32 -12 -105 -15 -519 -20 -239 -3 -545 -7 -680 -10
-135 -3 -530 -5 -879 -5 -349 0 -632 -3 -629 -6 11 -10 885 -17 3738 -29 685
-3 1277 -8 1315 -11 92 -8 99 0 90 91 -7 65 -12 74 -31 55z"/>
<path d="M34199 15456 c-3 -3 -178 -6 -390 -7 -538 -3 -663 -9 -720 -37 -138
-67 -176 -181 -167 -507 4 -139 7 -167 27 -212 28 -63 91 -124 152 -146 105
-40 284 -42 3159 -42 2433 0 2546 2 2645 46 65 29 109 71 136 131 23 51 24 61
23 298 0 229 -2 248 -22 291 -25 54 -59 89 -50 52 6 -21 4 -21 -31 6 -44 35
-89 50 -179 61 l-67 7 88 2 c83 1 108 10 70 26 -10 4 -92 11 -183 16 -177 10
-4481 25 -4491 15z"/>
<path d="M26248 15423 c6 -2 18 -2 25 0 6 3 1 5 -13 5 -14 0 -19 -2 -12 -5z"/>
<path d="M26348 15423 c7 -3 16 -2 19 1 4 3 -2 6 -13 5 -11 0 -14 -3 -6 -6z"/>
<path d="M26678 15423 c7 -3 16 -2 19 1 4 3 -2 6 -13 5 -11 0 -14 -3 -6 -6z"/>
<path d="M26898 15423 c34 -2 88 -2 120 0 31 2 3 3 -63 3 -66 0 -92 -1 -57 -3z"/>
<path d="M40620 15256 c0 -15 -47 -29 -92 -28 -16 0 -28 -4 -28 -9 0 -5 -11
-9 -23 -9 -13 0 -32 -9 -43 -21 -16 -18 -19 -36 -18 -127 2 -126 30 -222 90
-303 46 -64 127 -103 240 -118 44 -6 331 -13 639 -16 308 -3 720 -7 915 -10
195 -3 733 -5 1195 -6 528 0 855 -5 880 -11 28 -7 40 -7 43 1 3 8 162 11 547
11 l544 0 283 40 c245 35 382 60 393 72 2 2 -231 3 -518 3 -569 0 -2723 12
-3682 20 -353 3 -633 10 -680 17 -104 14 -178 51 -242 121 -76 84 -124 190
-150 332 -7 39 -32 60 -47 40 -13 -17 -72 -33 -62 -17 4 6 -2 8 -14 5 -11 -3
-26 0 -34 6 -10 8 -17 6 -31 -9 -14 -15 -21 -17 -31 -9 -8 6 -21 9 -29 5 -13
-4 -14 -2 -5 14 9 18 8 20 -15 20 -15 0 -25 -6 -25 -14z"/>
<path d="M31928 13960 c-81 -3 -150 -9 -154 -13 -4 -4 2 -7 13 -7 12 0 23 -8
26 -20 4 -16 0 -20 -19 -20 -16 0 -24 -6 -24 -17 0 -14 -2 -14 -20 2 -17 16
-20 16 -15 3 7 -18 -30 -32 -115 -42 -49 -6 -162 -34 -144 -35 21 -2 23 -27 3
-29 -42 -4 -47 -6 -42 -19 7 -18 -7 -16 -29 4 -16 15 -18 15 -13 1 4 -9 2 -19
-4 -23 -6 -3 -14 1 -17 9 -7 19 -44 22 -44 4 0 -21 -64 -58 -99 -58 -25 0 -34
-5 -38 -21 l-6 -20 -22 21 c-17 16 -25 18 -30 9 -5 -8 -4 -10 3 -5 7 4 12 1
12 -8 0 -9 -6 -16 -14 -16 -8 0 -21 -9 -29 -20 -8 -11 -28 -23 -45 -26 -21 -4
-32 -13 -35 -28 -4 -20 -4 -20 -6 2 0 13 -7 22 -17 22 -10 0 -14 -7 -12 -22 2
-17 -3 -24 -19 -26 -23 -3 -27 -11 -23 -45 1 -15 -3 -17 -18 -13 -11 4 -23 2
-26 -3 -4 -6 -12 -9 -19 -7 -7 1 -8 1 -4 -2 4 -2 3 -9 -2 -16 -6 -7 -11 -27
-13 -44 -1 -21 -6 -28 -12 -22 -16 16 -26 12 -26 -9 0 -11 -5 -23 -10 -26 -6
-4 -8 -11 -5 -16 3 -5 -1 -6 -10 -2 -13 5 -14 7 -3 14 8 5 9 9 2 9 -17 0 -37
-27 -29 -40 3 -5 -1 -10 -9 -10 -9 0 -16 -5 -16 -11 0 -5 -4 -7 -10 -4 -5 3
-10 -3 -10 -14 0 -12 -7 -21 -15 -21 -8 0 -15 -7 -15 -16 0 -9 -5 -13 -12 -9
-7 4 -5 0 4 -7 11 -10 14 -19 7 -29 -7 -11 -9 -11 -9 4 0 27 -27 20 -34 -9 -5
-19 -11 -24 -25 -19 -14 4 -20 -1 -25 -20 -4 -14 -12 -25 -20 -25 -7 0 -14
-10 -14 -22 -2 -40 -8 -62 -20 -66 -7 -2 -12 2 -12 10 0 8 -5 6 -11 -5 -8 -14
-14 -16 -25 -6 -11 9 -14 8 -14 -5 0 -9 8 -16 17 -16 14 0 14 -3 5 -12 -10
-10 -15 -10 -22 2 -5 8 -18 16 -29 16 -16 1 -18 -2 -11 -17 5 -9 15 -20 22
-22 10 -4 10 -6 0 -6 -7 -1 -11 -5 -8 -10 3 -4 -6 -6 -19 -3 -14 2 -25 9 -25
14 0 5 -7 2 -16 -7 -15 -15 -27 -14 -71 2 -7 3 -10 -2 -7 -14 6 -21 -31 -73
-49 -72 -8 0 -8 2 1 6 6 2 12 9 12 15 0 6 7 16 16 22 13 10 13 12 -6 12 -13 0
-23 -8 -27 -24 -4 -16 -11 -21 -22 -18 -13 5 -13 4 2 -8 9 -7 17 -22 18 -32 0
-18 1 -18 8 0 7 19 8 19 13 -1 3 -11 2 -27 -3 -34 -6 -10 -9 -11 -9 -1 0 6
-11 12 -25 12 -19 0 -24 -5 -22 -21 1 -12 -4 -23 -11 -25 -7 -1 -8 0 -2 3 13
6 13 23 1 23 -5 0 -12 -9 -16 -19 -3 -11 -16 -22 -28 -24 -22 -4 -22 -4 1 -6
18 -1 23 -6 20 -23 -2 -17 -9 -22 -26 -20 -18 1 -23 -2 -20 -15 2 -10 10 -17
18 -15 11 3 11 0 1 -12 -7 -9 -11 -23 -7 -31 3 -10 2 -13 -5 -10 -5 4 -9 16
-7 28 2 14 -3 23 -13 25 -21 4 -34 -28 -17 -40 9 -6 5 -7 -9 -3 -14 4 -23 2
-23 -5 0 -7 -8 -9 -21 -5 -17 6 -20 3 -17 -12 2 -11 11 -17 23 -15 17 2 17 1
5 -7 -8 -6 -23 -11 -32 -11 -13 0 -17 -8 -16 -33 1 -22 -8 -47 -27 -73 -15
-21 -25 -31 -22 -22 4 12 2 15 -8 12 -20 -8 -23 -37 -6 -50 9 -7 11 -16 5 -25
-5 -8 -9 -18 -9 -24 0 -5 -4 -10 -10 -10 -5 0 -9 7 -8 17 2 16 -23 45 -32 36
-3 -3 1 -18 10 -34 19 -38 19 -37 -11 -68 -22 -21 -24 -28 -14 -41 7 -9 10
-18 6 -22 -3 -3 -6 -1 -6 5 0 7 -7 12 -15 12 -9 0 -12 -6 -9 -15 11 -28 -6
-85 -24 -85 -14 0 -15 2 -2 10 12 7 10 9 -7 7 -14 -1 -19 -5 -14 -12 12 -16
21 -45 13 -44 -26 4 -52 -3 -52 -14 0 -8 -9 -22 -19 -31 -18 -17 -19 -17 -24
1 -3 10 -3 -2 0 -27 3 -36 2 -41 -7 -27 -14 21 -31 23 -23 1 5 -13 2 -15 -15
-9 -22 7 -29 -3 -13 -20 10 -12 20 -75 14 -92 -3 -7 -12 -13 -21 -14 -12 0
-10 -3 6 -10 13 -5 23 -16 21 -26 -3 -32 1 -41 19 -46 13 -4 12 -5 -5 -6 -12
0 -23 -7 -26 -13 -3 -10 -7 -10 -18 -1 -11 9 -19 7 -36 -7 -27 -21 -29 -30 -7
-30 9 0 14 -6 11 -12 -2 -7 -9 -12 -15 -11 -6 2 -9 -4 -6 -12 4 -8 12 -15 20
-15 17 0 17 -1 1 -34 -8 -14 -17 -23 -20 -20 -3 3 -14 1 -24 -6 -17 -11 -17
-11 1 -6 17 6 18 5 3 -17 -10 -16 -12 -28 -6 -34 6 -6 11 -21 12 -34 0 -13 6
-27 12 -31 9 -7 -25 -13 -48 -9 -4 1 -3 -8 3 -18 7 -14 7 -22 -2 -27 -6 -4 -8
-3 -5 3 6 10 -28 11 -39 1 -12 -13 7 -30 21 -18 9 8 14 6 17 -8 5 -16 1 -19
-22 -16 -21 3 -29 -2 -33 -17 -5 -17 -2 -20 14 -16 12 3 19 0 19 -9 0 -8 10
-19 23 -23 19 -8 20 -10 5 -16 -9 -4 -22 -4 -28 0 -6 3 -10 -3 -10 -15 0 -14
4 -19 13 -14 9 6 9 4 -1 -8 -11 -14 -10 -18 7 -27 16 -9 22 -8 31 6 11 17 11
17 6 0 -3 -10 -6 -23 -6 -29 0 -6 -6 -6 -15 2 -11 9 -20 8 -45 -10 -32 -23
-32 -40 1 -40 11 0 18 4 14 9 -7 13 12 24 27 15 8 -5 6 -11 -6 -19 -9 -7 -19
-23 -21 -35 -2 -12 -10 -29 -17 -39 -12 -14 -11 -15 5 -2 16 13 17 11 15 -16
-2 -25 -6 -29 -23 -26 -18 4 -18 3 4 -17 23 -20 24 -23 11 -58 -9 -26 -10 -37
-1 -40 20 -7 12 -40 -16 -62 -16 -12 -20 -19 -11 -16 21 6 74 -19 82 -39 8
-21 -7 -19 -37 5 -18 15 -28 17 -33 9 -4 -8 -3 -9 4 -5 7 4 12 1 12 -8 0 -8
-5 -18 -11 -21 -6 -4 -8 -13 -5 -20 3 -8 0 -16 -7 -18 -9 -3 -9 -8 1 -18 11
-12 14 -12 22 1 7 11 9 10 7 -7 -1 -18 -6 -21 -27 -17 l-25 5 23 -20 c14 -12
19 -22 12 -26 -6 -4 -14 -4 -17 -1 -3 3 -12 1 -20 -6 -10 -8 -17 -8 -26 1 -9
10 -9 11 3 8 8 -2 12 -2 8 0 -4 2 -5 10 -2 18 9 22 -11 25 -29 4 -9 -10 -13
-19 -9 -19 4 0 12 -11 19 -25 6 -14 7 -23 2 -19 -5 3 -9 -2 -9 -10 0 -9 7 -16
15 -16 8 0 15 -4 15 -10 0 -5 9 -10 20 -10 25 0 25 -5 1 -31 -11 -12 -24 -18
-30 -14 -6 3 -11 -1 -11 -9 0 -9 -7 -16 -15 -16 -22 0 -18 -25 8 -44 12 -9 17
-14 11 -12 -7 3 -15 -1 -18 -10 -3 -8 -10 -13 -14 -10 -5 3 -7 -16 -4 -42 2
-26 11 -51 18 -55 18 -11 18 -27 -1 -27 -15 0 -37 -33 -42 -65 -4 -20 -4 -20
11 0 13 17 15 18 16 3 0 -9 -9 -20 -20 -23 -25 -8 -25 -16 -2 -41 20 -22 27
-84 9 -84 -7 0 -6 -4 3 -10 12 -8 13 -13 2 -30 -10 -17 -10 -20 4 -20 9 0 14
-6 11 -12 -2 -7 -9 -12 -14 -11 -13 3 -13 -29 0 -45 8 -10 7 -12 -4 -10 -8 2
-13 -4 -13 -14 1 -10 -2 -18 -6 -18 -13 0 -18 -36 -8 -55 7 -12 7 -20 -1 -25
-7 -4 -13 -21 -13 -38 -1 -24 -6 -32 -27 -38 -45 -12 -65 -15 -101 -14 -29 0
-32 -1 -18 -12 20 -16 34 -58 19 -58 -6 0 -11 9 -11 20 0 13 -7 20 -20 20 -11
0 -20 -5 -20 -11 0 -5 6 -7 13 -3 6 4 3 -2 -7 -14 -23 -27 -36 -28 -37 -4 0
13 -2 14 -6 2 -19 -47 -64 -58 -250 -62 -62 -2 -113 -6 -113 -10 0 -5 -7 -8
-15 -8 -8 0 -15 -6 -15 -14 0 -19 -26 -40 -35 -26 -3 5 -1 10 6 10 7 0 9 3 6
6 -4 4 -13 1 -21 -5 -8 -7 -20 -10 -27 -6 -6 4 -15 1 -20 -6 -7 -11 -93 -15
-471 -19 -255 -3 -632 -3 -838 1 -257 3 -377 2 -383 -5 -4 -6 -6 -24 -5 -41
l3 -30 2351 -3 2352 -2 33 -38 c60 -69 293 -315 444 -467 160 -162 216 -203
345 -249 39 -15 93 -26 120 -26 71 0 102 23 399 290 58 52 131 116 162 142 75
63 724 718 835 843 432 485 691 877 812 1230 36 105 71 276 83 405 14 158 7
250 -36 455 -5 21 -4 26 3 16 8 -11 25 -12 74 -7 34 4 113 11 173 16 65 5
1518 10 3550 11 1892 1 3757 6 4145 10 940 11 989 17 1066 133 36 55 37 57 46
198 5 79 6 199 3 267 -6 106 -11 132 -33 178 -14 29 -30 53 -34 53 -11 0 -10
-7 3 -33 10 -19 8 -19 -17 5 -37 35 -110 67 -154 69 -28 1 -24 3 19 9 30 5 61
6 70 3 14 -5 14 -4 1 9 -8 9 -31 21 -50 27 -117 39 -1175 50 -4175 45 -1298
-3 -2682 -7 -3075 -9 -393 -2 -1244 -7 -1890 -10 -1483 -7 -1540 -8 -1623 -45
-96 -43 -142 -128 -151 -281 -14 -221 -12 -213 -73 -279 l-54 -59 -72 54 c-40
30 -75 55 -79 55 -4 0 -15 -17 -23 -37 -15 -35 -14 -41 3 -83 31 -75 8 -94
-45 -37 -45 47 -138 178 -160 222 -10 22 -43 59 -73 83 -30 25 -64 58 -74 75
-11 16 -33 35 -50 43 -17 7 -24 13 -16 14 8 0 32 -9 53 -20 21 -11 43 -18 48
-14 8 4 9 119 5 363 -3 196 -6 447 -6 559 l0 203 -72 -3 c-40 -1 -139 -5 -220
-8z m-863 -380 c-3 -5 -12 -10 -18 -10 -7 0 -6 4 3 10 19 12 23 12 15 0z
m-140 -100 c3 -6 -1 -13 -10 -16 -19 -8 -30 0 -20 15 8 14 22 14 30 1z m-315
-405 c0 -5 -5 -3 -10 5 -5 8 -10 20 -10 25 0 6 5 3 10 -5 5 -8 10 -19 10 -25z
m3290 -90 l25 -15 -30 6 c-16 4 -39 11 -50 15 -18 7 -18 8 5 8 14 0 36 -6 50
-14z m-3470 -10 c10 -12 10 -15 -4 -15 -9 0 -16 7 -16 15 0 8 2 15 4 15 2 0 9
-7 16 -15z m3670 -55 c217 -89 437 -239 543 -369 33 -41 34 -49 5 -53 -27 -4
-38 -38 -13 -38 10 0 15 -7 13 -17 -5 -26 -25 -26 -32 -1 -5 19 -8 20 -16 8
-14 -21 -12 -52 4 -75 27 -40 41 -157 41 -340 0 -157 -3 -192 -23 -270 -13
-49 -33 -103 -44 -120 l-19 -30 5 45 c3 25 9 128 12 230 7 208 -4 294 -58 450
-38 108 -57 145 -125 247 -30 45 -52 87 -48 92 6 11 12 7 51 -28 8 -7 18 -11
21 -8 3 4 -18 29 -47 57 -28 27 -48 50 -43 50 4 0 -2 6 -13 13 -12 6 -55 35
-95 62 -74 51 -140 86 -234 125 -44 18 -46 20 -15 15 19 -3 78 -23 130 -45z
m-2553 -6 c-3 -3 -12 -4 -19 -1 -8 3 -5 6 6 6 11 1 17 -2 13 -5z m480 0 c-3
-3 -12 -4 -19 -1 -8 3 -5 6 6 6 11 1 17 -2 13 -5z m-1977 -410 c0 -8 -19 -13
-24 -6 -3 5 1 9 9 9 8 0 15 -2 15 -3z m3248 -81 c105 -30 272 -110 356 -171
112 -82 215 -193 260 -282 109 -215 111 -515 5 -773 -139 -336 -431 -717 -885
-1154 -223 -214 -271 -256 -320 -279 -19 -9 -34 -23 -34 -30 0 -8 -6 -14 -14
-14 -8 0 -21 -8 -28 -17 -7 -10 -24 -20 -38 -21 -14 -2 -29 -10 -33 -18 -5 -8
-12 -12 -16 -10 -4 3 -17 -3 -27 -12 -10 -10 -27 -16 -36 -14 -9 2 -21 -5 -27
-16 -6 -12 -21 -19 -40 -20 -16 0 -38 -5 -49 -11 -32 -17 -192 -16 -232 2 -57
25 -459 444 -649 676 -137 168 -172 214 -277 373 -93 139 -244 412 -244 440 0
5 -6 24 -14 41 -8 18 -24 68 -36 112 -58 225 -36 485 59 674 51 102 80 143
157 224 171 179 401 287 612 287 199 0 431 -103 617 -273 l60 -55 77 83 c73
78 205 178 293 223 42 21 159 57 210 65 61 10 208 -5 293 -30z m-3457 -302
c-12 -12 -17 -13 -19 -4 -6 21 -19 15 -26 -12 -4 -17 -11 -22 -22 -18 -24 9
20 50 55 50 25 0 26 -2 12 -16z m-1 -46 c0 -8 -9 -19 -20 -25 -23 -12 -25 -8
-8 20 15 24 28 26 28 5z m-86 -51 c3 -8 2 -12 -4 -9 -6 3 -10 10 -10 16 0 14
7 11 14 -7z m33 -6 c-3 -8 -6 -5 -6 6 -1 11 2 17 5 13 3 -3 4 -12 1 -19z m-47
-18 c0 -5 -4 -10 -9 -10 -6 0 -13 5 -16 10 -3 6 1 10 9 10 9 0 16 -4 16 -10z
m-104 -377 c-10 -10 -19 5 -10 18 6 11 8 11 12 0 2 -7 1 -15 -2 -18z m-21
-139 c20 -15 20 -16 -4 -12 -14 2 -26 9 -29 16 -5 16 9 15 33 -4z m-15 -404
c0 -5 -4 -10 -10 -10 -5 0 -10 5 -10 10 0 6 5 10 10 10 6 0 10 -4 10 -10z
m-10 -67 c-1 -26 -14 -53 -27 -53 -12 0 -12 3 2 16 9 9 14 23 11 30 -3 8 -1
14 4 14 6 0 10 -3 10 -7z m-22 -146 c2 -9 -3 -17 -10 -17 -8 0 -14 9 -14 20 0
24 20 21 24 -3z m-107 -90 c-10 -9 -11 -8 -5 6 3 10 9 15 12 12 3 -3 0 -11 -7
-18z m133 -6 c3 -4 -6 -6 -19 -3 -14 2 -25 6 -25 8 0 8 39 4 44 -5z m-44 -21
c0 -5 -4 -10 -10 -10 -5 0 -10 5 -10 10 0 6 5 10 10 10 6 0 10 -4 10 -10z
m-22 -34 c-7 -8 -16 -12 -21 -9 -11 7 2 23 19 23 12 0 12 -2 2 -14z m-348
-956 c0 -4 -9 -6 -21 -3 -15 4 -17 8 -8 14 14 8 29 3 29 -11z"/>
<path d="M31078 13653 c7 -3 16 -2 19 1 4 3 -2 6 -13 5 -11 0 -14 -3 -6 -6z"/>
<path d="M13628 13463 c6 -2 18 -2 25 0 6 3 1 5 -13 5 -14 0 -19 -2 -12 -5z"/>
<path d="M13605 13418 c-15 -31 -36 -104 -55 -195 -5 -23 -16 -107 -25 -187
-15 -135 -15 -158 0 -289 9 -78 20 -160 25 -182 19 -88 41 -172 54 -200 8 -16
17 -41 21 -55 19 -64 141 -296 187 -355 65 -85 169 -203 219 -250 158 -149
349 -269 559 -349 52 -20 104 -41 115 -46 32 -15 139 -49 143 -45 4 3 -94 49
-128 60 -12 4 -56 27 -98 52 -432 255 -728 659 -831 1134 -45 211 -51 466 -15
722 10 76 12 113 5 121 -6 7 -9 15 -6 17 2 3 -7 6 -21 7 -14 1 -36 14 -49 28
-15 16 -25 21 -25 13 0 -8 -7 -4 -16 9 -21 31 -40 28 -59 -10z"/>
<path d="M30646 13253 c-6 -14 -5 -15 5 -6 7 7 10 15 7 18 -3 3 -9 -2 -12 -12z"/>
<path d="M30540 13130 c0 -5 5 -10 10 -10 6 0 10 5 10 10 0 6 -4 10 -10 10 -5
0 -10 -4 -10 -10z"/>
<path d="M29886 12381 c-19 -7 -19 -8 0 -13 13 -3 21 0 21 8 0 8 -1 14 -1 13
-1 0 -10 -4 -20 -8z"/>
<path d="M29808 12173 c7 -3 16 -2 19 1 4 3 -2 6 -13 5 -11 0 -14 -3 -6 -6z"/>
<path d="M29739 12153 c-13 -16 -12 -17 4 -4 9 7 17 15 17 17 0 8 -8 3 -21
-13z"/>
<path d="M29635 11894 c-20 -16 -20 -16 2 -10 17 6 22 2 26 -16 3 -17 5 -15 6
10 1 36 -5 39 -34 16z"/>
<path d="M29685 11861 c-3 -5 -1 -12 5 -16 5 -3 10 1 10 9 0 18 -6 21 -15 7z"/>
<path d="M29541 11744 c0 -11 3 -14 6 -6 3 7 2 16 -1 19 -3 4 -6 -2 -5 -13z"/>
<path d="M29568 11602 c-12 -5 -14 -12 -9 -21 7 -11 11 -9 20 8 7 11 10 21 9
20 -2 0 -11 -3 -20 -7z"/>
<path d="M29495 11539 c-4 -6 -4 -13 -1 -16 3 -4 6 -1 6 6 0 7 5 9 12 5 7 -4
8 -3 4 4 -9 15 -13 15 -21 1z"/>
<path d="M29492 11334 c2 -9 12 -20 24 -24 18 -7 20 -5 16 16 -3 16 -11 24
-24 24 -13 0 -18 -6 -16 -16z"/>
<path d="M15014 11067 c1 -78 -1 -174 -4 -212 l-5 -70 -145 -12 c-196 -15
-394 -41 -455 -58 -27 -7 -47 -14 -42 -14 4 -1 103 8 220 19 116 11 334 27
482 35 224 13 341 23 420 36 6 1 -6 5 -25 8 -19 4 -112 5 -207 3 l-172 -5 2
49 c0 27 -3 58 -8 68 -7 15 -5 17 6 11 11 -7 12 -6 3 6 -11 14 -26 88 -28 141
0 14 -4 29 -8 33 -4 4 -5 20 -1 35 4 20 -1 35 -14 49 -19 21 -19 20 -19 -122z"/>
<path d="M15079 11184 c18 -8 36 -12 39 -9 10 10 -21 25 -48 24 -23 -1 -22 -2
9 -15z"/>
<path d="M38714 10508 c-3 -4 -4 -1381 -2 -3060 2 -1679 -1 -3246 -5 -3483
-13 -716 -27 -1189 -42 -1400 -7 -110 -17 -245 -20 -300 -15 -222 -65 -561
-112 -750 -124 -504 -387 -781 -899 -951 -291 -96 -610 -141 -1094 -154 -356
-9 -13771 -4 -13990 5 -777 35 -1305 192 -1622 485 -369 339 -488 964 -514
2690 -3 239 -7 453 -8 475 l-1 40 -220 0 -220 0 3 -310 c3 -379 19 -938 32
-1151 24 -375 31 -471 50 -635 90 -798 242 -1188 570 -1463 348 -292 849 -447
1640 -508 240 -19 14488 -19 14725 0 780 61 1289 241 1611 568 393 400 515
1054 555 2984 8 369 12 1670 13 3745 l1 3180 -223 0 c-123 1 -226 -3 -228 -7z"/>
<path d="M36975 10499 c-553 -29 -737 -98 -1011 -380 -124 -128 -409 -492
-399 -509 5 -8 528 7 665 19 144 13 207 24 305 53 350 104 686 329 910 608 83
103 147 199 139 211 -6 10 -403 9 -609 -2z"/>
<path d="M19863 10293 c9 -2 23 -2 30 0 6 3 -1 5 -18 5 -16 0 -22 -2 -12 -5z"/>
<path d="M20650 10286 c0 -2 7 -6 15 -10 8 -3 15 -1 15 4 0 6 -7 10 -15 10 -8
0 -15 -2 -15 -4z"/>
<path d="M20733 10273 c15 -2 39 -2 55 0 15 2 2 4 -28 4 -30 0 -43 -2 -27 -4z"/>
<path d="M20828 10273 c7 -3 16 -2 19 1 4 3 -2 6 -13 5 -11 0 -14 -3 -6 -6z"/>
<path d="M21003 10273 c9 -2 23 -2 30 0 6 3 -1 5 -18 5 -16 0 -22 -2 -12 -5z"/>
<path d="M21103 10273 c9 -2 23 -2 30 0 6 3 -1 5 -18 5 -16 0 -22 -2 -12 -5z"/>
<path d="M21218 10273 c23 -2 61 -2 85 0 23 2 4 4 -43 4 -47 0 -66 -2 -42 -4z"/>
<path d="M21358 10273 c7 -3 16 -2 19 1 4 3 -2 6 -13 5 -11 0 -14 -3 -6 -6z"/>
<path d="M21493 10273 c9 -2 23 -2 30 0 6 3 -1 5 -18 5 -16 0 -22 -2 -12 -5z"/>
<path d="M21588 10273 c23 -2 61 -2 85 0 23 2 4 4 -43 4 -47 0 -66 -2 -42 -4z"/>
<path d="M21838 10273 c6 -2 18 -2 25 0 6 3 1 5 -13 5 -14 0 -19 -2 -12 -5z"/>
<path d="M21898 10273 c12 -2 32 -2 45 0 12 2 2 4 -23 4 -25 0 -35 -2 -22 -4z"/>
<path d="M22148 10273 c17 -2 47 -2 65 0 17 2 3 4 -33 4 -36 0 -50 -2 -32 -4z"/>
<path d="M22313 10273 c15 -2 37 -2 50 0 12 2 0 4 -28 4 -27 0 -38 -2 -22 -4z"/>
<path d="M22453 10273 c37 -2 97 -2 135 0 37 2 6 3 -68 3 -74 0 -105 -1 -67
-3z"/>
<path d="M22678 10273 c12 -2 32 -2 45 0 12 2 2 4 -23 4 -25 0 -35 -2 -22 -4z"/>
<path d="M22798 10273 c23 -2 59 -2 80 0 20 2 1 4 -43 4 -44 0 -61 -2 -37 -4z"/>
<path d="M23313 10273 c15 -2 37 -2 50 0 12 2 0 4 -28 4 -27 0 -38 -2 -22 -4z"/>
<path d="M23478 10273 c7 -3 16 -2 19 1 4 3 -2 6 -13 5 -11 0 -14 -3 -6 -6z"/>
<path d="M23553 10273 c9 -2 23 -2 30 0 6 3 -1 5 -18 5 -16 0 -22 -2 -12 -5z"/>
<path d="M23843 10273 c37 -2 96 -2 130 0 34 2 4 3 -68 3 -71 0 -99 -1 -62 -3z"/>
<path d="M24158 10273 c12 -2 30 -2 40 0 9 3 -1 5 -23 4 -22 0 -30 -2 -17 -4z"/>
<path d="M24578 10273 c7 -3 16 -2 19 1 4 3 -2 6 -13 5 -11 0 -14 -3 -6 -6z"/>
<path d="M24638 10273 c18 -2 45 -2 60 0 15 2 0 4 -33 4 -33 0 -45 -2 -27 -4z"/>
<path d="M24838 10273 c23 -2 59 -2 80 0 20 2 1 4 -43 4 -44 0 -61 -2 -37 -4z"/>
<path d="M29390 10230 c0 -5 5 -10 11 -10 5 0 7 5 4 10 -3 6 -8 10 -11 10 -2
0 -4 -4 -4 -10z"/>
<path d="M29400 10170 c0 -5 5 -10 10 -10 6 0 10 5 10 10 0 6 -4 10 -10 10 -5
0 -10 -4 -10 -10z"/>
<path d="M12213 8886 c3 -8 1 -17 -6 -19 -7 -2 -9 -8 -5 -12 4 -4 11 -4 17 0
14 8 14 45 0 45 -6 0 -9 -6 -6 -14z"/>
<path d="M12180 8816 c-5 -15 -10 -33 -10 -41 0 -8 -4 -16 -9 -19 -5 -3 -18
-45 -29 -93 -83 -347 -90 -570 -24 -766 28 -82 34 -92 105 -160 104 -100 162
-142 243 -172 65 -25 79 -27 234 -26 91 0 212 5 270 11 58 5 204 16 325 24
121 9 267 20 325 26 58 6 204 18 325 26 121 7 240 16 265 19 25 3 139 12 254
20 114 7 211 17 215 20 8 10 -109 2 -1059 -70 -804 -60 -908 -67 -981 -61
-102 8 -164 31 -224 82 -118 100 -166 350 -130 684 11 99 15 128 31 210 19
100 19 132 -1 170 -8 16 -11 31 -6 34 5 3 11 -8 15 -24 3 -17 10 -30 16 -30
14 0 3 39 -17 61 -10 12 -11 18 -3 21 6 2 8 11 4 21 -7 20 -31 17 -26 -4 2 -8
0 -10 -5 -6 -8 9 -9 13 -12 42 0 8 -7 12 -15 9 -8 -3 -17 -1 -21 5 -3 6 -12
11 -18 11 -7 0 -6 -4 3 -10 8 -5 10 -10 5 -10 -6 0 -16 5 -23 12 -8 8 -14 5
-22 -16z"/>
<path d="M30253 8380 c-1246 -4 -1635 -8 -1644 -17 -9 -9 -7 -11 10 -6 11 3
28 0 35 -7 8 -6 54 -13 104 -14 48 -2 99 -9 111 -16 19 -10 22 -10 15 2 -6 10
-4 10 10 -1 14 -12 19 -12 26 -2 6 11 8 11 12 1 2 -7 16 -14 31 -16 15 -1 53
-5 85 -9 68 -7 141 -22 127 -26 -5 -1 -37 -3 -70 -4 -208 -5 -295 -10 -295
-16 0 -4 -30 -7 -67 -8 -83 -1 -196 -12 -189 -18 2 -3 91 -6 198 -8 106 -2
299 -6 428 -10 129 -3 370 -8 535 -12 165 -3 311 -7 325 -8 14 -1 31 -3 38 -4
7 0 10 -6 6 -12 -5 -8 -2 -9 11 -2 22 13 57 5 48 -11 -4 -6 0 -5 9 2 21 17 75
19 90 4 9 -9 7 -12 -8 -12 -16 0 -17 -2 -4 -10 12 -8 11 -10 -6 -10 -17 0 -20
-5 -16 -26 4 -23 8 -25 36 -19 17 4 36 7 43 8 6 0 8 7 5 16 -4 10 -7 11 -10 3
-4 -14 -42 -16 -42 -2 0 6 9 10 20 10 11 0 20 5 20 12 0 6 6 4 13 -7 8 -10 19
-15 25 -11 16 10 25 -13 12 -29 -6 -8 -9 -19 -5 -25 10 -16 -22 -12 -39 5 -17
17 -33 19 -38 5 -2 -6 -18 -4 -41 4 -20 7 -34 16 -30 19 3 4 2 7 -4 7 -17 0
-25 -32 -11 -42 7 -4 -16 -7 -54 -6 -54 1 -68 5 -69 17 0 14 -1 14 -6 1 -9
-24 -21 -28 -76 -25 -29 2 -46 1 -40 -2 8 -3 11 -14 7 -28 -3 -12 -1 -26 5
-29 16 -10 13 -20 -10 -34 -19 -12 -19 -11 -9 8 9 16 8 25 -1 36 -6 8 -8 14
-3 14 23 0 -18 22 -50 26 -31 4 -36 1 -36 -16 0 -12 -7 -20 -17 -20 -14 0 -13
-3 5 -16 21 -15 25 -15 43 2 10 9 19 24 19 32 0 9 2 13 5 10 11 -11 -7 -58
-22 -58 -10 0 -13 -6 -9 -17 6 -16 6 -16 -12 0 -10 9 -26 17 -35 17 -9 0 -17
7 -17 15 0 9 -9 15 -22 15 -19 0 -20 2 -8 10 13 9 13 11 0 20 -21 14 -28 12
-38 -6 -8 -15 -10 -15 -15 0 -5 12 -14 15 -32 10 -15 -4 -25 -2 -25 5 0 16
-17 13 -24 -5 -3 -8 -2 -12 4 -9 6 3 10 2 10 -3 0 -6 16 -13 35 -16 l36 -7
-22 -30 c-12 -17 -24 -28 -27 -25 -3 3 -11 1 -18 -5 -7 -6 -71 -13 -141 -15
-209 -8 -190 -4 -186 -41 2 -17 -2 -35 -8 -39 -7 -4 -9 -3 -5 4 3 6 1 23 -5
39 -9 24 -12 26 -22 13 -7 -8 -21 -17 -32 -18 -11 -2 -22 -6 -25 -9 -3 -3 5
-3 18 0 15 3 22 1 22 -10 0 -8 5 -11 13 -7 6 4 9 4 5 -1 -4 -4 -4 -13 1 -19
10 -12 0 -29 -37 -60 -19 -17 -22 -17 -16 -3 3 10 1 17 -5 17 -7 0 -6 9 4 24
12 18 13 26 4 32 -8 4 -9 3 -5 -4 4 -6 -2 -20 -14 -32 -11 -11 -15 -20 -8 -20
8 0 6 -7 -5 -17 -10 -10 -25 -18 -35 -18 -12 0 -17 -8 -17 -27 1 -16 -3 -28
-7 -28 -4 0 -8 4 -8 9 0 5 -6 11 -14 14 -20 8 -14 -23 8 -39 10 -7 24 -10 32
-7 8 3 14 0 14 -7 0 -7 -8 -10 -20 -7 -12 3 -20 0 -20 -6 1 -17 25 -47 39 -47
6 0 11 -7 11 -16 0 -8 4 -12 10 -9 6 3 7 -1 4 -10 -4 -8 0 -23 7 -32 12 -15
12 -16 -4 -10 -11 4 -25 1 -34 -9 -13 -12 -13 -15 -2 -13 18 3 52 -11 61 -25
5 -8 11 -7 20 2 16 16 31 15 25 -2 -4 -10 -1 -13 9 -9 7 3 14 0 14 -6 0 -8
-11 -10 -35 -5 -30 5 -34 4 -29 -10 4 -12 0 -16 -15 -16 -12 0 -21 5 -21 10 0
6 -4 10 -10 10 -18 0 -11 -18 9 -25 11 -3 22 -16 24 -28 4 -21 4 -21 6 -1 1
17 6 20 29 16 15 -2 34 -11 43 -18 9 -8 18 -12 20 -9 3 2 5 -8 6 -23 1 -17 -1
-21 -5 -12 -9 19 -42 23 -42 5 0 -7 9 -15 20 -18 11 -3 20 -12 20 -21 0 -9 7
-16 15 -16 23 0 -4 -39 -32 -46 -15 -4 -23 -14 -23 -28 1 -19 2 -19 11 -3 12
21 39 23 39 2 0 -8 -4 -15 -10 -15 -5 0 -10 -8 -10 -17 0 -14 3 -13 21 6 17
18 18 25 8 37 -16 20 14 54 42 47 23 -6 19 -29 -4 -27 -9 1 -14 -2 -11 -7 3
-5 12 -9 20 -9 8 0 14 -6 14 -12 0 -7 3 -24 6 -38 l6 -25 -26 28 c-14 15 -26
24 -26 19 0 -5 7 -15 15 -22 16 -13 16 -50 0 -63 -6 -5 -2 -6 9 -3 15 5 17 2
13 -13 -5 -19 19 -38 31 -26 3 3 0 5 -6 5 -18 0 -14 37 4 44 9 3 16 6 18 6 1
0 2 -18 3 -41 1 -33 -2 -42 -20 -49 -20 -9 -20 -10 -2 -9 51 3 55 0 44 -27 -9
-24 -8 -26 6 -14 9 7 15 9 14 4 -4 -20 2 -34 14 -34 6 0 18 -4 26 -9 13 -8 13
-12 1 -28 -8 -10 -2 -7 13 6 27 24 27 24 27 3 0 -11 -8 -25 -17 -31 -17 -9
-16 -11 4 -30 28 -27 42 -27 18 -1 -10 11 -15 23 -11 28 4 4 16 -4 27 -17 10
-13 19 -18 19 -12 0 6 7 11 15 11 8 0 15 5 15 12 0 6 3 8 6 5 4 -4 1 -14 -7
-23 -13 -16 -12 -16 9 -5 18 10 25 9 39 -4 12 -12 13 -19 4 -28 -8 -8 -11 -7
-11 6 0 9 -3 17 -7 17 -11 -1 -49 -30 -39 -30 5 0 1 -11 -8 -24 -12 -19 -13
-27 -4 -32 7 -4 14 -2 16 4 5 16 18 15 36 -4 15 -14 16 -13 16 15 0 24 4 31
20 31 11 0 20 -7 20 -16 0 -9 -5 -12 -12 -8 -7 4 -10 4 -6 -1 4 -4 3 -14 -2
-20 -7 -9 -6 -16 5 -25 22 -18 18 -37 -7 -35 -15 1 -22 8 -21 19 1 15 -3 14
-23 -5 -13 -12 -21 -25 -18 -28 3 -3 9 1 14 9 7 12 12 12 28 -3 10 -9 26 -17
35 -17 12 0 17 -8 17 -25 0 -14 6 -28 14 -31 8 -3 16 -19 20 -36 4 -20 10 -28
20 -25 10 4 12 0 8 -15 -3 -12 -1 -19 4 -15 19 11 32 -7 16 -23 -14 -13 -15
-12 -9 3 4 10 3 16 -2 13 -5 -3 -11 -16 -13 -29 -4 -20 -1 -23 16 -19 12 3 27
9 34 15 8 6 12 6 12 -1 0 -6 -6 -13 -12 -16 -10 -5 -10 -7 -1 -12 7 -3 9 -12
6 -20 -6 -16 1 -18 26 -5 13 7 17 5 17 -9 0 -10 -6 -16 -13 -13 -7 3 -16 -2
-19 -11 -9 -23 2 -31 21 -16 12 10 15 10 15 -3 0 -8 6 -18 13 -21 6 -3 -1 -3
-18 1 -16 3 -36 12 -42 21 -7 9 -13 11 -13 5 0 -6 7 -16 15 -23 8 -7 15 -18
15 -26 0 -7 4 -16 10 -19 6 -3 7 1 4 9 -3 9 -1 16 5 16 6 0 11 -7 11 -15 0 -8
7 -15 15 -15 12 0 11 -4 -5 -20 -23 -23 -28 -62 -6 -54 14 6 30 -22 20 -37 -5
-8 1 -11 35 -13 8 -1 16 -7 17 -14 1 -7 0 -8 -3 -2 -3 8 -9 7 -19 -1 -10 -8
-14 -8 -14 0 0 6 -4 11 -10 11 -5 0 -10 -4 -10 -10 0 -16 51 -24 72 -11 15 9
18 8 18 -9 0 -11 -6 -20 -14 -20 -28 0 -13 -42 21 -58 36 -17 43 -32 16 -32
-10 -1 -3 -7 16 -15 42 -19 39 -19 43 7 4 29 35 35 53 11 13 -17 14 -17 20 -1
4 10 11 15 17 12 5 -3 7 -12 4 -20 -3 -8 1 -14 9 -14 8 0 15 5 15 11 0 8 6 7
17 -2 13 -11 17 -11 20 -1 3 6 9 12 15 12 6 0 8 -7 4 -15 -3 -8 -4 -15 -1 -15
9 0 35 32 35 43 0 7 -4 6 -10 -3 -9 -13 -11 -13 -20 0 -5 9 -6 18 0 24 14 14
40 -12 37 -37 -1 -14 5 -23 18 -25 11 -2 24 -9 28 -16 6 -7 7 -6 5 4 -3 8 -15
17 -29 20 -16 4 -20 8 -11 14 6 4 17 4 22 1 6 -3 10 2 10 11 0 17 1 16 13 -1
15 -20 37 -13 37 12 0 9 6 13 14 10 8 -3 26 5 41 19 20 18 35 23 60 21 27 -3
32 -1 27 12 -3 9 -10 19 -16 23 -8 5 -7 8 1 8 7 0 16 -7 21 -15 7 -14 12 -12
35 11 22 22 29 24 42 14 8 -7 13 -15 11 -19 -3 -4 4 -7 14 -7 10 0 18 3 18 6
-3 36 4 50 26 50 20 0 23 4 18 28 -4 22 -2 25 9 15 15 -15 43 -17 34 -3 -4 6
7 10 25 10 27 0 30 3 25 21 -6 19 -5 20 16 9 21 -12 22 -11 16 23 -5 35 -5 35
24 27 38 -11 70 16 63 52 -4 21 -4 21 5 3 8 -18 9 -19 16 -2 4 10 18 17 32 17
16 0 27 7 30 20 3 11 13 20 23 20 9 0 22 11 28 24 9 20 16 24 41 20 25 -4 30
-1 33 17 2 12 10 24 18 26 13 4 13 3 0 -6 -9 -7 -10 -11 -3 -11 6 0 15 5 19
11 3 6 15 9 25 6 14 -4 19 0 19 14 0 10 7 19 15 19 8 0 15 7 15 16 0 8 5 12
10 9 17 -11 11 17 -7 32 -17 13 -17 13 2 5 28 -12 104 -15 86 -3 -13 8 -13 12
0 27 12 16 12 17 -1 9 -13 -8 -13 -7 -1 9 12 15 17 15 25 4 12 -15 66 -19 66
-5 0 5 7 7 15 3 8 -3 15 -2 15 2 0 4 23 20 50 36 27 16 47 33 44 37 -2 4 5 5
16 2 14 -4 19 -1 17 8 -2 8 -2 11 0 6 3 -4 10 -4 15 -1 7 4 8 2 4 -4 -4 -7 -1
-12 8 -12 8 0 17 13 21 30 7 31 25 42 25 15 0 -8 -5 -15 -11 -15 -5 0 -7 -5
-3 -12 5 -8 10 -6 19 5 8 11 19 14 35 10 15 -4 21 -2 17 4 -4 6 2 13 13 16 14
4 18 11 14 24 -3 10 -2 14 3 8 4 -5 18 -10 30 -11 15 0 23 7 27 27 3 15 13 29
25 32 11 3 19 0 18 -5 -4 -21 22 -18 43 4 17 18 23 20 30 9 6 -11 9 -9 12 8 1
12 6 20 10 19 4 -2 15 7 23 19 9 12 22 20 29 17 8 -3 20 3 27 13 15 20 27 22
48 9 9 -6 17 -3 23 8 5 9 20 16 34 16 13 0 27 7 30 15 4 8 10 12 15 9 5 -3 9
0 9 5 0 6 7 11 15 11 8 0 15 6 15 14 0 8 9 12 26 10 19 -2 24 1 20 12 -3 8 1
14 9 14 8 0 15 -8 15 -17 0 -15 2 -16 10 -3 19 30 12 48 -17 42 -16 -2 -25 -1
-21 3 4 4 28 7 53 7 32 -1 45 3 45 13 0 7 5 17 12 21 7 5 8 3 3 -7 -7 -11 -6
-12 6 -3 8 6 29 10 48 8 24 -1 30 1 20 8 -10 7 -8 8 10 5 17 -4 25 -1 28 14 7
24 20 25 26 2 4 -14 5 -12 6 5 1 25 4 26 32 11 27 -14 89 6 89 29 -1 15 -3 14
-15 -2 -8 -11 -15 -15 -15 -10 0 6 5 15 12 22 9 9 17 7 35 -10 20 -18 23 -19
23 -5 0 9 7 17 15 17 8 0 15 7 15 15 0 15 23 19 83 15 22 -1 30 4 34 20 4 15
12 20 27 18 11 -2 20 -8 19 -13 -1 -6 17 -10 39 -11 22 -1 36 2 31 5 -23 17
-34 39 -22 47 7 4 9 3 6 -3 -9 -15 38 -44 57 -37 10 4 16 1 16 -7 0 -7 7 -3
16 9 12 18 23 22 64 20 34 -2 51 -7 55 -18 6 -13 8 -12 20 3 13 18 14 18 24
-2 10 -18 13 -19 39 -5 34 18 42 18 42 -1 0 -8 7 -15 15 -15 8 0 15 6 15 13 0
7 3 8 8 2 4 -5 16 -17 27 -25 16 -11 17 -11 8 0 -7 8 -13 21 -13 30 0 9 3 11
8 5 11 -16 65 -38 56 -24 -5 9 0 10 14 7 14 -4 22 -2 22 7 0 7 9 15 21 18 17
5 20 2 16 -13 -4 -15 0 -18 26 -14 16 2 37 10 46 18 16 14 94 17 107 3 11 -11
46 -8 39 3 -4 7 10 9 40 7 26 -3 51 -11 56 -18 7 -11 9 -10 9 4 0 14 5 17 23
11 12 -4 24 -10 27 -14 3 -4 14 2 25 13 11 11 15 17 8 14 -6 -4 -22 -3 -35 2
-19 7 -17 9 17 8 22 0 46 -5 53 -10 8 -7 12 -5 12 6 0 9 5 19 11 23 8 4 9 0 4
-15 -4 -15 -2 -21 8 -21 8 0 14 8 13 18 -1 12 5 16 19 14 11 -2 22 -7 25 -11
3 -5 27 -7 55 -6 27 1 62 -1 77 -5 20 -6 27 -4 31 9 2 10 14 20 26 24 11 3 19
2 17 -2 -6 -10 42 -6 51 4 5 4 2 5 -4 1 -7 -4 -13 -2 -13 3 0 6 5 11 10 11 6
0 10 7 10 15 0 8 5 15 10 15 6 0 10 -7 10 -15 0 -8 5 -15 11 -15 5 0 7 -5 3
-12 -5 -7 -3 -8 5 -4 7 5 10 11 7 14 -7 6 13 32 25 32 5 0 8 -6 7 -12 -2 -7 4
-13 12 -13 8 0 14 5 13 12 -3 14 79 5 89 -10 7 -12 41 10 34 22 -2 3 8 7 22 7
15 1 21 -1 14 -3 -9 -3 -4 -10 13 -19 32 -16 55 -18 55 -4 0 6 -9 10 -19 10
-11 0 -22 4 -25 8 -7 12 38 9 46 -3 4 -5 17 0 31 13 18 17 38 23 75 25 37 1
52 6 52 16 0 11 4 11 18 -2 25 -22 35 -21 47 5 9 18 55 46 55 32 0 -2 -10 -8
-22 -13 -12 -4 -17 -10 -11 -14 6 -4 25 7 42 25 29 30 31 31 50 14 18 -16 20
-16 40 10 11 15 21 22 21 15 0 -6 6 -11 14 -11 16 0 29 27 20 41 -3 5 0 9 5 9
6 0 11 -9 11 -20 0 -28 20 -25 21 3 1 21 1 21 9 -3 7 -21 8 -22 9 -5 1 13 8
21 20 21 16 0 18 -4 9 -19 -9 -18 -9 -19 19 -4 32 17 125 45 163 49 22 3 25 0
22 -27 -2 -25 0 -27 8 -12 6 9 18 17 25 17 9 0 15 10 16 23 0 15 2 17 6 7 10
-25 27 -30 45 -13 16 14 18 14 24 -1 5 -13 9 -14 20 -5 10 8 18 9 27 0 11 -8
19 -4 38 16 18 20 19 24 4 13 -18 -14 -19 -14 -7 2 8 9 19 15 26 12 8 -3 16 4
19 15 7 26 37 27 44 2 5 -19 5 -19 25 1 15 15 22 17 34 7 17 -14 20 -12 33 21
8 23 10 23 16 6 5 -11 3 -21 -6 -27 -10 -6 -6 -8 13 -7 22 2 25 5 15 18 -6 8
-7 12 -2 7 4 -4 16 0 25 8 15 14 18 14 30 0 10 -12 16 -13 27 -4 10 9 17 9 25
1 16 -16 29 -15 27 1 -4 30 2 38 21 32 16 -5 20 -2 18 16 -2 12 3 24 12 26 13
4 13 3 0 -6 -9 -7 -10 -11 -3 -11 6 0 14 4 17 9 3 5 17 9 32 9 16 0 38 12 57
31 24 23 27 31 15 31 -9 0 -19 -8 -21 -17 -4 -14 -5 -15 -6 -2 0 8 6 24 15 35
8 10 13 14 10 8 -7 -14 21 -27 29 -14 3 4 22 8 42 7 28 -2 39 2 41 15 4 21
-37 35 -50 17 -8 -11 -8 -10 -4 4 4 12 -1 20 -17 26 l-22 9 23 9 c22 8 22 9 2
26 -13 11 -20 13 -20 4 0 -8 -4 -7 -10 3 -6 9 -13 11 -17 5 -13 -17 -33 -16
-26 1 3 8 8 12 11 10 3 -3 12 0 20 6 22 19 60 21 65 3 4 -11 4 -10 3 2 -1 14
-10 18 -36 18 -19 0 -40 3 -47 8 -6 4 -18 1 -26 -8 -13 -13 -15 -12 -20 4 -4
17 -60 36 -77 26 -4 -2 -5 7 -2 21 4 23 5 23 18 7 12 -17 13 -16 14 7 0 18 3
21 9 11 7 -11 12 -11 32 2 15 9 52 15 99 16 41 1 102 4 135 7 33 3 74 6 90 5
29 -1 29 0 10 15 -19 14 -16 15 35 12 39 -2 54 1 53 10 -2 8 10 12 35 13 35 0
36 1 12 10 -22 9 -145 24 -351 43 -31 3 -62 8 -70 10 -8 3 -97 10 -199 16
-116 7 -189 16 -195 23 -5 7 -28 21 -50 32 -22 11 -41 23 -43 28 -2 4 -16 7
-32 7 -16 0 -30 5 -32 10 -4 13 -311 29 -573 30 l-180 2 -30 -34 c-16 -19 -73
-83 -125 -144 -90 -103 -343 -363 -420 -430 -158 -139 -310 -246 -454 -319
-33 -16 -59 -34 -58 -40 0 -5 -4 -16 -10 -22 -7 -9 -7 -13 1 -13 6 0 11 -6 11
-13 0 -8 -11 -13 -27 -12 -22 0 -27 5 -25 19 3 14 -1 17 -15 12 -12 -5 -14 -4
-8 2 6 6 19 12 30 15 16 4 16 5 -5 6 -14 0 -38 -6 -55 -15 -21 -12 -57 -17
-125 -17 -81 -1 -100 2 -130 21 -19 12 -40 22 -47 22 -21 0 -91 83 -127 150
-19 36 -39 91 -45 123 -6 32 -13 62 -16 67 -14 23 -5 274 16 415 11 83 22 166
23 185 l1 35 -570 0 c-313 0 -1304 -2 -2202 -5z m70 -209 c5 0 5 -5 2 -11 -9
-15 -42 -12 -48 4 -5 12 5 14 46 7z m48 -78 c-12 -20 -14 -14 -5 12 4 9 9 14
11 11 3 -2 0 -13 -6 -23z m116 -9 c-3 -3 -12 -4 -19 -1 -8 3 -5 6 6 6 11 1 17
-2 13 -5z m5353 -18 c0 -8 -7 -16 -15 -20 -13 -4 -14 -2 -5 14 13 23 20 26 20
6z m-6116 -96 c-6 -6 -10 -3 -10 10 0 13 4 16 10 10 7 -7 7 -13 0 -20z m233
-2 c-3 -8 -6 -5 -6 6 -1 11 2 17 5 13 3 -3 4 -12 1 -19z m-227 -22 c0 -2 -7
-6 -15 -10 -8 -3 -15 -1 -15 4 0 6 7 10 15 10 8 0 15 -2 15 -4z m6270 -31 c0
-8 -4 -15 -10 -15 -5 0 -10 7 -10 15 0 8 5 15 10 15 6 0 10 -7 10 -15z m-6696
-101 c3 -8 2 -12 -4 -9 -6 3 -10 10 -10 16 0 14 7 11 14 -7z m-73 -64 c10 0
19 -7 19 -15 0 -8 -6 -15 -14 -15 -8 0 -21 7 -30 15 -18 19 -30 19 -23 1 4 -9
-2 -13 -16 -12 -20 1 -38 26 -18 26 6 0 11 -6 11 -12 0 -7 5 -5 11 5 6 11 17
16 26 13 8 -3 23 -6 34 -6z m6579 -20 c0 -11 -4 -20 -9 -20 -5 0 -7 9 -4 20 3
11 7 20 9 20 2 0 4 -9 4 -20z m-6593 -89 c0 -11 -5 -17 -9 -15 -4 3 -8 0 -8
-5 0 -6 -4 -11 -10 -11 -14 0 -13 23 2 38 17 17 27 15 25 -7z m-47 -1 c0 -5
-7 -10 -16 -10 -8 0 -12 5 -9 10 3 6 10 10 16 10 5 0 9 -4 9 -10z m204 -234
c-6 -16 -24 -23 -24 -8 0 10 22 33 27 28 2 -2 1 -11 -3 -20z m-14 -27 c13 -9
13 -10 -2 -5 -10 3 -18 -1 -21 -12 -3 -12 -5 -11 -6 6 -1 24 6 27 29 11z
m4249 -12 c6 -8 8 -17 4 -20 -11 -12 -21 -7 -26 13 -6 23 5 26 22 7z m-4192
-49 c-3 -8 -6 -5 -6 6 -1 11 2 17 5 13 3 -3 4 -12 1 -19z m44 -46 c5 8 9 8 9
2 0 -6 -8 -18 -17 -25 -9 -8 -14 -9 -12 -4 7 13 -27 46 -37 37 -4 -4 -4 -1 0
6 6 11 13 9 28 -8 16 -18 22 -19 29 -8z m-41 -91 c0 -15 -31 -42 -41 -36 -16
11 -10 25 11 25 11 0 20 5 20 10 0 6 2 10 5 10 3 0 5 -4 5 -9z m70 -41 c0 -5
-4 -10 -10 -10 -5 0 -10 5 -10 10 0 6 5 10 10 10 6 0 10 -4 10 -10z m46 -54
c0 -13 -6 -22 -13 -19 -13 5 -27 -32 -18 -47 3 -5 1 -10 -4 -10 -6 0 -11 18
-11 40 0 33 3 40 20 40 11 0 20 5 20 10 0 6 2 10 4 10 2 0 3 -11 2 -24z m88
-82 c-13 -11 -15 -17 -6 -20 6 -3 12 -10 12 -15 0 -6 -4 -8 -9 -5 -9 6 -39
-23 -33 -31 2 -3 0 -8 -4 -11 -4 -4 -4 -1 0 6 4 6 3 12 -3 12 -5 0 -9 8 -8 19
1 12 7 17 22 14 11 -2 14 0 7 3 -10 5 -10 10 4 25 9 10 22 19 27 19 6 0 2 -7
-9 -16z m76 -104 c0 -5 -7 -7 -15 -4 -8 4 -12 10 -9 15 6 11 24 2 24 -11z m47
-32 c-3 -8 -6 -5 -6 6 -1 11 2 17 5 13 3 -3 4 -12 1 -19z m-93 -50 c16 -11 -6
-10 -23 1 -8 5 -10 14 -5 22 6 10 9 10 12 -1 3 -8 10 -18 16 -22z m93 -14 c-3
-3 -12 -4 -19 -1 -8 3 -5 6 6 6 11 1 17 -2 13 -5z m11 -39 c-8 -9 -58 9 -58
20 0 11 7 10 31 -2 16 -8 29 -16 27 -18z m1657 -6 c11 -17 -1 -21 -15 -4 -8 9
-8 15 -2 15 6 0 14 -5 17 -11z m65 -9 c0 -5 -4 -10 -10 -10 -5 0 -10 5 -10 10
0 6 5 10 10 10 6 0 10 -4 10 -10z m-42 -31 c-12 -7 -24 -7 -35 0 -15 9 -12 10
17 10 29 0 32 -1 18 -10z m-1656 -49 c-3 -18 0 -30 7 -30 6 0 11 -8 10 -17 0
-11 -3 -13 -6 -5 -2 6 -11 12 -19 12 -8 0 -14 6 -14 14 0 8 -3 21 -6 29 -3 10
2 17 13 20 10 3 18 5 19 6 0 0 -1 -12 -4 -29z m49 -52 c-11 -11 -13 -10 -8 3
3 9 1 22 -4 28 -5 6 -1 4 8 -4 14 -12 15 -17 4 -27z m36 -90 c-3 -8 -6 -5 -6
6 -1 11 2 17 5 13 3 -3 4 -12 1 -19z m73 -255 c0 -7 -6 -13 -13 -13 -8 0 -14
12 -14 30 0 26 2 27 13 12 8 -9 14 -23 14 -29z m17 5 c-3 -8 -6 -5 -6 6 -1 11
2 17 5 13 3 -3 4 -12 1 -19z m130 -70 c-3 -7 -5 -2 -5 12 0 14 2 19 5 13 2 -7
2 -19 0 -25z m-14 -15 c3 -5 -5 -8 -18 -8 -13 0 -21 3 -18 8 2 4 10 7 18 7 8
0 16 -3 18 -7z m-43 -42 c0 -5 -7 -11 -14 -14 -10 -4 -13 -1 -9 9 6 15 23 19
23 5z m47 -46 c-1 0 -12 -9 -25 -20 l-23 -19 11 28 c6 16 8 38 4 50 -4 15 0
13 15 -9 11 -16 19 -29 18 -30z m329 25 c0 -12 -4 -16 -9 -11 -5 5 -6 14 -3
20 10 15 12 14 12 -9z m-271 -10 c-3 -5 -14 -10 -23 -9 -14 0 -13 2 3 9 27 11
27 11 20 0z"/>
<path d="M30050 8131 c0 -3 7 -15 15 -25 15 -20 15 -20 15 0 0 15 4 13 20 -11
l20 -30 0 26 c0 15 6 27 13 26 6 0 23 1 37 2 24 3 24 3 -4 11 -33 10 -116 11
-116 1z"/>
<path d="M19520 8114 c0 -7 9 -22 20 -35 25 -31 26 -12 0 21 -11 14 -20 20
-20 14z"/>
<path d="M29568 8033 c7 -3 16 -2 19 1 4 3 -2 6 -13 5 -11 0 -14 -3 -6 -6z"/>
<path d="M19600 8024 c0 -23 205 -53 360 -53 141 0 68 16 -100 22 -85 3 -179
12 -207 20 -29 8 -53 13 -53 11z"/>
<path d="M29654 7976 c0 -13 4 -22 9 -19 10 6 9 43 -2 43 -5 0 -8 -11 -7 -24z"/>
<path d="M20062 7974 c7 -7 189 -6 196 1 3 3 -41 5 -98 5 -57 0 -101 -3 -98
-6z"/>
<path d="M20310 7967 c0 -9 109 -1 119 9 3 3 -22 4 -57 2 -34 -1 -62 -6 -62
-11z"/>
<path d="M20485 7970 c23 -10 192 -13 182 -3 -4 3 -51 8 -105 9 -61 2 -90 0
-77 -6z"/>
<path d="M20760 7970 c0 -5 9 -10 21 -10 11 0 17 5 14 10 -3 6 -13 10 -21 10
-8 0 -14 -4 -14 -10z"/>
<path d="M20885 7969 c-22 -3 34 -6 125 -6 164 0 164 4 0 9 -47 2 -103 0 -125
-3z"/>
<path d="M23393 7967 c-6 -10 692 -6 767 4 25 3 -136 6 -358 5 -223 0 -406 -4
-409 -9z"/>
<path d="M24238 7973 c6 -2 18 -2 25 0 6 3 1 5 -13 5 -14 0 -19 -2 -12 -5z"/>
<path d="M36087 7969 c7 -7 15 -10 18 -7 3 3 -2 9 -12 12 -14 6 -15 5 -6 -5z"/>
<path d="M21263 7963 c20 -2 54 -2 75 0 20 2 3 4 -38 4 -41 0 -58 -2 -37 -4z"/>
<path d="M21423 7963 c20 -2 54 -2 75 0 20 2 3 4 -38 4 -41 0 -58 -2 -37 -4z"/>
<path d="M21628 7963 c23 -2 59 -2 80 0 20 2 1 4 -43 4 -44 0 -61 -2 -37 -4z"/>
<path d="M21953 7963 c65 -2 168 -2 230 0 62 1 9 3 -118 3 -126 0 -177 -2
-112 -3z"/>
<path d="M22413 7963 c48 -2 125 -2 170 0 45 1 6 3 -88 3 -93 0 -130 -2 -82
-3z"/>
<path d="M22788 7963 c67 -2 177 -2 245 0 67 1 12 3 -123 3 -135 0 -190 -2
-122 -3z"/>
<path d="M23178 7963 c12 -2 32 -2 45 0 12 2 2 4 -23 4 -25 0 -35 -2 -22 -4z"/>
<path d="M23278 7963 c17 -2 47 -2 65 0 17 2 3 4 -33 4 -36 0 -50 -2 -32 -4z"/>
<path d="M36074 7932 c3 -5 0 -13 -6 -15 -9 -4 -10 -6 -1 -6 17 -1 25 16 12
25 -7 4 -9 3 -5 -4z"/>
<path d="M36205 7870 c-3 -6 1 -7 9 -4 18 7 21 14 7 14 -6 0 -13 -4 -16 -10z"/>
<path d="M36261 7861 c-9 -16 -7 -21 10 -26 11 -4 23 -4 26 -1 4 3 -1 6 -10 6
-9 0 -17 7 -17 15 0 17 16 20 23 5 3 -6 4 -5 3 2 -4 20 -24 20 -35 -1z"/>
<path d="M16745 7841 c-57 -4 -73 -8 -55 -13 30 -9 128 1 136 13 3 5 4 8 2 7
-2 -1 -39 -4 -83 -7z"/>
<path d="M36020 7831 c0 -5 6 -14 14 -20 12 -10 13 -8 9 8 -5 21 -23 30 -23
12z"/>
<path d="M16405 7819 c-392 -26 -938 -66 -1415 -103 l-295 -23 205 4 c113 2
232 6 265 8 33 3 124 9 201 15 78 5 148 12 155 14 8 3 61 7 119 10 268 13 917
65 944 76 26 11 -8 10 -179 -1z"/>
<path d="M29240 7814 c0 -8 5 -12 10 -9 6 3 10 10 10 16 0 5 -4 9 -10 9 -5 0
-10 -7 -10 -16z"/>
<path d="M36165 7820 c3 -5 8 -10 11 -10 2 0 4 5 4 10 0 6 -5 10 -11 10 -5 0
-7 -4 -4 -10z"/>
<path d="M26999 7613 c0 -43 -2 -98 -4 -123 -9 -135 -15 -920 -7 -920 5 0 25
6 43 14 19 7 50 16 69 19 l35 6 -37 -20 c-21 -11 -38 -24 -38 -29 0 -5 -10
-12 -22 -15 -13 -4 -36 -20 -53 -35 -38 -36 -139 -90 -177 -94 -16 -1 -34 -8
-40 -14 -7 -7 -18 -12 -25 -12 -7 0 -13 -4 -13 -10 0 -5 -11 -12 -24 -16 -14
-3 -53 -32 -87 -65 -34 -32 -66 -59 -71 -59 -4 0 -8 -4 -8 -10 0 -10 -50 -63
-106 -112 l-32 -28 -53 51 c-93 89 -222 200 -227 195 -2 -3 11 -17 29 -32 19
-15 99 -94 179 -175 l145 -149 52 0 53 0 96 123 c267 337 518 491 798 489 154
-2 404 -69 482 -131 15 -12 31 -21 36 -21 20 0 176 -120 243 -188 150 -149
248 -337 295 -567 7 -33 14 -124 17 -202 8 -216 -25 -390 -123 -635 -47 -120
-172 -363 -239 -468 -23 -36 -44 -70 -46 -75 -14 -34 -217 -324 -314 -450 -33
-42 -69 -89 -80 -104 -24 -33 -144 -179 -195 -237 -19 -22 -60 -69 -90 -104
-265 -308 -743 -813 -779 -823 -10 -2 -32 1 -48 8 -32 13 -163 131 -163 146 0
5 12 9 26 9 25 0 69 25 109 62 116 108 161 148 168 148 4 0 7 7 7 15 0 8 4 15
8 15 16 0 54 39 48 49 -4 5 -19 12 -35 16 -30 6 -144 97 -346 274 -768 675
-1132 1152 -1226 1606 -15 72 -17 290 -5 433 7 81 6 109 -5 129 -12 23 -11 30
14 75 35 63 17 52 -67 -42 -110 -122 -201 -260 -245 -375 -103 -262 -98 -583
14 -839 17 -39 -33 3 -83 71 -187 254 -308 524 -354 788 -24 141 -21 348 6
475 56 256 190 470 396 634 182 145 375 227 625 264 l60 9 -72 2 c-90 1 -205
-16 -258 -39 -22 -10 -56 -21 -75 -24 -19 -4 -44 -11 -55 -16 -11 -5 -49 -21
-84 -35 -162 -67 -336 -187 -456 -314 -33 -35 -102 -108 -152 -161 -51 -54
-93 -102 -93 -107 0 -5 -8 -18 -17 -29 -20 -21 -32 -51 -73 -174 -74 -227 -62
-543 30 -819 90 -268 299 -611 568 -931 16 -19 48 -57 71 -85 163 -194 555
-587 770 -770 39 -33 87 -84 107 -112 21 -29 41 -53 46 -53 5 0 6 5 2 12 -18
28 38 -10 182 -125 378 -300 389 -307 506 -307 73 0 123 21 192 82 124 110
724 766 937 1025 l84 102 3290 6 c1810 4 3342 9 3405 10 63 2 241 4 395 5 260
1 783 12 1108 25 231 9 431 25 460 38 27 12 39 34 13 24 -112 -43 -3230 -63
-7454 -48 -786 3 -1078 7 -1095 16 -17 9 -27 8 -46 -4 -23 -15 -24 -15 -12 6
6 12 16 25 22 29 6 3 26 29 45 58 18 28 83 121 143 206 179 253 342 537 426
740 14 36 33 79 41 97 8 17 14 36 14 43 0 7 7 26 15 43 18 39 55 211 62 290 4
47 8 55 19 46 11 -9 16 -6 24 15 5 14 14 26 20 26 6 0 8 5 4 12 -5 8 0 9 17 5
l24 -6 -21 17 c-31 26 -25 66 10 69 35 3 34 2 41 46 5 29 3 37 -9 37 -19 0
-22 -36 -3 -43 7 -3 5 -6 -5 -6 -18 -1 -24 23 -18 73 1 11 -3 15 -9 12 -6 -4
-11 0 -11 9 0 9 5 13 10 10 6 -3 10 0 10 8 0 9 11 13 36 10 35 -2 36 -1 18 13
-10 9 -13 12 -6 9 9 -5 15 1 19 15 4 16 8 18 14 8 6 -9 9 -7 9 10 0 15 -8 26
-25 32 -14 5 -25 11 -25 13 0 2 11 2 25 -1 21 -3 25 0 25 18 0 19 -3 20 -15
10 -11 -10 -18 -9 -30 3 -13 14 -13 16 7 19 19 2 23 9 21 33 0 17 1 24 4 17 7
-18 33 5 33 29 0 11 5 19 12 19 6 0 8 3 5 7 -4 3 -18 -4 -32 -17 l-25 -23 0
21 c0 12 5 22 11 22 6 0 9 9 6 20 -3 10 1 27 9 37 19 25 17 33 -6 33 -13 0
-20 7 -20 20 0 11 5 20 10 20 6 0 10 7 10 15 0 8 -4 15 -10 15 -5 0 -10 -6
-10 -13 0 -7 -10 -18 -21 -26 -21 -12 -21 -11 2 21 13 18 23 38 21 44 -3 13
25 27 39 19 5 -4 6 1 3 9 -7 19 -20 21 -28 4 -9 -21 -3 75 6 101 5 14 6 32 2
40 -4 9 -7 25 -8 36 -2 29 -34 32 -41 3 -4 -15 -13 -24 -26 -24 -20 0 -20 1
-2 16 10 8 22 23 26 33 3 9 11 17 17 17 5 0 10 7 10 15 0 17 -16 20 -25 5 -4
-7 -13 -7 -26 0 -21 12 -26 28 -6 27 38 -1 55 5 59 21 5 16 0 18 -38 15 -37
-4 -43 -2 -38 12 4 10 13 13 26 9 14 -4 21 0 25 15 3 12 10 21 15 21 5 0 3 7
-6 15 -8 8 -24 15 -35 15 -19 0 -21 5 -19 48 3 51 0 53 -62 38 -21 -5 -22 -5
-5 3 11 5 14 10 8 10 -7 1 -13 8 -13 16 0 21 -18 19 -23 -2 -2 -10 -3 -7 -2 5
2 19 -1 23 -16 19 -12 -3 -19 0 -20 9 -1 8 -3 19 -4 24 -1 6 -3 17 -4 26 -1
11 -7 14 -23 9 -20 -5 -21 -4 -5 5 20 13 37 5 37 -18 0 -14 2 -14 18 2 12 13
14 20 5 23 -21 7 -15 51 8 67 l22 15 -27 7 c-15 3 -30 4 -33 0 -4 -3 4 -6 17
-6 l23 0 -21 -19 c-12 -10 -18 -21 -14 -25 4 -4 -6 -2 -21 5 -15 7 -26 18 -23
25 3 7 -5 14 -16 17 -14 4 -22 0 -25 -14 -7 -24 -23 -25 -23 -1 0 10 -11 25
-25 32 -27 15 -24 30 6 30 11 0 17 -4 14 -10 -3 -5 0 -7 8 -4 7 2 25 0 40 -5
18 -7 28 -7 33 1 4 7 3 8 -4 4 -7 -4 -12 -2 -12 4 0 7 -7 10 -15 6 -10 -3 -15
1 -15 13 0 15 -7 18 -37 15 -32 -3 -35 -2 -15 6 28 12 25 33 -5 35 -14 1 -19
-3 -16 -12 7 -17 -11 -17 -25 0 -16 19 -63 21 -56 2 4 -8 1 -15 -5 -15 -6 0
-11 7 -11 15 0 27 -1 30 -22 52 -12 13 -18 26 -15 30 4 3 7 2 7 -4 0 -6 8 -13
19 -16 17 -4 16 -1 -6 31 -30 45 -36 51 -27 29 4 -12 1 -17 -10 -17 -9 0 -16
6 -16 13 0 22 -44 14 -52 -8 -5 -17 -6 -15 -7 7 -1 26 -4 27 -40 25 -21 -1
-37 -5 -34 -9 2 -5 -11 -8 -29 -8 -18 0 -28 4 -22 8 6 4 13 14 16 23 5 12 0
15 -23 14 -15 -1 -26 1 -24 5 2 3 0 12 -5 20 -7 11 -11 11 -24 1 -12 -10 -17
-8 -31 13 -14 21 -21 23 -40 16 -16 -6 -27 -6 -31 1 -3 6 -13 8 -21 5 -9 -4
-17 1 -20 13 -3 11 -17 22 -31 26 -14 3 -32 14 -39 23 -12 15 -13 14 -3 -5 6
-13 16 -23 22 -23 6 0 9 -2 7 -5 -7 -7 -69 18 -69 27 0 5 -11 1 -25 -8 -23
-15 -25 -15 -25 0 0 9 4 16 8 16 4 0 8 18 9 40 1 22 -3 40 -8 40 -5 0 -9 -7
-7 -16 2 -10 -4 -19 -12 -21 -13 -4 -13 -3 0 6 11 8 7 9 -17 5 -25 -5 -34 -3
-39 10 -8 20 -24 21 -24 0 0 -8 4 -13 9 -9 15 8 24 -14 12 -29 -6 -7 -8 -15
-5 -19 3 -3 -4 -3 -17 0 -19 5 -20 7 -6 12 16 6 16 8 -2 23 -19 16 -20 16 -26
-2 -4 -11 -4 -23 -1 -28 2 -4 -4 -8 -14 -8 -14 0 -16 4 -9 17 14 27 11 30 -18
27 -22 -2 -28 1 -29 17 -3 38 -4 40 -15 25 -8 -11 -12 -12 -16 -2 -2 6 -8 10
-13 7 -4 -3 -6 4 -3 15 4 15 0 20 -16 20 -11 0 -21 5 -21 10 0 6 -7 10 -15 10
-8 0 -15 8 -16 18 0 9 -3 12 -5 6 -3 -7 -14 -10 -25 -7 -19 5 -19 6 -2 26 17
20 17 20 -4 15 -22 -6 -39 14 -27 33 3 5 -2 9 -11 9 -12 0 -15 6 -10 23 4 15
3 18 -3 8 -5 -7 -12 -9 -14 -5 -3 5 -3 3 -2 -3 2 -7 -5 -13 -14 -13 -15 0 -17
7 -14 34 3 24 0 34 -10 33 -7 -1 -13 1 -13 5 0 11 -68 56 -80 53 -5 -1 -7 0
-2 2 16 10 7 43 -13 43 -22 0 -26 10 -10 26 6 6 -2 10 -20 11 -70 5 -71 6 -65
30 4 16 1 23 -10 23 -12 0 -15 -15 -16 -77z m79 -4 c3 -12 2 -12 -6 0 -7 9
-12 10 -16 2 -10 -15 -26 -14 -26 2 0 18 43 14 48 -4z m564 -431 c-8 -8 -9 -4
-5 13 4 13 8 18 11 10 2 -7 -1 -18 -6 -23z m247 -95 c6 -10 11 -13 11 -7 0 17
40 25 40 8 0 -8 -5 -14 -11 -14 -5 0 -8 -4 -5 -8 2 -4 -11 -6 -30 -4 -27 3
-32 7 -24 17 8 9 7 14 -2 18 -9 4 -9 6 -1 6 7 1 17 -7 22 -16z m261 -82 c0 -6
-4 -13 -10 -16 -5 -3 -10 1 -10 9 0 9 5 16 10 16 6 0 10 -4 10 -9z m201 -144
c-10 -9 -11 -8 -5 6 3 10 9 15 12 12 3 -3 0 -11 -7 -18z m-46 -18 c12 -19 -5
-23 -22 -6 -16 16 -16 17 -1 17 9 0 20 -5 23 -11z m156 -104 c10 4 19 2 19 -3
0 -12 -32 -12 -47 1 -7 5 -13 15 -13 21 0 6 5 3 11 -7 7 -12 17 -16 30 -12z
m-1073 -92 c-16 -2 -40 -2 -55 0 -16 2 -3 4 27 4 30 0 43 -2 28 -4z m105 0
c-7 -2 -21 -2 -30 0 -10 3 -4 5 12 5 17 0 24 -2 18 -5z m1154 -158 c6 -14 8
-23 3 -20 -4 3 -10 -2 -14 -10 -7 -20 -36 -19 -36 0 0 9 9 15 22 15 17 0 19 3
10 12 -13 13 -16 28 -4 28 4 0 12 -11 19 -25z m75 -57 c-3 -14 -7 -15 -23 -5
-26 16 -24 25 4 23 17 -1 23 -6 19 -18z m-635 6 c-3 -3 -12 -4 -19 -1 -8 3 -5
6 6 6 11 1 17 -2 13 -5z m588 -12 c0 -18 -20 -15 -23 4 -3 10 1 15 10 12 7 -3
13 -10 13 -16z m-451 -98 c3 -8 2 -12 -4 -9 -6 3 -10 10 -10 16 0 14 7 11 14
-7z m41 -34 c10 -11 14 -20 9 -20 -5 0 -15 9 -22 20 -7 11 -11 20 -9 20 2 0
12 -9 22 -20z m495 -65 c9 -11 9 -22 2 -44 -6 -16 -9 -31 -7 -33 2 -2 -5 -4
-16 -4 -19 0 -19 1 -3 13 17 12 13 17 -11 14 -5 0 0 6 13 15 12 9 22 22 22 28
0 6 -5 4 -11 -4 -9 -13 -10 -13 -6 2 3 9 1 19 -6 22 -8 3 -8 5 -1 5 6 1 17 -6
24 -14z m-395 -54 c-6 -5 -25 10 -25 20 0 5 6 4 14 -3 8 -7 12 -15 11 -17z
m55 -72 c0 -17 -25 2 -37 28 l-13 26 25 -23 c14 -13 25 -27 25 -31z m330 -14
c0 -14 -4 -25 -10 -25 -5 0 -10 11 -10 25 0 14 5 25 10 25 6 0 10 -11 10 -25z
m-310 -33 c0 -15 -2 -15 -10 -2 -13 20 -13 33 0 25 6 -3 10 -14 10 -23z m44
-74 c14 -29 27 -66 31 -83 4 -24 2 -22 -10 9 -8 21 -19 44 -24 50 -10 13 -32
76 -26 76 3 0 16 -24 29 -52z m266 -88 c0 -6 -7 -13 -15 -16 -8 -4 -13 -9 -11
-13 3 -4 -5 -7 -17 -8 -12 0 -16 1 -9 4 6 3 9 10 6 15 -4 6 -2 8 3 5 6 -4 13
0 17 8 6 17 26 20 26 5z m-210 -45 c0 -8 -2 -15 -4 -15 -2 0 -6 7 -10 15 -3 8
-1 15 4 15 6 0 10 -7 10 -15z m18 -100 c0 -16 -2 -15 -8 5 -4 14 -8 36 -8 50
0 22 1 22 8 -5 4 -16 8 -39 8 -50z m27 -88 c4 -29 5 -64 2 -78 -2 -14 -5 -5
-6 21 0 25 -5 60 -10 78 -5 17 -6 32 -1 32 5 0 12 -24 15 -53z m135 -7 c-19
-13 -30 -13 -30 0 0 6 10 10 23 10 18 0 19 -2 7 -10z m-88 -56 c-3 -19 -7 -22
-13 -12 -13 20 -11 38 5 38 9 0 12 -8 8 -26z m-22 -154 c0 -41 -5 -82 -10 -90
-7 -10 -10 19 -10 90 0 71 3 100 10 90 5 -8 10 -49 10 -90z m57 48 c-3 -8 -6
-5 -6 6 -1 11 2 17 5 13 3 -3 4 -12 1 -19z"/>
<path d="M29093 7585 c-3 -9 -3 -19 1 -22 3 -4 6 1 6 10 0 8 6 18 13 20 9 4 9
6 -1 6 -7 1 -15 -6 -19 -14z"/>
<path d="M35200 7596 c0 -2 9 -6 20 -9 11 -3 20 -1 20 4 0 5 -9 9 -20 9 -11 0
-20 -2 -20 -4z"/>
<path d="M29124 7579 c-3 -6 -1 -16 5 -22 8 -8 11 -5 11 11 0 24 -5 28 -16 11z"/>
<path d="M29101 7534 c13 -16 29 -19 29 -5 0 5 -9 11 -21 14 -16 4 -18 3 -8
-9z"/>
<path d="M34931 7524 c0 -11 3 -14 6 -6 3 7 2 16 -1 19 -3 4 -6 -2 -5 -13z"/>
<path d="M29093 7496 c1 -11 9 -21 17 -23 10 -3 11 -2 4 4 -6 4 -14 15 -17 23
-5 11 -6 9 -4 -4z"/>
<path d="M29160 7491 c0 -15 28 -33 40 -26 7 5 5 12 -7 21 -21 16 -33 18 -33
5z"/>
<path d="M34596 7428 c3 -4 9 -8 15 -8 5 0 9 4 9 8 0 5 -7 9 -15 9 -8 0 -12
-4 -9 -9z"/>
<path d="M29170 7412 c0 -7 -7 -12 -15 -12 -8 0 -15 -4 -15 -10 0 -5 4 -10 9
-10 13 0 35 29 27 37 -3 3 -6 1 -6 -5z"/>
<path d="M34560 7410 c0 -5 5 -10 10 -10 6 0 10 5 10 10 0 6 -4 10 -10 10 -5
0 -10 -4 -10 -10z"/>
<path d="M29232 7384 c-7 -8 -18 -12 -24 -8 -6 4 -6 -2 1 -15 10 -17 9 -22 -4
-27 -25 -10 -17 -24 14 -24 16 0 32 -6 34 -12 3 -7 6 -1 6 15 1 15 -3 27 -8
27 -5 0 -8 14 -6 30 5 34 5 34 -13 14z"/>
<path d="M29188 7343 c7 -3 16 -2 19 1 4 3 -2 6 -13 5 -11 0 -14 -3 -6 -6z"/>
<path d="M32991 7308 c0 -13 3 -18 5 -12 3 7 15 9 27 6 20 -5 20 -4 8 11 -19
24 -41 21 -40 -5z"/>
<path d="M29201 7283 c0 -11 3 -13 6 -5 2 6 10 9 15 6 7 -4 8 -2 4 4 -11 18
-26 14 -25 -5z"/>
<path d="M32728 7263 c7 -3 16 -2 19 1 4 3 -2 6 -13 5 -11 0 -14 -3 -6 -6z"/>
<path d="M27490 7235 c0 -9 5 -15 11 -13 6 2 11 8 11 13 0 5 -5 11 -11 13 -6
2 -11 -4 -11 -13z"/>
<path d="M29275 7170 c-4 -7 -2 -16 5 -20 10 -6 8 -9 -6 -13 -17 -4 -17 -5 -1
-6 21 -1 34 26 19 41 -6 6 -12 6 -17 -2z"/>
<path d="M28090 7062 c6 -13 14 -21 18 -18 3 4 -2 14 -12 24 -18 16 -18 16 -6
-6z"/>
<path d="M29375 7043 c16 -34 29 -41 40 -23 3 6 -1 7 -9 4 -9 -3 -16 -2 -16 3
0 5 -7 18 -15 29 -14 17 -14 15 0 -13z"/>
<path d="M28170 7055 c0 -5 5 -17 10 -25 5 -8 10 -10 10 -5 0 6 -5 17 -10 25
-5 8 -10 11 -10 5z"/>
<path d="M29320 7021 c0 -5 11 -8 25 -8 30 0 28 6 -4 12 -11 2 -21 0 -21 -4z"/>
<path d="M29385 6990 c-3 -5 1 -10 10 -10 10 0 13 -5 9 -12 -5 -9 -2 -9 9 1 9
7 17 17 17 22 0 12 -37 11 -45 -1z"/>
<path d="M28355 6970 c-3 -5 1 -10 9 -10 9 0 16 5 16 10 0 6 -4 10 -9 10 -6 0
-13 -4 -16 -10z"/>
<path d="M29449 6969 c-10 -6 -4 -9 19 -9 17 0 32 2 32 4 0 9 -39 13 -51 5z"/>
<path d="M28345 6919 c-4 -6 -5 -12 -2 -15 2 -3 7 2 10 11 7 17 1 20 -8 4z"/>
<path d="M31801 6874 c0 -11 3 -14 6 -6 3 7 2 16 -1 19 -3 4 -6 -2 -5 -13z"/>
<path d="M29470 6840 c0 -5 5 -10 10 -10 6 0 10 5 10 10 0 6 -4 10 -10 10 -5
0 -10 -4 -10 -10z"/>
<path d="M28635 6759 c-4 -6 -5 -12 -2 -15 2 -3 7 2 10 11 7 17 1 20 -8 4z"/>
<path d="M29598 6763 c7 -3 16 -2 19 1 4 3 -2 6 -13 5 -11 0 -14 -3 -6 -6z"/>
<path d="M29535 6749 c-4 -6 -5 -13 -2 -16 7 -7 27 6 27 18 0 12 -17 12 -25
-2z"/>
<path d="M28590 6700 c0 -5 5 -10 10 -10 6 0 10 -4 10 -10 0 -5 -5 -9 -11 -7
-6 1 -14 -5 -16 -13 -4 -13 -3 -13 7 0 10 13 11 13 7 0 -2 -8 -11 -14 -20 -12
-8 1 -18 -2 -22 -8 -4 -6 4 -10 19 -10 13 0 27 -6 29 -12 4 -10 6 -10 6 0 1
14 27 17 33 3 2 -4 12 0 22 10 17 17 18 19 3 19 -9 0 -17 -4 -17 -9 0 -5 -9
-7 -20 -4 -24 6 -25 19 -5 39 22 22 18 34 -10 34 -14 0 -25 -4 -25 -10z"/>
<path d="M31350 6660 c0 -5 5 -10 10 -10 6 0 10 5 10 10 0 6 -4 10 -10 10 -5
0 -10 -4 -10 -10z"/>
<path d="M25613 6543 c9 -2 23 -2 30 0 6 3 -1 5 -18 5 -16 0 -22 -2 -12 -5z"/>
<path d="M28764 6515 c-3 -8 -4 -20 -1 -27 3 -7 6 -3 6 9 1 12 7 24 14 26 9 4
9 6 -1 6 -7 1 -15 -6 -18 -14z"/>
<path d="M15886 6483 c-6 -14 -5 -15 5 -6 7 7 10 15 7 18 -3 3 -9 -2 -12 -12z"/>
<path d="M27800 6460 c0 -16 5 -30 11 -30 5 0 7 5 4 10 -3 6 1 10 9 10 8 0 16
-10 18 -22 3 -20 8 -23 39 -20 27 3 43 -3 61 -20 13 -13 15 -16 5 -8 -18 15
-19 14 -5 -20 10 -24 21 -35 37 -36 12 -1 25 -5 29 -9 4 -5 -1 -5 -10 -2 -10
3 -20 2 -23 -4 -4 -5 -3 -9 2 -8 31 5 55 -2 49 -16 -6 -16 7 -19 72 -17 27 1
32 -2 32 -22 0 -13 7 -26 15 -30 8 -3 18 -7 21 -8 4 -2 8 9 10 24 2 20 -7 35
-36 62 -21 19 -41 32 -44 28 -4 -3 -9 3 -12 15 -3 11 -18 27 -32 34 -15 8 -33
20 -40 27 -7 6 -24 12 -37 12 -13 0 -32 8 -42 19 -22 23 -63 45 -70 37 -3 -3
-12 1 -20 9 -24 25 -43 18 -43 -15z m300 -155 c28 -34 -16 -40 -50 -6 -13 13
-13 14 3 8 9 -3 17 -2 17 3 0 15 16 12 30 -5z"/>
<path d="M25958 6433 c7 -3 16 -2 19 1 4 3 -2 6 -13 5 -11 0 -14 -3 -6 -6z"/>
<path d="M28820 6430 c18 -12 30 -13 30 -2 0 4 -10 9 -22 9 -18 2 -20 0 -8 -7z"/>
<path d="M15852 6397 c-9 -24 -13 -100 -13 -244 0 -188 2 -214 20 -261 30 -76
58 -109 117 -138 113 -55 260 -57 4094 -59 1823 -1 3320 -3 3325 -5 17 -6 108
11 142 26 17 8 40 14 50 14 11 0 28 7 39 16 18 15 18 15 -6 10 -14 -3 -128 -8
-255 -11 -126 -4 -279 -8 -340 -11 -60 -2 -1260 -6 -2665 -8 -2555 -3 -3989 4
-4215 22 -149 12 -183 26 -233 102 l-37 55 -5 264 c-4 230 -7 259 -18 228z"/>
<path d="M29800 6390 c0 -5 5 -10 10 -10 6 0 10 5 10 10 0 6 -4 10 -10 10 -5
0 -10 -4 -10 -10z"/>
<path d="M26080 6361 c0 -5 7 -12 16 -15 14 -5 15 -4 4 9 -14 17 -20 19 -20 6z"/>
<path d="M29805 6350 c3 -5 10 -10 16 -10 5 0 9 5 9 10 0 6 -7 10 -16 10 -8 0
-12 -4 -9 -10z"/>
<path d="M28768 6303 c7 -3 16 -2 19 1 4 3 -2 6 -13 5 -11 0 -14 -3 -6 -6z"/>
<path d="M30768 6263 c7 -3 16 -2 19 1 4 3 -2 6 -13 5 -11 0 -14 -3 -6 -6z"/>
<path d="M30460 6115 c0 -8 5 -15 10 -15 6 0 10 7 10 15 0 8 -4 15 -10 15 -5
0 -10 -7 -10 -15z"/>
<path d="M29920 6116 c0 -2 7 -7 16 -10 8 -3 12 -2 9 4 -6 10 -25 14 -25 6z"/>
<path d="M30093 6073 c-22 -8 -14 -23 13 -23 15 0 24 5 22 12 -5 14 -18 18
-35 11z"/>
<path d="M30180 6047 c-23 -9 -23 -10 -5 -15 11 -2 24 -11 30 -19 9 -12 11
-10 10 10 0 33 -5 37 -35 24z"/>
<path d="M28810 5776 c0 -2 7 -7 16 -10 8 -3 12 -2 9 4 -6 10 -25 14 -25 6z"/>
<path d="M26651 5666 c-18 -19 -31 -40 -29 -46 2 -7 21 9 42 34 44 54 35 62
-13 12z"/>
<path d="M28711 5428 c-1 -21 15 -32 25 -17 4 7 3 9 -4 5 -6 -3 -13 2 -15 11
-4 16 -5 16 -6 1z"/>
<path d="M28585 5168 c-16 -62 -12 -114 6 -102 5 3 7 25 4 50 -3 26 -1 44 5
44 5 0 10 7 10 15 0 23 -19 18 -25 -7z"/>
<path d="M28552 5005 c0 -16 2 -22 5 -12 2 9 2 23 0 30 -3 6 -5 -1 -5 -18z"/>
<path d="M15523 4123 c9 -2 23 -2 30 0 6 3 -1 5 -18 5 -16 0 -22 -2 -12 -5z"/>
<path d="M22728 4043 c6 -2 18 -2 25 0 6 3 1 5 -13 5 -14 0 -19 -2 -12 -5z"/>
<path d="M27875 3780 c3 -5 8 -10 11 -10 2 0 4 5 4 10 0 6 -5 10 -11 10 -5 0
-7 -4 -4 -10z"/>
</g>
</svg>
